M48
; DRILL file {KiCad (5.1.2-1)-1} date 2022 January 01, Saturday 19:51:32
; FORMAT={-:-/ absolute / metric / decimal}
; #@! TF.CreationDate,2022-01-01T19:51:32+01:00
; #@! TF.GenerationSoftware,Kicad,Pcbnew,(5.1.2-1)-1
FMAT,2
METRIC
T1C0.400
T2C1.320
%
G90
G05
T1
X172.53Y-80.28
X172.7Y-89.775
X174.775Y-90.0
X180.24Y-111.4
X181.08Y-111.41
X181.48Y-108.01
X181.49Y-107.04
X183.61Y-103.01
X183.61Y-103.87
X184.034Y-91.368
X184.38Y-96.85
X184.48Y-103.01
X184.48Y-103.88
X185.19Y-96.85
X185.734Y-91.368
X186.55Y-107.06
X186.55Y-107.97
X186.894Y-90.238
X189.63Y-104.98
X190.7Y-94.5
X191.15Y-100.1
X193.1Y-90.6
X196.0Y-89.6
X198.4Y-97.8
X199.5Y-96.8
T2
X164.6Y-93.15
X164.6Y-98.15
T0
M30
