G04 #@! TF.GenerationSoftware,KiCad,Pcbnew,(5.1.2-1)-1*
G04 #@! TF.CreationDate,2022-01-01T19:51:34+01:00*
G04 #@! TF.ProjectId,STM32G0_MPU6050_circle,53544d33-3247-4305-9f4d-505536303530,rev?*
G04 #@! TF.SameCoordinates,Original*
G04 #@! TF.FileFunction,Paste,Top*
G04 #@! TF.FilePolarity,Positive*
%FSLAX46Y46*%
G04 Gerber Fmt 4.6, Leading zero omitted, Abs format (unit mm)*
G04 Created by KiCad (PCBNEW (5.1.2-1)-1) date 2022-01-01 19:51:34*
%MOMM*%
%LPD*%
G04 APERTURE LIST*
%ADD10R,1.454899X0.532600*%
%ADD11C,0.100000*%
%ADD12C,0.300000*%
%ADD13C,0.590000*%
%ADD14C,0.875000*%
%ADD15R,0.900000X1.200000*%
%ADD16R,1.500000X2.000000*%
%ADD17R,3.800000X2.000000*%
%ADD18R,1.900000X0.800000*%
%ADD19R,0.750000X2.100000*%
%ADD20R,1.175000X1.900000*%
%ADD21R,2.375000X1.900000*%
%ADD22R,1.475000X2.100000*%
%ADD23R,0.450000X1.380000*%
%ADD24C,1.250000*%
G04 APERTURE END LIST*
D10*
X176511052Y-91354200D03*
X176511052Y-90084200D03*
X176511052Y-88814200D03*
X176511052Y-87544200D03*
X181953748Y-87544200D03*
X181953748Y-88814200D03*
X181953748Y-90084200D03*
X181953748Y-91354200D03*
D11*
G36*
X192473351Y-94334361D02*
G01*
X192480632Y-94335441D01*
X192487771Y-94337229D01*
X192494701Y-94339709D01*
X192501355Y-94342856D01*
X192507668Y-94346640D01*
X192513579Y-94351024D01*
X192519033Y-94355967D01*
X192523976Y-94361421D01*
X192528360Y-94367332D01*
X192532144Y-94373645D01*
X192535291Y-94380299D01*
X192537771Y-94387229D01*
X192539559Y-94394368D01*
X192540639Y-94401649D01*
X192541000Y-94409000D01*
X192541000Y-94559000D01*
X192540639Y-94566351D01*
X192539559Y-94573632D01*
X192537771Y-94580771D01*
X192535291Y-94587701D01*
X192532144Y-94594355D01*
X192528360Y-94600668D01*
X192523976Y-94606579D01*
X192519033Y-94612033D01*
X192513579Y-94616976D01*
X192507668Y-94621360D01*
X192501355Y-94625144D01*
X192494701Y-94628291D01*
X192487771Y-94630771D01*
X192480632Y-94632559D01*
X192473351Y-94633639D01*
X192466000Y-94634000D01*
X191766000Y-94634000D01*
X191758649Y-94633639D01*
X191751368Y-94632559D01*
X191744229Y-94630771D01*
X191737299Y-94628291D01*
X191730645Y-94625144D01*
X191724332Y-94621360D01*
X191718421Y-94616976D01*
X191712967Y-94612033D01*
X191708024Y-94606579D01*
X191703640Y-94600668D01*
X191699856Y-94594355D01*
X191696709Y-94587701D01*
X191694229Y-94580771D01*
X191692441Y-94573632D01*
X191691361Y-94566351D01*
X191691000Y-94559000D01*
X191691000Y-94409000D01*
X191691361Y-94401649D01*
X191692441Y-94394368D01*
X191694229Y-94387229D01*
X191696709Y-94380299D01*
X191699856Y-94373645D01*
X191703640Y-94367332D01*
X191708024Y-94361421D01*
X191712967Y-94355967D01*
X191718421Y-94351024D01*
X191724332Y-94346640D01*
X191730645Y-94342856D01*
X191737299Y-94339709D01*
X191744229Y-94337229D01*
X191751368Y-94335441D01*
X191758649Y-94334361D01*
X191766000Y-94334000D01*
X192466000Y-94334000D01*
X192473351Y-94334361D01*
X192473351Y-94334361D01*
G37*
D12*
X192116000Y-94484000D03*
D11*
G36*
X192473351Y-94834361D02*
G01*
X192480632Y-94835441D01*
X192487771Y-94837229D01*
X192494701Y-94839709D01*
X192501355Y-94842856D01*
X192507668Y-94846640D01*
X192513579Y-94851024D01*
X192519033Y-94855967D01*
X192523976Y-94861421D01*
X192528360Y-94867332D01*
X192532144Y-94873645D01*
X192535291Y-94880299D01*
X192537771Y-94887229D01*
X192539559Y-94894368D01*
X192540639Y-94901649D01*
X192541000Y-94909000D01*
X192541000Y-95059000D01*
X192540639Y-95066351D01*
X192539559Y-95073632D01*
X192537771Y-95080771D01*
X192535291Y-95087701D01*
X192532144Y-95094355D01*
X192528360Y-95100668D01*
X192523976Y-95106579D01*
X192519033Y-95112033D01*
X192513579Y-95116976D01*
X192507668Y-95121360D01*
X192501355Y-95125144D01*
X192494701Y-95128291D01*
X192487771Y-95130771D01*
X192480632Y-95132559D01*
X192473351Y-95133639D01*
X192466000Y-95134000D01*
X191766000Y-95134000D01*
X191758649Y-95133639D01*
X191751368Y-95132559D01*
X191744229Y-95130771D01*
X191737299Y-95128291D01*
X191730645Y-95125144D01*
X191724332Y-95121360D01*
X191718421Y-95116976D01*
X191712967Y-95112033D01*
X191708024Y-95106579D01*
X191703640Y-95100668D01*
X191699856Y-95094355D01*
X191696709Y-95087701D01*
X191694229Y-95080771D01*
X191692441Y-95073632D01*
X191691361Y-95066351D01*
X191691000Y-95059000D01*
X191691000Y-94909000D01*
X191691361Y-94901649D01*
X191692441Y-94894368D01*
X191694229Y-94887229D01*
X191696709Y-94880299D01*
X191699856Y-94873645D01*
X191703640Y-94867332D01*
X191708024Y-94861421D01*
X191712967Y-94855967D01*
X191718421Y-94851024D01*
X191724332Y-94846640D01*
X191730645Y-94842856D01*
X191737299Y-94839709D01*
X191744229Y-94837229D01*
X191751368Y-94835441D01*
X191758649Y-94834361D01*
X191766000Y-94834000D01*
X192466000Y-94834000D01*
X192473351Y-94834361D01*
X192473351Y-94834361D01*
G37*
D12*
X192116000Y-94984000D03*
D11*
G36*
X192473351Y-95334361D02*
G01*
X192480632Y-95335441D01*
X192487771Y-95337229D01*
X192494701Y-95339709D01*
X192501355Y-95342856D01*
X192507668Y-95346640D01*
X192513579Y-95351024D01*
X192519033Y-95355967D01*
X192523976Y-95361421D01*
X192528360Y-95367332D01*
X192532144Y-95373645D01*
X192535291Y-95380299D01*
X192537771Y-95387229D01*
X192539559Y-95394368D01*
X192540639Y-95401649D01*
X192541000Y-95409000D01*
X192541000Y-95559000D01*
X192540639Y-95566351D01*
X192539559Y-95573632D01*
X192537771Y-95580771D01*
X192535291Y-95587701D01*
X192532144Y-95594355D01*
X192528360Y-95600668D01*
X192523976Y-95606579D01*
X192519033Y-95612033D01*
X192513579Y-95616976D01*
X192507668Y-95621360D01*
X192501355Y-95625144D01*
X192494701Y-95628291D01*
X192487771Y-95630771D01*
X192480632Y-95632559D01*
X192473351Y-95633639D01*
X192466000Y-95634000D01*
X191766000Y-95634000D01*
X191758649Y-95633639D01*
X191751368Y-95632559D01*
X191744229Y-95630771D01*
X191737299Y-95628291D01*
X191730645Y-95625144D01*
X191724332Y-95621360D01*
X191718421Y-95616976D01*
X191712967Y-95612033D01*
X191708024Y-95606579D01*
X191703640Y-95600668D01*
X191699856Y-95594355D01*
X191696709Y-95587701D01*
X191694229Y-95580771D01*
X191692441Y-95573632D01*
X191691361Y-95566351D01*
X191691000Y-95559000D01*
X191691000Y-95409000D01*
X191691361Y-95401649D01*
X191692441Y-95394368D01*
X191694229Y-95387229D01*
X191696709Y-95380299D01*
X191699856Y-95373645D01*
X191703640Y-95367332D01*
X191708024Y-95361421D01*
X191712967Y-95355967D01*
X191718421Y-95351024D01*
X191724332Y-95346640D01*
X191730645Y-95342856D01*
X191737299Y-95339709D01*
X191744229Y-95337229D01*
X191751368Y-95335441D01*
X191758649Y-95334361D01*
X191766000Y-95334000D01*
X192466000Y-95334000D01*
X192473351Y-95334361D01*
X192473351Y-95334361D01*
G37*
D12*
X192116000Y-95484000D03*
D11*
G36*
X192473351Y-95834361D02*
G01*
X192480632Y-95835441D01*
X192487771Y-95837229D01*
X192494701Y-95839709D01*
X192501355Y-95842856D01*
X192507668Y-95846640D01*
X192513579Y-95851024D01*
X192519033Y-95855967D01*
X192523976Y-95861421D01*
X192528360Y-95867332D01*
X192532144Y-95873645D01*
X192535291Y-95880299D01*
X192537771Y-95887229D01*
X192539559Y-95894368D01*
X192540639Y-95901649D01*
X192541000Y-95909000D01*
X192541000Y-96059000D01*
X192540639Y-96066351D01*
X192539559Y-96073632D01*
X192537771Y-96080771D01*
X192535291Y-96087701D01*
X192532144Y-96094355D01*
X192528360Y-96100668D01*
X192523976Y-96106579D01*
X192519033Y-96112033D01*
X192513579Y-96116976D01*
X192507668Y-96121360D01*
X192501355Y-96125144D01*
X192494701Y-96128291D01*
X192487771Y-96130771D01*
X192480632Y-96132559D01*
X192473351Y-96133639D01*
X192466000Y-96134000D01*
X191766000Y-96134000D01*
X191758649Y-96133639D01*
X191751368Y-96132559D01*
X191744229Y-96130771D01*
X191737299Y-96128291D01*
X191730645Y-96125144D01*
X191724332Y-96121360D01*
X191718421Y-96116976D01*
X191712967Y-96112033D01*
X191708024Y-96106579D01*
X191703640Y-96100668D01*
X191699856Y-96094355D01*
X191696709Y-96087701D01*
X191694229Y-96080771D01*
X191692441Y-96073632D01*
X191691361Y-96066351D01*
X191691000Y-96059000D01*
X191691000Y-95909000D01*
X191691361Y-95901649D01*
X191692441Y-95894368D01*
X191694229Y-95887229D01*
X191696709Y-95880299D01*
X191699856Y-95873645D01*
X191703640Y-95867332D01*
X191708024Y-95861421D01*
X191712967Y-95855967D01*
X191718421Y-95851024D01*
X191724332Y-95846640D01*
X191730645Y-95842856D01*
X191737299Y-95839709D01*
X191744229Y-95837229D01*
X191751368Y-95835441D01*
X191758649Y-95834361D01*
X191766000Y-95834000D01*
X192466000Y-95834000D01*
X192473351Y-95834361D01*
X192473351Y-95834361D01*
G37*
D12*
X192116000Y-95984000D03*
D11*
G36*
X192473351Y-96334361D02*
G01*
X192480632Y-96335441D01*
X192487771Y-96337229D01*
X192494701Y-96339709D01*
X192501355Y-96342856D01*
X192507668Y-96346640D01*
X192513579Y-96351024D01*
X192519033Y-96355967D01*
X192523976Y-96361421D01*
X192528360Y-96367332D01*
X192532144Y-96373645D01*
X192535291Y-96380299D01*
X192537771Y-96387229D01*
X192539559Y-96394368D01*
X192540639Y-96401649D01*
X192541000Y-96409000D01*
X192541000Y-96559000D01*
X192540639Y-96566351D01*
X192539559Y-96573632D01*
X192537771Y-96580771D01*
X192535291Y-96587701D01*
X192532144Y-96594355D01*
X192528360Y-96600668D01*
X192523976Y-96606579D01*
X192519033Y-96612033D01*
X192513579Y-96616976D01*
X192507668Y-96621360D01*
X192501355Y-96625144D01*
X192494701Y-96628291D01*
X192487771Y-96630771D01*
X192480632Y-96632559D01*
X192473351Y-96633639D01*
X192466000Y-96634000D01*
X191766000Y-96634000D01*
X191758649Y-96633639D01*
X191751368Y-96632559D01*
X191744229Y-96630771D01*
X191737299Y-96628291D01*
X191730645Y-96625144D01*
X191724332Y-96621360D01*
X191718421Y-96616976D01*
X191712967Y-96612033D01*
X191708024Y-96606579D01*
X191703640Y-96600668D01*
X191699856Y-96594355D01*
X191696709Y-96587701D01*
X191694229Y-96580771D01*
X191692441Y-96573632D01*
X191691361Y-96566351D01*
X191691000Y-96559000D01*
X191691000Y-96409000D01*
X191691361Y-96401649D01*
X191692441Y-96394368D01*
X191694229Y-96387229D01*
X191696709Y-96380299D01*
X191699856Y-96373645D01*
X191703640Y-96367332D01*
X191708024Y-96361421D01*
X191712967Y-96355967D01*
X191718421Y-96351024D01*
X191724332Y-96346640D01*
X191730645Y-96342856D01*
X191737299Y-96339709D01*
X191744229Y-96337229D01*
X191751368Y-96335441D01*
X191758649Y-96334361D01*
X191766000Y-96334000D01*
X192466000Y-96334000D01*
X192473351Y-96334361D01*
X192473351Y-96334361D01*
G37*
D12*
X192116000Y-96484000D03*
D11*
G36*
X192473351Y-96834361D02*
G01*
X192480632Y-96835441D01*
X192487771Y-96837229D01*
X192494701Y-96839709D01*
X192501355Y-96842856D01*
X192507668Y-96846640D01*
X192513579Y-96851024D01*
X192519033Y-96855967D01*
X192523976Y-96861421D01*
X192528360Y-96867332D01*
X192532144Y-96873645D01*
X192535291Y-96880299D01*
X192537771Y-96887229D01*
X192539559Y-96894368D01*
X192540639Y-96901649D01*
X192541000Y-96909000D01*
X192541000Y-97059000D01*
X192540639Y-97066351D01*
X192539559Y-97073632D01*
X192537771Y-97080771D01*
X192535291Y-97087701D01*
X192532144Y-97094355D01*
X192528360Y-97100668D01*
X192523976Y-97106579D01*
X192519033Y-97112033D01*
X192513579Y-97116976D01*
X192507668Y-97121360D01*
X192501355Y-97125144D01*
X192494701Y-97128291D01*
X192487771Y-97130771D01*
X192480632Y-97132559D01*
X192473351Y-97133639D01*
X192466000Y-97134000D01*
X191766000Y-97134000D01*
X191758649Y-97133639D01*
X191751368Y-97132559D01*
X191744229Y-97130771D01*
X191737299Y-97128291D01*
X191730645Y-97125144D01*
X191724332Y-97121360D01*
X191718421Y-97116976D01*
X191712967Y-97112033D01*
X191708024Y-97106579D01*
X191703640Y-97100668D01*
X191699856Y-97094355D01*
X191696709Y-97087701D01*
X191694229Y-97080771D01*
X191692441Y-97073632D01*
X191691361Y-97066351D01*
X191691000Y-97059000D01*
X191691000Y-96909000D01*
X191691361Y-96901649D01*
X191692441Y-96894368D01*
X191694229Y-96887229D01*
X191696709Y-96880299D01*
X191699856Y-96873645D01*
X191703640Y-96867332D01*
X191708024Y-96861421D01*
X191712967Y-96855967D01*
X191718421Y-96851024D01*
X191724332Y-96846640D01*
X191730645Y-96842856D01*
X191737299Y-96839709D01*
X191744229Y-96837229D01*
X191751368Y-96835441D01*
X191758649Y-96834361D01*
X191766000Y-96834000D01*
X192466000Y-96834000D01*
X192473351Y-96834361D01*
X192473351Y-96834361D01*
G37*
D12*
X192116000Y-96984000D03*
D11*
G36*
X192898351Y-97259361D02*
G01*
X192905632Y-97260441D01*
X192912771Y-97262229D01*
X192919701Y-97264709D01*
X192926355Y-97267856D01*
X192932668Y-97271640D01*
X192938579Y-97276024D01*
X192944033Y-97280967D01*
X192948976Y-97286421D01*
X192953360Y-97292332D01*
X192957144Y-97298645D01*
X192960291Y-97305299D01*
X192962771Y-97312229D01*
X192964559Y-97319368D01*
X192965639Y-97326649D01*
X192966000Y-97334000D01*
X192966000Y-98034000D01*
X192965639Y-98041351D01*
X192964559Y-98048632D01*
X192962771Y-98055771D01*
X192960291Y-98062701D01*
X192957144Y-98069355D01*
X192953360Y-98075668D01*
X192948976Y-98081579D01*
X192944033Y-98087033D01*
X192938579Y-98091976D01*
X192932668Y-98096360D01*
X192926355Y-98100144D01*
X192919701Y-98103291D01*
X192912771Y-98105771D01*
X192905632Y-98107559D01*
X192898351Y-98108639D01*
X192891000Y-98109000D01*
X192741000Y-98109000D01*
X192733649Y-98108639D01*
X192726368Y-98107559D01*
X192719229Y-98105771D01*
X192712299Y-98103291D01*
X192705645Y-98100144D01*
X192699332Y-98096360D01*
X192693421Y-98091976D01*
X192687967Y-98087033D01*
X192683024Y-98081579D01*
X192678640Y-98075668D01*
X192674856Y-98069355D01*
X192671709Y-98062701D01*
X192669229Y-98055771D01*
X192667441Y-98048632D01*
X192666361Y-98041351D01*
X192666000Y-98034000D01*
X192666000Y-97334000D01*
X192666361Y-97326649D01*
X192667441Y-97319368D01*
X192669229Y-97312229D01*
X192671709Y-97305299D01*
X192674856Y-97298645D01*
X192678640Y-97292332D01*
X192683024Y-97286421D01*
X192687967Y-97280967D01*
X192693421Y-97276024D01*
X192699332Y-97271640D01*
X192705645Y-97267856D01*
X192712299Y-97264709D01*
X192719229Y-97262229D01*
X192726368Y-97260441D01*
X192733649Y-97259361D01*
X192741000Y-97259000D01*
X192891000Y-97259000D01*
X192898351Y-97259361D01*
X192898351Y-97259361D01*
G37*
D12*
X192816000Y-97684000D03*
D11*
G36*
X193398351Y-97259361D02*
G01*
X193405632Y-97260441D01*
X193412771Y-97262229D01*
X193419701Y-97264709D01*
X193426355Y-97267856D01*
X193432668Y-97271640D01*
X193438579Y-97276024D01*
X193444033Y-97280967D01*
X193448976Y-97286421D01*
X193453360Y-97292332D01*
X193457144Y-97298645D01*
X193460291Y-97305299D01*
X193462771Y-97312229D01*
X193464559Y-97319368D01*
X193465639Y-97326649D01*
X193466000Y-97334000D01*
X193466000Y-98034000D01*
X193465639Y-98041351D01*
X193464559Y-98048632D01*
X193462771Y-98055771D01*
X193460291Y-98062701D01*
X193457144Y-98069355D01*
X193453360Y-98075668D01*
X193448976Y-98081579D01*
X193444033Y-98087033D01*
X193438579Y-98091976D01*
X193432668Y-98096360D01*
X193426355Y-98100144D01*
X193419701Y-98103291D01*
X193412771Y-98105771D01*
X193405632Y-98107559D01*
X193398351Y-98108639D01*
X193391000Y-98109000D01*
X193241000Y-98109000D01*
X193233649Y-98108639D01*
X193226368Y-98107559D01*
X193219229Y-98105771D01*
X193212299Y-98103291D01*
X193205645Y-98100144D01*
X193199332Y-98096360D01*
X193193421Y-98091976D01*
X193187967Y-98087033D01*
X193183024Y-98081579D01*
X193178640Y-98075668D01*
X193174856Y-98069355D01*
X193171709Y-98062701D01*
X193169229Y-98055771D01*
X193167441Y-98048632D01*
X193166361Y-98041351D01*
X193166000Y-98034000D01*
X193166000Y-97334000D01*
X193166361Y-97326649D01*
X193167441Y-97319368D01*
X193169229Y-97312229D01*
X193171709Y-97305299D01*
X193174856Y-97298645D01*
X193178640Y-97292332D01*
X193183024Y-97286421D01*
X193187967Y-97280967D01*
X193193421Y-97276024D01*
X193199332Y-97271640D01*
X193205645Y-97267856D01*
X193212299Y-97264709D01*
X193219229Y-97262229D01*
X193226368Y-97260441D01*
X193233649Y-97259361D01*
X193241000Y-97259000D01*
X193391000Y-97259000D01*
X193398351Y-97259361D01*
X193398351Y-97259361D01*
G37*
D12*
X193316000Y-97684000D03*
D11*
G36*
X193898351Y-97259361D02*
G01*
X193905632Y-97260441D01*
X193912771Y-97262229D01*
X193919701Y-97264709D01*
X193926355Y-97267856D01*
X193932668Y-97271640D01*
X193938579Y-97276024D01*
X193944033Y-97280967D01*
X193948976Y-97286421D01*
X193953360Y-97292332D01*
X193957144Y-97298645D01*
X193960291Y-97305299D01*
X193962771Y-97312229D01*
X193964559Y-97319368D01*
X193965639Y-97326649D01*
X193966000Y-97334000D01*
X193966000Y-98034000D01*
X193965639Y-98041351D01*
X193964559Y-98048632D01*
X193962771Y-98055771D01*
X193960291Y-98062701D01*
X193957144Y-98069355D01*
X193953360Y-98075668D01*
X193948976Y-98081579D01*
X193944033Y-98087033D01*
X193938579Y-98091976D01*
X193932668Y-98096360D01*
X193926355Y-98100144D01*
X193919701Y-98103291D01*
X193912771Y-98105771D01*
X193905632Y-98107559D01*
X193898351Y-98108639D01*
X193891000Y-98109000D01*
X193741000Y-98109000D01*
X193733649Y-98108639D01*
X193726368Y-98107559D01*
X193719229Y-98105771D01*
X193712299Y-98103291D01*
X193705645Y-98100144D01*
X193699332Y-98096360D01*
X193693421Y-98091976D01*
X193687967Y-98087033D01*
X193683024Y-98081579D01*
X193678640Y-98075668D01*
X193674856Y-98069355D01*
X193671709Y-98062701D01*
X193669229Y-98055771D01*
X193667441Y-98048632D01*
X193666361Y-98041351D01*
X193666000Y-98034000D01*
X193666000Y-97334000D01*
X193666361Y-97326649D01*
X193667441Y-97319368D01*
X193669229Y-97312229D01*
X193671709Y-97305299D01*
X193674856Y-97298645D01*
X193678640Y-97292332D01*
X193683024Y-97286421D01*
X193687967Y-97280967D01*
X193693421Y-97276024D01*
X193699332Y-97271640D01*
X193705645Y-97267856D01*
X193712299Y-97264709D01*
X193719229Y-97262229D01*
X193726368Y-97260441D01*
X193733649Y-97259361D01*
X193741000Y-97259000D01*
X193891000Y-97259000D01*
X193898351Y-97259361D01*
X193898351Y-97259361D01*
G37*
D12*
X193816000Y-97684000D03*
D11*
G36*
X194398351Y-97259361D02*
G01*
X194405632Y-97260441D01*
X194412771Y-97262229D01*
X194419701Y-97264709D01*
X194426355Y-97267856D01*
X194432668Y-97271640D01*
X194438579Y-97276024D01*
X194444033Y-97280967D01*
X194448976Y-97286421D01*
X194453360Y-97292332D01*
X194457144Y-97298645D01*
X194460291Y-97305299D01*
X194462771Y-97312229D01*
X194464559Y-97319368D01*
X194465639Y-97326649D01*
X194466000Y-97334000D01*
X194466000Y-98034000D01*
X194465639Y-98041351D01*
X194464559Y-98048632D01*
X194462771Y-98055771D01*
X194460291Y-98062701D01*
X194457144Y-98069355D01*
X194453360Y-98075668D01*
X194448976Y-98081579D01*
X194444033Y-98087033D01*
X194438579Y-98091976D01*
X194432668Y-98096360D01*
X194426355Y-98100144D01*
X194419701Y-98103291D01*
X194412771Y-98105771D01*
X194405632Y-98107559D01*
X194398351Y-98108639D01*
X194391000Y-98109000D01*
X194241000Y-98109000D01*
X194233649Y-98108639D01*
X194226368Y-98107559D01*
X194219229Y-98105771D01*
X194212299Y-98103291D01*
X194205645Y-98100144D01*
X194199332Y-98096360D01*
X194193421Y-98091976D01*
X194187967Y-98087033D01*
X194183024Y-98081579D01*
X194178640Y-98075668D01*
X194174856Y-98069355D01*
X194171709Y-98062701D01*
X194169229Y-98055771D01*
X194167441Y-98048632D01*
X194166361Y-98041351D01*
X194166000Y-98034000D01*
X194166000Y-97334000D01*
X194166361Y-97326649D01*
X194167441Y-97319368D01*
X194169229Y-97312229D01*
X194171709Y-97305299D01*
X194174856Y-97298645D01*
X194178640Y-97292332D01*
X194183024Y-97286421D01*
X194187967Y-97280967D01*
X194193421Y-97276024D01*
X194199332Y-97271640D01*
X194205645Y-97267856D01*
X194212299Y-97264709D01*
X194219229Y-97262229D01*
X194226368Y-97260441D01*
X194233649Y-97259361D01*
X194241000Y-97259000D01*
X194391000Y-97259000D01*
X194398351Y-97259361D01*
X194398351Y-97259361D01*
G37*
D12*
X194316000Y-97684000D03*
D11*
G36*
X194898351Y-97259361D02*
G01*
X194905632Y-97260441D01*
X194912771Y-97262229D01*
X194919701Y-97264709D01*
X194926355Y-97267856D01*
X194932668Y-97271640D01*
X194938579Y-97276024D01*
X194944033Y-97280967D01*
X194948976Y-97286421D01*
X194953360Y-97292332D01*
X194957144Y-97298645D01*
X194960291Y-97305299D01*
X194962771Y-97312229D01*
X194964559Y-97319368D01*
X194965639Y-97326649D01*
X194966000Y-97334000D01*
X194966000Y-98034000D01*
X194965639Y-98041351D01*
X194964559Y-98048632D01*
X194962771Y-98055771D01*
X194960291Y-98062701D01*
X194957144Y-98069355D01*
X194953360Y-98075668D01*
X194948976Y-98081579D01*
X194944033Y-98087033D01*
X194938579Y-98091976D01*
X194932668Y-98096360D01*
X194926355Y-98100144D01*
X194919701Y-98103291D01*
X194912771Y-98105771D01*
X194905632Y-98107559D01*
X194898351Y-98108639D01*
X194891000Y-98109000D01*
X194741000Y-98109000D01*
X194733649Y-98108639D01*
X194726368Y-98107559D01*
X194719229Y-98105771D01*
X194712299Y-98103291D01*
X194705645Y-98100144D01*
X194699332Y-98096360D01*
X194693421Y-98091976D01*
X194687967Y-98087033D01*
X194683024Y-98081579D01*
X194678640Y-98075668D01*
X194674856Y-98069355D01*
X194671709Y-98062701D01*
X194669229Y-98055771D01*
X194667441Y-98048632D01*
X194666361Y-98041351D01*
X194666000Y-98034000D01*
X194666000Y-97334000D01*
X194666361Y-97326649D01*
X194667441Y-97319368D01*
X194669229Y-97312229D01*
X194671709Y-97305299D01*
X194674856Y-97298645D01*
X194678640Y-97292332D01*
X194683024Y-97286421D01*
X194687967Y-97280967D01*
X194693421Y-97276024D01*
X194699332Y-97271640D01*
X194705645Y-97267856D01*
X194712299Y-97264709D01*
X194719229Y-97262229D01*
X194726368Y-97260441D01*
X194733649Y-97259361D01*
X194741000Y-97259000D01*
X194891000Y-97259000D01*
X194898351Y-97259361D01*
X194898351Y-97259361D01*
G37*
D12*
X194816000Y-97684000D03*
D11*
G36*
X195398351Y-97259361D02*
G01*
X195405632Y-97260441D01*
X195412771Y-97262229D01*
X195419701Y-97264709D01*
X195426355Y-97267856D01*
X195432668Y-97271640D01*
X195438579Y-97276024D01*
X195444033Y-97280967D01*
X195448976Y-97286421D01*
X195453360Y-97292332D01*
X195457144Y-97298645D01*
X195460291Y-97305299D01*
X195462771Y-97312229D01*
X195464559Y-97319368D01*
X195465639Y-97326649D01*
X195466000Y-97334000D01*
X195466000Y-98034000D01*
X195465639Y-98041351D01*
X195464559Y-98048632D01*
X195462771Y-98055771D01*
X195460291Y-98062701D01*
X195457144Y-98069355D01*
X195453360Y-98075668D01*
X195448976Y-98081579D01*
X195444033Y-98087033D01*
X195438579Y-98091976D01*
X195432668Y-98096360D01*
X195426355Y-98100144D01*
X195419701Y-98103291D01*
X195412771Y-98105771D01*
X195405632Y-98107559D01*
X195398351Y-98108639D01*
X195391000Y-98109000D01*
X195241000Y-98109000D01*
X195233649Y-98108639D01*
X195226368Y-98107559D01*
X195219229Y-98105771D01*
X195212299Y-98103291D01*
X195205645Y-98100144D01*
X195199332Y-98096360D01*
X195193421Y-98091976D01*
X195187967Y-98087033D01*
X195183024Y-98081579D01*
X195178640Y-98075668D01*
X195174856Y-98069355D01*
X195171709Y-98062701D01*
X195169229Y-98055771D01*
X195167441Y-98048632D01*
X195166361Y-98041351D01*
X195166000Y-98034000D01*
X195166000Y-97334000D01*
X195166361Y-97326649D01*
X195167441Y-97319368D01*
X195169229Y-97312229D01*
X195171709Y-97305299D01*
X195174856Y-97298645D01*
X195178640Y-97292332D01*
X195183024Y-97286421D01*
X195187967Y-97280967D01*
X195193421Y-97276024D01*
X195199332Y-97271640D01*
X195205645Y-97267856D01*
X195212299Y-97264709D01*
X195219229Y-97262229D01*
X195226368Y-97260441D01*
X195233649Y-97259361D01*
X195241000Y-97259000D01*
X195391000Y-97259000D01*
X195398351Y-97259361D01*
X195398351Y-97259361D01*
G37*
D12*
X195316000Y-97684000D03*
D11*
G36*
X196373351Y-96834361D02*
G01*
X196380632Y-96835441D01*
X196387771Y-96837229D01*
X196394701Y-96839709D01*
X196401355Y-96842856D01*
X196407668Y-96846640D01*
X196413579Y-96851024D01*
X196419033Y-96855967D01*
X196423976Y-96861421D01*
X196428360Y-96867332D01*
X196432144Y-96873645D01*
X196435291Y-96880299D01*
X196437771Y-96887229D01*
X196439559Y-96894368D01*
X196440639Y-96901649D01*
X196441000Y-96909000D01*
X196441000Y-97059000D01*
X196440639Y-97066351D01*
X196439559Y-97073632D01*
X196437771Y-97080771D01*
X196435291Y-97087701D01*
X196432144Y-97094355D01*
X196428360Y-97100668D01*
X196423976Y-97106579D01*
X196419033Y-97112033D01*
X196413579Y-97116976D01*
X196407668Y-97121360D01*
X196401355Y-97125144D01*
X196394701Y-97128291D01*
X196387771Y-97130771D01*
X196380632Y-97132559D01*
X196373351Y-97133639D01*
X196366000Y-97134000D01*
X195666000Y-97134000D01*
X195658649Y-97133639D01*
X195651368Y-97132559D01*
X195644229Y-97130771D01*
X195637299Y-97128291D01*
X195630645Y-97125144D01*
X195624332Y-97121360D01*
X195618421Y-97116976D01*
X195612967Y-97112033D01*
X195608024Y-97106579D01*
X195603640Y-97100668D01*
X195599856Y-97094355D01*
X195596709Y-97087701D01*
X195594229Y-97080771D01*
X195592441Y-97073632D01*
X195591361Y-97066351D01*
X195591000Y-97059000D01*
X195591000Y-96909000D01*
X195591361Y-96901649D01*
X195592441Y-96894368D01*
X195594229Y-96887229D01*
X195596709Y-96880299D01*
X195599856Y-96873645D01*
X195603640Y-96867332D01*
X195608024Y-96861421D01*
X195612967Y-96855967D01*
X195618421Y-96851024D01*
X195624332Y-96846640D01*
X195630645Y-96842856D01*
X195637299Y-96839709D01*
X195644229Y-96837229D01*
X195651368Y-96835441D01*
X195658649Y-96834361D01*
X195666000Y-96834000D01*
X196366000Y-96834000D01*
X196373351Y-96834361D01*
X196373351Y-96834361D01*
G37*
D12*
X196016000Y-96984000D03*
D11*
G36*
X196373351Y-96334361D02*
G01*
X196380632Y-96335441D01*
X196387771Y-96337229D01*
X196394701Y-96339709D01*
X196401355Y-96342856D01*
X196407668Y-96346640D01*
X196413579Y-96351024D01*
X196419033Y-96355967D01*
X196423976Y-96361421D01*
X196428360Y-96367332D01*
X196432144Y-96373645D01*
X196435291Y-96380299D01*
X196437771Y-96387229D01*
X196439559Y-96394368D01*
X196440639Y-96401649D01*
X196441000Y-96409000D01*
X196441000Y-96559000D01*
X196440639Y-96566351D01*
X196439559Y-96573632D01*
X196437771Y-96580771D01*
X196435291Y-96587701D01*
X196432144Y-96594355D01*
X196428360Y-96600668D01*
X196423976Y-96606579D01*
X196419033Y-96612033D01*
X196413579Y-96616976D01*
X196407668Y-96621360D01*
X196401355Y-96625144D01*
X196394701Y-96628291D01*
X196387771Y-96630771D01*
X196380632Y-96632559D01*
X196373351Y-96633639D01*
X196366000Y-96634000D01*
X195666000Y-96634000D01*
X195658649Y-96633639D01*
X195651368Y-96632559D01*
X195644229Y-96630771D01*
X195637299Y-96628291D01*
X195630645Y-96625144D01*
X195624332Y-96621360D01*
X195618421Y-96616976D01*
X195612967Y-96612033D01*
X195608024Y-96606579D01*
X195603640Y-96600668D01*
X195599856Y-96594355D01*
X195596709Y-96587701D01*
X195594229Y-96580771D01*
X195592441Y-96573632D01*
X195591361Y-96566351D01*
X195591000Y-96559000D01*
X195591000Y-96409000D01*
X195591361Y-96401649D01*
X195592441Y-96394368D01*
X195594229Y-96387229D01*
X195596709Y-96380299D01*
X195599856Y-96373645D01*
X195603640Y-96367332D01*
X195608024Y-96361421D01*
X195612967Y-96355967D01*
X195618421Y-96351024D01*
X195624332Y-96346640D01*
X195630645Y-96342856D01*
X195637299Y-96339709D01*
X195644229Y-96337229D01*
X195651368Y-96335441D01*
X195658649Y-96334361D01*
X195666000Y-96334000D01*
X196366000Y-96334000D01*
X196373351Y-96334361D01*
X196373351Y-96334361D01*
G37*
D12*
X196016000Y-96484000D03*
D11*
G36*
X196373351Y-95834361D02*
G01*
X196380632Y-95835441D01*
X196387771Y-95837229D01*
X196394701Y-95839709D01*
X196401355Y-95842856D01*
X196407668Y-95846640D01*
X196413579Y-95851024D01*
X196419033Y-95855967D01*
X196423976Y-95861421D01*
X196428360Y-95867332D01*
X196432144Y-95873645D01*
X196435291Y-95880299D01*
X196437771Y-95887229D01*
X196439559Y-95894368D01*
X196440639Y-95901649D01*
X196441000Y-95909000D01*
X196441000Y-96059000D01*
X196440639Y-96066351D01*
X196439559Y-96073632D01*
X196437771Y-96080771D01*
X196435291Y-96087701D01*
X196432144Y-96094355D01*
X196428360Y-96100668D01*
X196423976Y-96106579D01*
X196419033Y-96112033D01*
X196413579Y-96116976D01*
X196407668Y-96121360D01*
X196401355Y-96125144D01*
X196394701Y-96128291D01*
X196387771Y-96130771D01*
X196380632Y-96132559D01*
X196373351Y-96133639D01*
X196366000Y-96134000D01*
X195666000Y-96134000D01*
X195658649Y-96133639D01*
X195651368Y-96132559D01*
X195644229Y-96130771D01*
X195637299Y-96128291D01*
X195630645Y-96125144D01*
X195624332Y-96121360D01*
X195618421Y-96116976D01*
X195612967Y-96112033D01*
X195608024Y-96106579D01*
X195603640Y-96100668D01*
X195599856Y-96094355D01*
X195596709Y-96087701D01*
X195594229Y-96080771D01*
X195592441Y-96073632D01*
X195591361Y-96066351D01*
X195591000Y-96059000D01*
X195591000Y-95909000D01*
X195591361Y-95901649D01*
X195592441Y-95894368D01*
X195594229Y-95887229D01*
X195596709Y-95880299D01*
X195599856Y-95873645D01*
X195603640Y-95867332D01*
X195608024Y-95861421D01*
X195612967Y-95855967D01*
X195618421Y-95851024D01*
X195624332Y-95846640D01*
X195630645Y-95842856D01*
X195637299Y-95839709D01*
X195644229Y-95837229D01*
X195651368Y-95835441D01*
X195658649Y-95834361D01*
X195666000Y-95834000D01*
X196366000Y-95834000D01*
X196373351Y-95834361D01*
X196373351Y-95834361D01*
G37*
D12*
X196016000Y-95984000D03*
D11*
G36*
X196373351Y-95334361D02*
G01*
X196380632Y-95335441D01*
X196387771Y-95337229D01*
X196394701Y-95339709D01*
X196401355Y-95342856D01*
X196407668Y-95346640D01*
X196413579Y-95351024D01*
X196419033Y-95355967D01*
X196423976Y-95361421D01*
X196428360Y-95367332D01*
X196432144Y-95373645D01*
X196435291Y-95380299D01*
X196437771Y-95387229D01*
X196439559Y-95394368D01*
X196440639Y-95401649D01*
X196441000Y-95409000D01*
X196441000Y-95559000D01*
X196440639Y-95566351D01*
X196439559Y-95573632D01*
X196437771Y-95580771D01*
X196435291Y-95587701D01*
X196432144Y-95594355D01*
X196428360Y-95600668D01*
X196423976Y-95606579D01*
X196419033Y-95612033D01*
X196413579Y-95616976D01*
X196407668Y-95621360D01*
X196401355Y-95625144D01*
X196394701Y-95628291D01*
X196387771Y-95630771D01*
X196380632Y-95632559D01*
X196373351Y-95633639D01*
X196366000Y-95634000D01*
X195666000Y-95634000D01*
X195658649Y-95633639D01*
X195651368Y-95632559D01*
X195644229Y-95630771D01*
X195637299Y-95628291D01*
X195630645Y-95625144D01*
X195624332Y-95621360D01*
X195618421Y-95616976D01*
X195612967Y-95612033D01*
X195608024Y-95606579D01*
X195603640Y-95600668D01*
X195599856Y-95594355D01*
X195596709Y-95587701D01*
X195594229Y-95580771D01*
X195592441Y-95573632D01*
X195591361Y-95566351D01*
X195591000Y-95559000D01*
X195591000Y-95409000D01*
X195591361Y-95401649D01*
X195592441Y-95394368D01*
X195594229Y-95387229D01*
X195596709Y-95380299D01*
X195599856Y-95373645D01*
X195603640Y-95367332D01*
X195608024Y-95361421D01*
X195612967Y-95355967D01*
X195618421Y-95351024D01*
X195624332Y-95346640D01*
X195630645Y-95342856D01*
X195637299Y-95339709D01*
X195644229Y-95337229D01*
X195651368Y-95335441D01*
X195658649Y-95334361D01*
X195666000Y-95334000D01*
X196366000Y-95334000D01*
X196373351Y-95334361D01*
X196373351Y-95334361D01*
G37*
D12*
X196016000Y-95484000D03*
D11*
G36*
X196373351Y-94834361D02*
G01*
X196380632Y-94835441D01*
X196387771Y-94837229D01*
X196394701Y-94839709D01*
X196401355Y-94842856D01*
X196407668Y-94846640D01*
X196413579Y-94851024D01*
X196419033Y-94855967D01*
X196423976Y-94861421D01*
X196428360Y-94867332D01*
X196432144Y-94873645D01*
X196435291Y-94880299D01*
X196437771Y-94887229D01*
X196439559Y-94894368D01*
X196440639Y-94901649D01*
X196441000Y-94909000D01*
X196441000Y-95059000D01*
X196440639Y-95066351D01*
X196439559Y-95073632D01*
X196437771Y-95080771D01*
X196435291Y-95087701D01*
X196432144Y-95094355D01*
X196428360Y-95100668D01*
X196423976Y-95106579D01*
X196419033Y-95112033D01*
X196413579Y-95116976D01*
X196407668Y-95121360D01*
X196401355Y-95125144D01*
X196394701Y-95128291D01*
X196387771Y-95130771D01*
X196380632Y-95132559D01*
X196373351Y-95133639D01*
X196366000Y-95134000D01*
X195666000Y-95134000D01*
X195658649Y-95133639D01*
X195651368Y-95132559D01*
X195644229Y-95130771D01*
X195637299Y-95128291D01*
X195630645Y-95125144D01*
X195624332Y-95121360D01*
X195618421Y-95116976D01*
X195612967Y-95112033D01*
X195608024Y-95106579D01*
X195603640Y-95100668D01*
X195599856Y-95094355D01*
X195596709Y-95087701D01*
X195594229Y-95080771D01*
X195592441Y-95073632D01*
X195591361Y-95066351D01*
X195591000Y-95059000D01*
X195591000Y-94909000D01*
X195591361Y-94901649D01*
X195592441Y-94894368D01*
X195594229Y-94887229D01*
X195596709Y-94880299D01*
X195599856Y-94873645D01*
X195603640Y-94867332D01*
X195608024Y-94861421D01*
X195612967Y-94855967D01*
X195618421Y-94851024D01*
X195624332Y-94846640D01*
X195630645Y-94842856D01*
X195637299Y-94839709D01*
X195644229Y-94837229D01*
X195651368Y-94835441D01*
X195658649Y-94834361D01*
X195666000Y-94834000D01*
X196366000Y-94834000D01*
X196373351Y-94834361D01*
X196373351Y-94834361D01*
G37*
D12*
X196016000Y-94984000D03*
D11*
G36*
X196373351Y-94334361D02*
G01*
X196380632Y-94335441D01*
X196387771Y-94337229D01*
X196394701Y-94339709D01*
X196401355Y-94342856D01*
X196407668Y-94346640D01*
X196413579Y-94351024D01*
X196419033Y-94355967D01*
X196423976Y-94361421D01*
X196428360Y-94367332D01*
X196432144Y-94373645D01*
X196435291Y-94380299D01*
X196437771Y-94387229D01*
X196439559Y-94394368D01*
X196440639Y-94401649D01*
X196441000Y-94409000D01*
X196441000Y-94559000D01*
X196440639Y-94566351D01*
X196439559Y-94573632D01*
X196437771Y-94580771D01*
X196435291Y-94587701D01*
X196432144Y-94594355D01*
X196428360Y-94600668D01*
X196423976Y-94606579D01*
X196419033Y-94612033D01*
X196413579Y-94616976D01*
X196407668Y-94621360D01*
X196401355Y-94625144D01*
X196394701Y-94628291D01*
X196387771Y-94630771D01*
X196380632Y-94632559D01*
X196373351Y-94633639D01*
X196366000Y-94634000D01*
X195666000Y-94634000D01*
X195658649Y-94633639D01*
X195651368Y-94632559D01*
X195644229Y-94630771D01*
X195637299Y-94628291D01*
X195630645Y-94625144D01*
X195624332Y-94621360D01*
X195618421Y-94616976D01*
X195612967Y-94612033D01*
X195608024Y-94606579D01*
X195603640Y-94600668D01*
X195599856Y-94594355D01*
X195596709Y-94587701D01*
X195594229Y-94580771D01*
X195592441Y-94573632D01*
X195591361Y-94566351D01*
X195591000Y-94559000D01*
X195591000Y-94409000D01*
X195591361Y-94401649D01*
X195592441Y-94394368D01*
X195594229Y-94387229D01*
X195596709Y-94380299D01*
X195599856Y-94373645D01*
X195603640Y-94367332D01*
X195608024Y-94361421D01*
X195612967Y-94355967D01*
X195618421Y-94351024D01*
X195624332Y-94346640D01*
X195630645Y-94342856D01*
X195637299Y-94339709D01*
X195644229Y-94337229D01*
X195651368Y-94335441D01*
X195658649Y-94334361D01*
X195666000Y-94334000D01*
X196366000Y-94334000D01*
X196373351Y-94334361D01*
X196373351Y-94334361D01*
G37*
D12*
X196016000Y-94484000D03*
D11*
G36*
X195398351Y-93359361D02*
G01*
X195405632Y-93360441D01*
X195412771Y-93362229D01*
X195419701Y-93364709D01*
X195426355Y-93367856D01*
X195432668Y-93371640D01*
X195438579Y-93376024D01*
X195444033Y-93380967D01*
X195448976Y-93386421D01*
X195453360Y-93392332D01*
X195457144Y-93398645D01*
X195460291Y-93405299D01*
X195462771Y-93412229D01*
X195464559Y-93419368D01*
X195465639Y-93426649D01*
X195466000Y-93434000D01*
X195466000Y-94134000D01*
X195465639Y-94141351D01*
X195464559Y-94148632D01*
X195462771Y-94155771D01*
X195460291Y-94162701D01*
X195457144Y-94169355D01*
X195453360Y-94175668D01*
X195448976Y-94181579D01*
X195444033Y-94187033D01*
X195438579Y-94191976D01*
X195432668Y-94196360D01*
X195426355Y-94200144D01*
X195419701Y-94203291D01*
X195412771Y-94205771D01*
X195405632Y-94207559D01*
X195398351Y-94208639D01*
X195391000Y-94209000D01*
X195241000Y-94209000D01*
X195233649Y-94208639D01*
X195226368Y-94207559D01*
X195219229Y-94205771D01*
X195212299Y-94203291D01*
X195205645Y-94200144D01*
X195199332Y-94196360D01*
X195193421Y-94191976D01*
X195187967Y-94187033D01*
X195183024Y-94181579D01*
X195178640Y-94175668D01*
X195174856Y-94169355D01*
X195171709Y-94162701D01*
X195169229Y-94155771D01*
X195167441Y-94148632D01*
X195166361Y-94141351D01*
X195166000Y-94134000D01*
X195166000Y-93434000D01*
X195166361Y-93426649D01*
X195167441Y-93419368D01*
X195169229Y-93412229D01*
X195171709Y-93405299D01*
X195174856Y-93398645D01*
X195178640Y-93392332D01*
X195183024Y-93386421D01*
X195187967Y-93380967D01*
X195193421Y-93376024D01*
X195199332Y-93371640D01*
X195205645Y-93367856D01*
X195212299Y-93364709D01*
X195219229Y-93362229D01*
X195226368Y-93360441D01*
X195233649Y-93359361D01*
X195241000Y-93359000D01*
X195391000Y-93359000D01*
X195398351Y-93359361D01*
X195398351Y-93359361D01*
G37*
D12*
X195316000Y-93784000D03*
D11*
G36*
X194898351Y-93359361D02*
G01*
X194905632Y-93360441D01*
X194912771Y-93362229D01*
X194919701Y-93364709D01*
X194926355Y-93367856D01*
X194932668Y-93371640D01*
X194938579Y-93376024D01*
X194944033Y-93380967D01*
X194948976Y-93386421D01*
X194953360Y-93392332D01*
X194957144Y-93398645D01*
X194960291Y-93405299D01*
X194962771Y-93412229D01*
X194964559Y-93419368D01*
X194965639Y-93426649D01*
X194966000Y-93434000D01*
X194966000Y-94134000D01*
X194965639Y-94141351D01*
X194964559Y-94148632D01*
X194962771Y-94155771D01*
X194960291Y-94162701D01*
X194957144Y-94169355D01*
X194953360Y-94175668D01*
X194948976Y-94181579D01*
X194944033Y-94187033D01*
X194938579Y-94191976D01*
X194932668Y-94196360D01*
X194926355Y-94200144D01*
X194919701Y-94203291D01*
X194912771Y-94205771D01*
X194905632Y-94207559D01*
X194898351Y-94208639D01*
X194891000Y-94209000D01*
X194741000Y-94209000D01*
X194733649Y-94208639D01*
X194726368Y-94207559D01*
X194719229Y-94205771D01*
X194712299Y-94203291D01*
X194705645Y-94200144D01*
X194699332Y-94196360D01*
X194693421Y-94191976D01*
X194687967Y-94187033D01*
X194683024Y-94181579D01*
X194678640Y-94175668D01*
X194674856Y-94169355D01*
X194671709Y-94162701D01*
X194669229Y-94155771D01*
X194667441Y-94148632D01*
X194666361Y-94141351D01*
X194666000Y-94134000D01*
X194666000Y-93434000D01*
X194666361Y-93426649D01*
X194667441Y-93419368D01*
X194669229Y-93412229D01*
X194671709Y-93405299D01*
X194674856Y-93398645D01*
X194678640Y-93392332D01*
X194683024Y-93386421D01*
X194687967Y-93380967D01*
X194693421Y-93376024D01*
X194699332Y-93371640D01*
X194705645Y-93367856D01*
X194712299Y-93364709D01*
X194719229Y-93362229D01*
X194726368Y-93360441D01*
X194733649Y-93359361D01*
X194741000Y-93359000D01*
X194891000Y-93359000D01*
X194898351Y-93359361D01*
X194898351Y-93359361D01*
G37*
D12*
X194816000Y-93784000D03*
D11*
G36*
X194398351Y-93359361D02*
G01*
X194405632Y-93360441D01*
X194412771Y-93362229D01*
X194419701Y-93364709D01*
X194426355Y-93367856D01*
X194432668Y-93371640D01*
X194438579Y-93376024D01*
X194444033Y-93380967D01*
X194448976Y-93386421D01*
X194453360Y-93392332D01*
X194457144Y-93398645D01*
X194460291Y-93405299D01*
X194462771Y-93412229D01*
X194464559Y-93419368D01*
X194465639Y-93426649D01*
X194466000Y-93434000D01*
X194466000Y-94134000D01*
X194465639Y-94141351D01*
X194464559Y-94148632D01*
X194462771Y-94155771D01*
X194460291Y-94162701D01*
X194457144Y-94169355D01*
X194453360Y-94175668D01*
X194448976Y-94181579D01*
X194444033Y-94187033D01*
X194438579Y-94191976D01*
X194432668Y-94196360D01*
X194426355Y-94200144D01*
X194419701Y-94203291D01*
X194412771Y-94205771D01*
X194405632Y-94207559D01*
X194398351Y-94208639D01*
X194391000Y-94209000D01*
X194241000Y-94209000D01*
X194233649Y-94208639D01*
X194226368Y-94207559D01*
X194219229Y-94205771D01*
X194212299Y-94203291D01*
X194205645Y-94200144D01*
X194199332Y-94196360D01*
X194193421Y-94191976D01*
X194187967Y-94187033D01*
X194183024Y-94181579D01*
X194178640Y-94175668D01*
X194174856Y-94169355D01*
X194171709Y-94162701D01*
X194169229Y-94155771D01*
X194167441Y-94148632D01*
X194166361Y-94141351D01*
X194166000Y-94134000D01*
X194166000Y-93434000D01*
X194166361Y-93426649D01*
X194167441Y-93419368D01*
X194169229Y-93412229D01*
X194171709Y-93405299D01*
X194174856Y-93398645D01*
X194178640Y-93392332D01*
X194183024Y-93386421D01*
X194187967Y-93380967D01*
X194193421Y-93376024D01*
X194199332Y-93371640D01*
X194205645Y-93367856D01*
X194212299Y-93364709D01*
X194219229Y-93362229D01*
X194226368Y-93360441D01*
X194233649Y-93359361D01*
X194241000Y-93359000D01*
X194391000Y-93359000D01*
X194398351Y-93359361D01*
X194398351Y-93359361D01*
G37*
D12*
X194316000Y-93784000D03*
D11*
G36*
X193898351Y-93359361D02*
G01*
X193905632Y-93360441D01*
X193912771Y-93362229D01*
X193919701Y-93364709D01*
X193926355Y-93367856D01*
X193932668Y-93371640D01*
X193938579Y-93376024D01*
X193944033Y-93380967D01*
X193948976Y-93386421D01*
X193953360Y-93392332D01*
X193957144Y-93398645D01*
X193960291Y-93405299D01*
X193962771Y-93412229D01*
X193964559Y-93419368D01*
X193965639Y-93426649D01*
X193966000Y-93434000D01*
X193966000Y-94134000D01*
X193965639Y-94141351D01*
X193964559Y-94148632D01*
X193962771Y-94155771D01*
X193960291Y-94162701D01*
X193957144Y-94169355D01*
X193953360Y-94175668D01*
X193948976Y-94181579D01*
X193944033Y-94187033D01*
X193938579Y-94191976D01*
X193932668Y-94196360D01*
X193926355Y-94200144D01*
X193919701Y-94203291D01*
X193912771Y-94205771D01*
X193905632Y-94207559D01*
X193898351Y-94208639D01*
X193891000Y-94209000D01*
X193741000Y-94209000D01*
X193733649Y-94208639D01*
X193726368Y-94207559D01*
X193719229Y-94205771D01*
X193712299Y-94203291D01*
X193705645Y-94200144D01*
X193699332Y-94196360D01*
X193693421Y-94191976D01*
X193687967Y-94187033D01*
X193683024Y-94181579D01*
X193678640Y-94175668D01*
X193674856Y-94169355D01*
X193671709Y-94162701D01*
X193669229Y-94155771D01*
X193667441Y-94148632D01*
X193666361Y-94141351D01*
X193666000Y-94134000D01*
X193666000Y-93434000D01*
X193666361Y-93426649D01*
X193667441Y-93419368D01*
X193669229Y-93412229D01*
X193671709Y-93405299D01*
X193674856Y-93398645D01*
X193678640Y-93392332D01*
X193683024Y-93386421D01*
X193687967Y-93380967D01*
X193693421Y-93376024D01*
X193699332Y-93371640D01*
X193705645Y-93367856D01*
X193712299Y-93364709D01*
X193719229Y-93362229D01*
X193726368Y-93360441D01*
X193733649Y-93359361D01*
X193741000Y-93359000D01*
X193891000Y-93359000D01*
X193898351Y-93359361D01*
X193898351Y-93359361D01*
G37*
D12*
X193816000Y-93784000D03*
D11*
G36*
X193398351Y-93359361D02*
G01*
X193405632Y-93360441D01*
X193412771Y-93362229D01*
X193419701Y-93364709D01*
X193426355Y-93367856D01*
X193432668Y-93371640D01*
X193438579Y-93376024D01*
X193444033Y-93380967D01*
X193448976Y-93386421D01*
X193453360Y-93392332D01*
X193457144Y-93398645D01*
X193460291Y-93405299D01*
X193462771Y-93412229D01*
X193464559Y-93419368D01*
X193465639Y-93426649D01*
X193466000Y-93434000D01*
X193466000Y-94134000D01*
X193465639Y-94141351D01*
X193464559Y-94148632D01*
X193462771Y-94155771D01*
X193460291Y-94162701D01*
X193457144Y-94169355D01*
X193453360Y-94175668D01*
X193448976Y-94181579D01*
X193444033Y-94187033D01*
X193438579Y-94191976D01*
X193432668Y-94196360D01*
X193426355Y-94200144D01*
X193419701Y-94203291D01*
X193412771Y-94205771D01*
X193405632Y-94207559D01*
X193398351Y-94208639D01*
X193391000Y-94209000D01*
X193241000Y-94209000D01*
X193233649Y-94208639D01*
X193226368Y-94207559D01*
X193219229Y-94205771D01*
X193212299Y-94203291D01*
X193205645Y-94200144D01*
X193199332Y-94196360D01*
X193193421Y-94191976D01*
X193187967Y-94187033D01*
X193183024Y-94181579D01*
X193178640Y-94175668D01*
X193174856Y-94169355D01*
X193171709Y-94162701D01*
X193169229Y-94155771D01*
X193167441Y-94148632D01*
X193166361Y-94141351D01*
X193166000Y-94134000D01*
X193166000Y-93434000D01*
X193166361Y-93426649D01*
X193167441Y-93419368D01*
X193169229Y-93412229D01*
X193171709Y-93405299D01*
X193174856Y-93398645D01*
X193178640Y-93392332D01*
X193183024Y-93386421D01*
X193187967Y-93380967D01*
X193193421Y-93376024D01*
X193199332Y-93371640D01*
X193205645Y-93367856D01*
X193212299Y-93364709D01*
X193219229Y-93362229D01*
X193226368Y-93360441D01*
X193233649Y-93359361D01*
X193241000Y-93359000D01*
X193391000Y-93359000D01*
X193398351Y-93359361D01*
X193398351Y-93359361D01*
G37*
D12*
X193316000Y-93784000D03*
D11*
G36*
X192898351Y-93359361D02*
G01*
X192905632Y-93360441D01*
X192912771Y-93362229D01*
X192919701Y-93364709D01*
X192926355Y-93367856D01*
X192932668Y-93371640D01*
X192938579Y-93376024D01*
X192944033Y-93380967D01*
X192948976Y-93386421D01*
X192953360Y-93392332D01*
X192957144Y-93398645D01*
X192960291Y-93405299D01*
X192962771Y-93412229D01*
X192964559Y-93419368D01*
X192965639Y-93426649D01*
X192966000Y-93434000D01*
X192966000Y-94134000D01*
X192965639Y-94141351D01*
X192964559Y-94148632D01*
X192962771Y-94155771D01*
X192960291Y-94162701D01*
X192957144Y-94169355D01*
X192953360Y-94175668D01*
X192948976Y-94181579D01*
X192944033Y-94187033D01*
X192938579Y-94191976D01*
X192932668Y-94196360D01*
X192926355Y-94200144D01*
X192919701Y-94203291D01*
X192912771Y-94205771D01*
X192905632Y-94207559D01*
X192898351Y-94208639D01*
X192891000Y-94209000D01*
X192741000Y-94209000D01*
X192733649Y-94208639D01*
X192726368Y-94207559D01*
X192719229Y-94205771D01*
X192712299Y-94203291D01*
X192705645Y-94200144D01*
X192699332Y-94196360D01*
X192693421Y-94191976D01*
X192687967Y-94187033D01*
X192683024Y-94181579D01*
X192678640Y-94175668D01*
X192674856Y-94169355D01*
X192671709Y-94162701D01*
X192669229Y-94155771D01*
X192667441Y-94148632D01*
X192666361Y-94141351D01*
X192666000Y-94134000D01*
X192666000Y-93434000D01*
X192666361Y-93426649D01*
X192667441Y-93419368D01*
X192669229Y-93412229D01*
X192671709Y-93405299D01*
X192674856Y-93398645D01*
X192678640Y-93392332D01*
X192683024Y-93386421D01*
X192687967Y-93380967D01*
X192693421Y-93376024D01*
X192699332Y-93371640D01*
X192705645Y-93367856D01*
X192712299Y-93364709D01*
X192719229Y-93362229D01*
X192726368Y-93360441D01*
X192733649Y-93359361D01*
X192741000Y-93359000D01*
X192891000Y-93359000D01*
X192898351Y-93359361D01*
X192898351Y-93359361D01*
G37*
D12*
X192816000Y-93784000D03*
D11*
G36*
X195197958Y-89318710D02*
G01*
X195212276Y-89320834D01*
X195226317Y-89324351D01*
X195239946Y-89329228D01*
X195253031Y-89335417D01*
X195265447Y-89342858D01*
X195277073Y-89351481D01*
X195287798Y-89361202D01*
X195297519Y-89371927D01*
X195306142Y-89383553D01*
X195313583Y-89395969D01*
X195319772Y-89409054D01*
X195324649Y-89422683D01*
X195328166Y-89436724D01*
X195330290Y-89451042D01*
X195331000Y-89465500D01*
X195331000Y-89810500D01*
X195330290Y-89824958D01*
X195328166Y-89839276D01*
X195324649Y-89853317D01*
X195319772Y-89866946D01*
X195313583Y-89880031D01*
X195306142Y-89892447D01*
X195297519Y-89904073D01*
X195287798Y-89914798D01*
X195277073Y-89924519D01*
X195265447Y-89933142D01*
X195253031Y-89940583D01*
X195239946Y-89946772D01*
X195226317Y-89951649D01*
X195212276Y-89955166D01*
X195197958Y-89957290D01*
X195183500Y-89958000D01*
X194888500Y-89958000D01*
X194874042Y-89957290D01*
X194859724Y-89955166D01*
X194845683Y-89951649D01*
X194832054Y-89946772D01*
X194818969Y-89940583D01*
X194806553Y-89933142D01*
X194794927Y-89924519D01*
X194784202Y-89914798D01*
X194774481Y-89904073D01*
X194765858Y-89892447D01*
X194758417Y-89880031D01*
X194752228Y-89866946D01*
X194747351Y-89853317D01*
X194743834Y-89839276D01*
X194741710Y-89824958D01*
X194741000Y-89810500D01*
X194741000Y-89465500D01*
X194741710Y-89451042D01*
X194743834Y-89436724D01*
X194747351Y-89422683D01*
X194752228Y-89409054D01*
X194758417Y-89395969D01*
X194765858Y-89383553D01*
X194774481Y-89371927D01*
X194784202Y-89361202D01*
X194794927Y-89351481D01*
X194806553Y-89342858D01*
X194818969Y-89335417D01*
X194832054Y-89329228D01*
X194845683Y-89324351D01*
X194859724Y-89320834D01*
X194874042Y-89318710D01*
X194888500Y-89318000D01*
X195183500Y-89318000D01*
X195197958Y-89318710D01*
X195197958Y-89318710D01*
G37*
D13*
X195036000Y-89638000D03*
D11*
G36*
X194227958Y-89318710D02*
G01*
X194242276Y-89320834D01*
X194256317Y-89324351D01*
X194269946Y-89329228D01*
X194283031Y-89335417D01*
X194295447Y-89342858D01*
X194307073Y-89351481D01*
X194317798Y-89361202D01*
X194327519Y-89371927D01*
X194336142Y-89383553D01*
X194343583Y-89395969D01*
X194349772Y-89409054D01*
X194354649Y-89422683D01*
X194358166Y-89436724D01*
X194360290Y-89451042D01*
X194361000Y-89465500D01*
X194361000Y-89810500D01*
X194360290Y-89824958D01*
X194358166Y-89839276D01*
X194354649Y-89853317D01*
X194349772Y-89866946D01*
X194343583Y-89880031D01*
X194336142Y-89892447D01*
X194327519Y-89904073D01*
X194317798Y-89914798D01*
X194307073Y-89924519D01*
X194295447Y-89933142D01*
X194283031Y-89940583D01*
X194269946Y-89946772D01*
X194256317Y-89951649D01*
X194242276Y-89955166D01*
X194227958Y-89957290D01*
X194213500Y-89958000D01*
X193918500Y-89958000D01*
X193904042Y-89957290D01*
X193889724Y-89955166D01*
X193875683Y-89951649D01*
X193862054Y-89946772D01*
X193848969Y-89940583D01*
X193836553Y-89933142D01*
X193824927Y-89924519D01*
X193814202Y-89914798D01*
X193804481Y-89904073D01*
X193795858Y-89892447D01*
X193788417Y-89880031D01*
X193782228Y-89866946D01*
X193777351Y-89853317D01*
X193773834Y-89839276D01*
X193771710Y-89824958D01*
X193771000Y-89810500D01*
X193771000Y-89465500D01*
X193771710Y-89451042D01*
X193773834Y-89436724D01*
X193777351Y-89422683D01*
X193782228Y-89409054D01*
X193788417Y-89395969D01*
X193795858Y-89383553D01*
X193804481Y-89371927D01*
X193814202Y-89361202D01*
X193824927Y-89351481D01*
X193836553Y-89342858D01*
X193848969Y-89335417D01*
X193862054Y-89329228D01*
X193875683Y-89324351D01*
X193889724Y-89320834D01*
X193904042Y-89318710D01*
X193918500Y-89318000D01*
X194213500Y-89318000D01*
X194227958Y-89318710D01*
X194227958Y-89318710D01*
G37*
D13*
X194066000Y-89638000D03*
D11*
G36*
X189205958Y-93148710D02*
G01*
X189220276Y-93150834D01*
X189234317Y-93154351D01*
X189247946Y-93159228D01*
X189261031Y-93165417D01*
X189273447Y-93172858D01*
X189285073Y-93181481D01*
X189295798Y-93191202D01*
X189305519Y-93201927D01*
X189314142Y-93213553D01*
X189321583Y-93225969D01*
X189327772Y-93239054D01*
X189332649Y-93252683D01*
X189336166Y-93266724D01*
X189338290Y-93281042D01*
X189339000Y-93295500D01*
X189339000Y-93590500D01*
X189338290Y-93604958D01*
X189336166Y-93619276D01*
X189332649Y-93633317D01*
X189327772Y-93646946D01*
X189321583Y-93660031D01*
X189314142Y-93672447D01*
X189305519Y-93684073D01*
X189295798Y-93694798D01*
X189285073Y-93704519D01*
X189273447Y-93713142D01*
X189261031Y-93720583D01*
X189247946Y-93726772D01*
X189234317Y-93731649D01*
X189220276Y-93735166D01*
X189205958Y-93737290D01*
X189191500Y-93738000D01*
X188846500Y-93738000D01*
X188832042Y-93737290D01*
X188817724Y-93735166D01*
X188803683Y-93731649D01*
X188790054Y-93726772D01*
X188776969Y-93720583D01*
X188764553Y-93713142D01*
X188752927Y-93704519D01*
X188742202Y-93694798D01*
X188732481Y-93684073D01*
X188723858Y-93672447D01*
X188716417Y-93660031D01*
X188710228Y-93646946D01*
X188705351Y-93633317D01*
X188701834Y-93619276D01*
X188699710Y-93604958D01*
X188699000Y-93590500D01*
X188699000Y-93295500D01*
X188699710Y-93281042D01*
X188701834Y-93266724D01*
X188705351Y-93252683D01*
X188710228Y-93239054D01*
X188716417Y-93225969D01*
X188723858Y-93213553D01*
X188732481Y-93201927D01*
X188742202Y-93191202D01*
X188752927Y-93181481D01*
X188764553Y-93172858D01*
X188776969Y-93165417D01*
X188790054Y-93159228D01*
X188803683Y-93154351D01*
X188817724Y-93150834D01*
X188832042Y-93148710D01*
X188846500Y-93148000D01*
X189191500Y-93148000D01*
X189205958Y-93148710D01*
X189205958Y-93148710D01*
G37*
D13*
X189019000Y-93443000D03*
D11*
G36*
X189205958Y-94118710D02*
G01*
X189220276Y-94120834D01*
X189234317Y-94124351D01*
X189247946Y-94129228D01*
X189261031Y-94135417D01*
X189273447Y-94142858D01*
X189285073Y-94151481D01*
X189295798Y-94161202D01*
X189305519Y-94171927D01*
X189314142Y-94183553D01*
X189321583Y-94195969D01*
X189327772Y-94209054D01*
X189332649Y-94222683D01*
X189336166Y-94236724D01*
X189338290Y-94251042D01*
X189339000Y-94265500D01*
X189339000Y-94560500D01*
X189338290Y-94574958D01*
X189336166Y-94589276D01*
X189332649Y-94603317D01*
X189327772Y-94616946D01*
X189321583Y-94630031D01*
X189314142Y-94642447D01*
X189305519Y-94654073D01*
X189295798Y-94664798D01*
X189285073Y-94674519D01*
X189273447Y-94683142D01*
X189261031Y-94690583D01*
X189247946Y-94696772D01*
X189234317Y-94701649D01*
X189220276Y-94705166D01*
X189205958Y-94707290D01*
X189191500Y-94708000D01*
X188846500Y-94708000D01*
X188832042Y-94707290D01*
X188817724Y-94705166D01*
X188803683Y-94701649D01*
X188790054Y-94696772D01*
X188776969Y-94690583D01*
X188764553Y-94683142D01*
X188752927Y-94674519D01*
X188742202Y-94664798D01*
X188732481Y-94654073D01*
X188723858Y-94642447D01*
X188716417Y-94630031D01*
X188710228Y-94616946D01*
X188705351Y-94603317D01*
X188701834Y-94589276D01*
X188699710Y-94574958D01*
X188699000Y-94560500D01*
X188699000Y-94265500D01*
X188699710Y-94251042D01*
X188701834Y-94236724D01*
X188705351Y-94222683D01*
X188710228Y-94209054D01*
X188716417Y-94195969D01*
X188723858Y-94183553D01*
X188732481Y-94171927D01*
X188742202Y-94161202D01*
X188752927Y-94151481D01*
X188764553Y-94142858D01*
X188776969Y-94135417D01*
X188790054Y-94129228D01*
X188803683Y-94124351D01*
X188817724Y-94120834D01*
X188832042Y-94118710D01*
X188846500Y-94118000D01*
X189191500Y-94118000D01*
X189205958Y-94118710D01*
X189205958Y-94118710D01*
G37*
D13*
X189019000Y-94413000D03*
D11*
G36*
X193211958Y-89318710D02*
G01*
X193226276Y-89320834D01*
X193240317Y-89324351D01*
X193253946Y-89329228D01*
X193267031Y-89335417D01*
X193279447Y-89342858D01*
X193291073Y-89351481D01*
X193301798Y-89361202D01*
X193311519Y-89371927D01*
X193320142Y-89383553D01*
X193327583Y-89395969D01*
X193333772Y-89409054D01*
X193338649Y-89422683D01*
X193342166Y-89436724D01*
X193344290Y-89451042D01*
X193345000Y-89465500D01*
X193345000Y-89810500D01*
X193344290Y-89824958D01*
X193342166Y-89839276D01*
X193338649Y-89853317D01*
X193333772Y-89866946D01*
X193327583Y-89880031D01*
X193320142Y-89892447D01*
X193311519Y-89904073D01*
X193301798Y-89914798D01*
X193291073Y-89924519D01*
X193279447Y-89933142D01*
X193267031Y-89940583D01*
X193253946Y-89946772D01*
X193240317Y-89951649D01*
X193226276Y-89955166D01*
X193211958Y-89957290D01*
X193197500Y-89958000D01*
X192902500Y-89958000D01*
X192888042Y-89957290D01*
X192873724Y-89955166D01*
X192859683Y-89951649D01*
X192846054Y-89946772D01*
X192832969Y-89940583D01*
X192820553Y-89933142D01*
X192808927Y-89924519D01*
X192798202Y-89914798D01*
X192788481Y-89904073D01*
X192779858Y-89892447D01*
X192772417Y-89880031D01*
X192766228Y-89866946D01*
X192761351Y-89853317D01*
X192757834Y-89839276D01*
X192755710Y-89824958D01*
X192755000Y-89810500D01*
X192755000Y-89465500D01*
X192755710Y-89451042D01*
X192757834Y-89436724D01*
X192761351Y-89422683D01*
X192766228Y-89409054D01*
X192772417Y-89395969D01*
X192779858Y-89383553D01*
X192788481Y-89371927D01*
X192798202Y-89361202D01*
X192808927Y-89351481D01*
X192820553Y-89342858D01*
X192832969Y-89335417D01*
X192846054Y-89329228D01*
X192859683Y-89324351D01*
X192873724Y-89320834D01*
X192888042Y-89318710D01*
X192902500Y-89318000D01*
X193197500Y-89318000D01*
X193211958Y-89318710D01*
X193211958Y-89318710D01*
G37*
D13*
X193050000Y-89638000D03*
D11*
G36*
X192241958Y-89318710D02*
G01*
X192256276Y-89320834D01*
X192270317Y-89324351D01*
X192283946Y-89329228D01*
X192297031Y-89335417D01*
X192309447Y-89342858D01*
X192321073Y-89351481D01*
X192331798Y-89361202D01*
X192341519Y-89371927D01*
X192350142Y-89383553D01*
X192357583Y-89395969D01*
X192363772Y-89409054D01*
X192368649Y-89422683D01*
X192372166Y-89436724D01*
X192374290Y-89451042D01*
X192375000Y-89465500D01*
X192375000Y-89810500D01*
X192374290Y-89824958D01*
X192372166Y-89839276D01*
X192368649Y-89853317D01*
X192363772Y-89866946D01*
X192357583Y-89880031D01*
X192350142Y-89892447D01*
X192341519Y-89904073D01*
X192331798Y-89914798D01*
X192321073Y-89924519D01*
X192309447Y-89933142D01*
X192297031Y-89940583D01*
X192283946Y-89946772D01*
X192270317Y-89951649D01*
X192256276Y-89955166D01*
X192241958Y-89957290D01*
X192227500Y-89958000D01*
X191932500Y-89958000D01*
X191918042Y-89957290D01*
X191903724Y-89955166D01*
X191889683Y-89951649D01*
X191876054Y-89946772D01*
X191862969Y-89940583D01*
X191850553Y-89933142D01*
X191838927Y-89924519D01*
X191828202Y-89914798D01*
X191818481Y-89904073D01*
X191809858Y-89892447D01*
X191802417Y-89880031D01*
X191796228Y-89866946D01*
X191791351Y-89853317D01*
X191787834Y-89839276D01*
X191785710Y-89824958D01*
X191785000Y-89810500D01*
X191785000Y-89465500D01*
X191785710Y-89451042D01*
X191787834Y-89436724D01*
X191791351Y-89422683D01*
X191796228Y-89409054D01*
X191802417Y-89395969D01*
X191809858Y-89383553D01*
X191818481Y-89371927D01*
X191828202Y-89361202D01*
X191838927Y-89351481D01*
X191850553Y-89342858D01*
X191862969Y-89335417D01*
X191876054Y-89329228D01*
X191889683Y-89324351D01*
X191903724Y-89320834D01*
X191918042Y-89318710D01*
X191932500Y-89318000D01*
X192227500Y-89318000D01*
X192241958Y-89318710D01*
X192241958Y-89318710D01*
G37*
D13*
X192080000Y-89638000D03*
D11*
G36*
X187772691Y-92401553D02*
G01*
X187793926Y-92404703D01*
X187814750Y-92409919D01*
X187834962Y-92417151D01*
X187854368Y-92426330D01*
X187872781Y-92437366D01*
X187890024Y-92450154D01*
X187905930Y-92464570D01*
X187920346Y-92480476D01*
X187933134Y-92497719D01*
X187944170Y-92516132D01*
X187953349Y-92535538D01*
X187960581Y-92555750D01*
X187965797Y-92576574D01*
X187968947Y-92597809D01*
X187970000Y-92619250D01*
X187970000Y-93056750D01*
X187968947Y-93078191D01*
X187965797Y-93099426D01*
X187960581Y-93120250D01*
X187953349Y-93140462D01*
X187944170Y-93159868D01*
X187933134Y-93178281D01*
X187920346Y-93195524D01*
X187905930Y-93211430D01*
X187890024Y-93225846D01*
X187872781Y-93238634D01*
X187854368Y-93249670D01*
X187834962Y-93258849D01*
X187814750Y-93266081D01*
X187793926Y-93271297D01*
X187772691Y-93274447D01*
X187751250Y-93275500D01*
X187238750Y-93275500D01*
X187217309Y-93274447D01*
X187196074Y-93271297D01*
X187175250Y-93266081D01*
X187155038Y-93258849D01*
X187135632Y-93249670D01*
X187117219Y-93238634D01*
X187099976Y-93225846D01*
X187084070Y-93211430D01*
X187069654Y-93195524D01*
X187056866Y-93178281D01*
X187045830Y-93159868D01*
X187036651Y-93140462D01*
X187029419Y-93120250D01*
X187024203Y-93099426D01*
X187021053Y-93078191D01*
X187020000Y-93056750D01*
X187020000Y-92619250D01*
X187021053Y-92597809D01*
X187024203Y-92576574D01*
X187029419Y-92555750D01*
X187036651Y-92535538D01*
X187045830Y-92516132D01*
X187056866Y-92497719D01*
X187069654Y-92480476D01*
X187084070Y-92464570D01*
X187099976Y-92450154D01*
X187117219Y-92437366D01*
X187135632Y-92426330D01*
X187155038Y-92417151D01*
X187175250Y-92409919D01*
X187196074Y-92404703D01*
X187217309Y-92401553D01*
X187238750Y-92400500D01*
X187751250Y-92400500D01*
X187772691Y-92401553D01*
X187772691Y-92401553D01*
G37*
D14*
X187495000Y-92838000D03*
D11*
G36*
X187772691Y-93976553D02*
G01*
X187793926Y-93979703D01*
X187814750Y-93984919D01*
X187834962Y-93992151D01*
X187854368Y-94001330D01*
X187872781Y-94012366D01*
X187890024Y-94025154D01*
X187905930Y-94039570D01*
X187920346Y-94055476D01*
X187933134Y-94072719D01*
X187944170Y-94091132D01*
X187953349Y-94110538D01*
X187960581Y-94130750D01*
X187965797Y-94151574D01*
X187968947Y-94172809D01*
X187970000Y-94194250D01*
X187970000Y-94631750D01*
X187968947Y-94653191D01*
X187965797Y-94674426D01*
X187960581Y-94695250D01*
X187953349Y-94715462D01*
X187944170Y-94734868D01*
X187933134Y-94753281D01*
X187920346Y-94770524D01*
X187905930Y-94786430D01*
X187890024Y-94800846D01*
X187872781Y-94813634D01*
X187854368Y-94824670D01*
X187834962Y-94833849D01*
X187814750Y-94841081D01*
X187793926Y-94846297D01*
X187772691Y-94849447D01*
X187751250Y-94850500D01*
X187238750Y-94850500D01*
X187217309Y-94849447D01*
X187196074Y-94846297D01*
X187175250Y-94841081D01*
X187155038Y-94833849D01*
X187135632Y-94824670D01*
X187117219Y-94813634D01*
X187099976Y-94800846D01*
X187084070Y-94786430D01*
X187069654Y-94770524D01*
X187056866Y-94753281D01*
X187045830Y-94734868D01*
X187036651Y-94715462D01*
X187029419Y-94695250D01*
X187024203Y-94674426D01*
X187021053Y-94653191D01*
X187020000Y-94631750D01*
X187020000Y-94194250D01*
X187021053Y-94172809D01*
X187024203Y-94151574D01*
X187029419Y-94130750D01*
X187036651Y-94110538D01*
X187045830Y-94091132D01*
X187056866Y-94072719D01*
X187069654Y-94055476D01*
X187084070Y-94039570D01*
X187099976Y-94025154D01*
X187117219Y-94012366D01*
X187135632Y-94001330D01*
X187155038Y-93992151D01*
X187175250Y-93984919D01*
X187196074Y-93979703D01*
X187217309Y-93976553D01*
X187238750Y-93975500D01*
X187751250Y-93975500D01*
X187772691Y-93976553D01*
X187772691Y-93976553D01*
G37*
D14*
X187495000Y-94413000D03*
D11*
G36*
X195296691Y-91450053D02*
G01*
X195317926Y-91453203D01*
X195338750Y-91458419D01*
X195358962Y-91465651D01*
X195378368Y-91474830D01*
X195396781Y-91485866D01*
X195414024Y-91498654D01*
X195429930Y-91513070D01*
X195444346Y-91528976D01*
X195457134Y-91546219D01*
X195468170Y-91564632D01*
X195477349Y-91584038D01*
X195484581Y-91604250D01*
X195489797Y-91625074D01*
X195492947Y-91646309D01*
X195494000Y-91667750D01*
X195494000Y-92180250D01*
X195492947Y-92201691D01*
X195489797Y-92222926D01*
X195484581Y-92243750D01*
X195477349Y-92263962D01*
X195468170Y-92283368D01*
X195457134Y-92301781D01*
X195444346Y-92319024D01*
X195429930Y-92334930D01*
X195414024Y-92349346D01*
X195396781Y-92362134D01*
X195378368Y-92373170D01*
X195358962Y-92382349D01*
X195338750Y-92389581D01*
X195317926Y-92394797D01*
X195296691Y-92397947D01*
X195275250Y-92399000D01*
X194837750Y-92399000D01*
X194816309Y-92397947D01*
X194795074Y-92394797D01*
X194774250Y-92389581D01*
X194754038Y-92382349D01*
X194734632Y-92373170D01*
X194716219Y-92362134D01*
X194698976Y-92349346D01*
X194683070Y-92334930D01*
X194668654Y-92319024D01*
X194655866Y-92301781D01*
X194644830Y-92283368D01*
X194635651Y-92263962D01*
X194628419Y-92243750D01*
X194623203Y-92222926D01*
X194620053Y-92201691D01*
X194619000Y-92180250D01*
X194619000Y-91667750D01*
X194620053Y-91646309D01*
X194623203Y-91625074D01*
X194628419Y-91604250D01*
X194635651Y-91584038D01*
X194644830Y-91564632D01*
X194655866Y-91546219D01*
X194668654Y-91528976D01*
X194683070Y-91513070D01*
X194698976Y-91498654D01*
X194716219Y-91485866D01*
X194734632Y-91474830D01*
X194754038Y-91465651D01*
X194774250Y-91458419D01*
X194795074Y-91453203D01*
X194816309Y-91450053D01*
X194837750Y-91449000D01*
X195275250Y-91449000D01*
X195296691Y-91450053D01*
X195296691Y-91450053D01*
G37*
D14*
X195056500Y-91924000D03*
D11*
G36*
X196871691Y-91450053D02*
G01*
X196892926Y-91453203D01*
X196913750Y-91458419D01*
X196933962Y-91465651D01*
X196953368Y-91474830D01*
X196971781Y-91485866D01*
X196989024Y-91498654D01*
X197004930Y-91513070D01*
X197019346Y-91528976D01*
X197032134Y-91546219D01*
X197043170Y-91564632D01*
X197052349Y-91584038D01*
X197059581Y-91604250D01*
X197064797Y-91625074D01*
X197067947Y-91646309D01*
X197069000Y-91667750D01*
X197069000Y-92180250D01*
X197067947Y-92201691D01*
X197064797Y-92222926D01*
X197059581Y-92243750D01*
X197052349Y-92263962D01*
X197043170Y-92283368D01*
X197032134Y-92301781D01*
X197019346Y-92319024D01*
X197004930Y-92334930D01*
X196989024Y-92349346D01*
X196971781Y-92362134D01*
X196953368Y-92373170D01*
X196933962Y-92382349D01*
X196913750Y-92389581D01*
X196892926Y-92394797D01*
X196871691Y-92397947D01*
X196850250Y-92399000D01*
X196412750Y-92399000D01*
X196391309Y-92397947D01*
X196370074Y-92394797D01*
X196349250Y-92389581D01*
X196329038Y-92382349D01*
X196309632Y-92373170D01*
X196291219Y-92362134D01*
X196273976Y-92349346D01*
X196258070Y-92334930D01*
X196243654Y-92319024D01*
X196230866Y-92301781D01*
X196219830Y-92283368D01*
X196210651Y-92263962D01*
X196203419Y-92243750D01*
X196198203Y-92222926D01*
X196195053Y-92201691D01*
X196194000Y-92180250D01*
X196194000Y-91667750D01*
X196195053Y-91646309D01*
X196198203Y-91625074D01*
X196203419Y-91604250D01*
X196210651Y-91584038D01*
X196219830Y-91564632D01*
X196230866Y-91546219D01*
X196243654Y-91528976D01*
X196258070Y-91513070D01*
X196273976Y-91498654D01*
X196291219Y-91485866D01*
X196309632Y-91474830D01*
X196329038Y-91465651D01*
X196349250Y-91458419D01*
X196370074Y-91453203D01*
X196391309Y-91450053D01*
X196412750Y-91449000D01*
X196850250Y-91449000D01*
X196871691Y-91450053D01*
X196871691Y-91450053D01*
G37*
D14*
X196631500Y-91924000D03*
D11*
G36*
X195550691Y-99578053D02*
G01*
X195571926Y-99581203D01*
X195592750Y-99586419D01*
X195612962Y-99593651D01*
X195632368Y-99602830D01*
X195650781Y-99613866D01*
X195668024Y-99626654D01*
X195683930Y-99641070D01*
X195698346Y-99656976D01*
X195711134Y-99674219D01*
X195722170Y-99692632D01*
X195731349Y-99712038D01*
X195738581Y-99732250D01*
X195743797Y-99753074D01*
X195746947Y-99774309D01*
X195748000Y-99795750D01*
X195748000Y-100308250D01*
X195746947Y-100329691D01*
X195743797Y-100350926D01*
X195738581Y-100371750D01*
X195731349Y-100391962D01*
X195722170Y-100411368D01*
X195711134Y-100429781D01*
X195698346Y-100447024D01*
X195683930Y-100462930D01*
X195668024Y-100477346D01*
X195650781Y-100490134D01*
X195632368Y-100501170D01*
X195612962Y-100510349D01*
X195592750Y-100517581D01*
X195571926Y-100522797D01*
X195550691Y-100525947D01*
X195529250Y-100527000D01*
X195091750Y-100527000D01*
X195070309Y-100525947D01*
X195049074Y-100522797D01*
X195028250Y-100517581D01*
X195008038Y-100510349D01*
X194988632Y-100501170D01*
X194970219Y-100490134D01*
X194952976Y-100477346D01*
X194937070Y-100462930D01*
X194922654Y-100447024D01*
X194909866Y-100429781D01*
X194898830Y-100411368D01*
X194889651Y-100391962D01*
X194882419Y-100371750D01*
X194877203Y-100350926D01*
X194874053Y-100329691D01*
X194873000Y-100308250D01*
X194873000Y-99795750D01*
X194874053Y-99774309D01*
X194877203Y-99753074D01*
X194882419Y-99732250D01*
X194889651Y-99712038D01*
X194898830Y-99692632D01*
X194909866Y-99674219D01*
X194922654Y-99656976D01*
X194937070Y-99641070D01*
X194952976Y-99626654D01*
X194970219Y-99613866D01*
X194988632Y-99602830D01*
X195008038Y-99593651D01*
X195028250Y-99586419D01*
X195049074Y-99581203D01*
X195070309Y-99578053D01*
X195091750Y-99577000D01*
X195529250Y-99577000D01*
X195550691Y-99578053D01*
X195550691Y-99578053D01*
G37*
D14*
X195310500Y-100052000D03*
D11*
G36*
X197125691Y-99578053D02*
G01*
X197146926Y-99581203D01*
X197167750Y-99586419D01*
X197187962Y-99593651D01*
X197207368Y-99602830D01*
X197225781Y-99613866D01*
X197243024Y-99626654D01*
X197258930Y-99641070D01*
X197273346Y-99656976D01*
X197286134Y-99674219D01*
X197297170Y-99692632D01*
X197306349Y-99712038D01*
X197313581Y-99732250D01*
X197318797Y-99753074D01*
X197321947Y-99774309D01*
X197323000Y-99795750D01*
X197323000Y-100308250D01*
X197321947Y-100329691D01*
X197318797Y-100350926D01*
X197313581Y-100371750D01*
X197306349Y-100391962D01*
X197297170Y-100411368D01*
X197286134Y-100429781D01*
X197273346Y-100447024D01*
X197258930Y-100462930D01*
X197243024Y-100477346D01*
X197225781Y-100490134D01*
X197207368Y-100501170D01*
X197187962Y-100510349D01*
X197167750Y-100517581D01*
X197146926Y-100522797D01*
X197125691Y-100525947D01*
X197104250Y-100527000D01*
X196666750Y-100527000D01*
X196645309Y-100525947D01*
X196624074Y-100522797D01*
X196603250Y-100517581D01*
X196583038Y-100510349D01*
X196563632Y-100501170D01*
X196545219Y-100490134D01*
X196527976Y-100477346D01*
X196512070Y-100462930D01*
X196497654Y-100447024D01*
X196484866Y-100429781D01*
X196473830Y-100411368D01*
X196464651Y-100391962D01*
X196457419Y-100371750D01*
X196452203Y-100350926D01*
X196449053Y-100329691D01*
X196448000Y-100308250D01*
X196448000Y-99795750D01*
X196449053Y-99774309D01*
X196452203Y-99753074D01*
X196457419Y-99732250D01*
X196464651Y-99712038D01*
X196473830Y-99692632D01*
X196484866Y-99674219D01*
X196497654Y-99656976D01*
X196512070Y-99641070D01*
X196527976Y-99626654D01*
X196545219Y-99613866D01*
X196563632Y-99602830D01*
X196583038Y-99593651D01*
X196603250Y-99586419D01*
X196624074Y-99581203D01*
X196645309Y-99578053D01*
X196666750Y-99577000D01*
X197104250Y-99577000D01*
X197125691Y-99578053D01*
X197125691Y-99578053D01*
G37*
D14*
X196885500Y-100052000D03*
D11*
G36*
X198661691Y-96351053D02*
G01*
X198682926Y-96354203D01*
X198703750Y-96359419D01*
X198723962Y-96366651D01*
X198743368Y-96375830D01*
X198761781Y-96386866D01*
X198779024Y-96399654D01*
X198794930Y-96414070D01*
X198809346Y-96429976D01*
X198822134Y-96447219D01*
X198833170Y-96465632D01*
X198842349Y-96485038D01*
X198849581Y-96505250D01*
X198854797Y-96526074D01*
X198857947Y-96547309D01*
X198859000Y-96568750D01*
X198859000Y-97006250D01*
X198857947Y-97027691D01*
X198854797Y-97048926D01*
X198849581Y-97069750D01*
X198842349Y-97089962D01*
X198833170Y-97109368D01*
X198822134Y-97127781D01*
X198809346Y-97145024D01*
X198794930Y-97160930D01*
X198779024Y-97175346D01*
X198761781Y-97188134D01*
X198743368Y-97199170D01*
X198723962Y-97208349D01*
X198703750Y-97215581D01*
X198682926Y-97220797D01*
X198661691Y-97223947D01*
X198640250Y-97225000D01*
X198127750Y-97225000D01*
X198106309Y-97223947D01*
X198085074Y-97220797D01*
X198064250Y-97215581D01*
X198044038Y-97208349D01*
X198024632Y-97199170D01*
X198006219Y-97188134D01*
X197988976Y-97175346D01*
X197973070Y-97160930D01*
X197958654Y-97145024D01*
X197945866Y-97127781D01*
X197934830Y-97109368D01*
X197925651Y-97089962D01*
X197918419Y-97069750D01*
X197913203Y-97048926D01*
X197910053Y-97027691D01*
X197909000Y-97006250D01*
X197909000Y-96568750D01*
X197910053Y-96547309D01*
X197913203Y-96526074D01*
X197918419Y-96505250D01*
X197925651Y-96485038D01*
X197934830Y-96465632D01*
X197945866Y-96447219D01*
X197958654Y-96429976D01*
X197973070Y-96414070D01*
X197988976Y-96399654D01*
X198006219Y-96386866D01*
X198024632Y-96375830D01*
X198044038Y-96366651D01*
X198064250Y-96359419D01*
X198085074Y-96354203D01*
X198106309Y-96351053D01*
X198127750Y-96350000D01*
X198640250Y-96350000D01*
X198661691Y-96351053D01*
X198661691Y-96351053D01*
G37*
D14*
X198384000Y-96787500D03*
D11*
G36*
X198661691Y-94776053D02*
G01*
X198682926Y-94779203D01*
X198703750Y-94784419D01*
X198723962Y-94791651D01*
X198743368Y-94800830D01*
X198761781Y-94811866D01*
X198779024Y-94824654D01*
X198794930Y-94839070D01*
X198809346Y-94854976D01*
X198822134Y-94872219D01*
X198833170Y-94890632D01*
X198842349Y-94910038D01*
X198849581Y-94930250D01*
X198854797Y-94951074D01*
X198857947Y-94972309D01*
X198859000Y-94993750D01*
X198859000Y-95431250D01*
X198857947Y-95452691D01*
X198854797Y-95473926D01*
X198849581Y-95494750D01*
X198842349Y-95514962D01*
X198833170Y-95534368D01*
X198822134Y-95552781D01*
X198809346Y-95570024D01*
X198794930Y-95585930D01*
X198779024Y-95600346D01*
X198761781Y-95613134D01*
X198743368Y-95624170D01*
X198723962Y-95633349D01*
X198703750Y-95640581D01*
X198682926Y-95645797D01*
X198661691Y-95648947D01*
X198640250Y-95650000D01*
X198127750Y-95650000D01*
X198106309Y-95648947D01*
X198085074Y-95645797D01*
X198064250Y-95640581D01*
X198044038Y-95633349D01*
X198024632Y-95624170D01*
X198006219Y-95613134D01*
X197988976Y-95600346D01*
X197973070Y-95585930D01*
X197958654Y-95570024D01*
X197945866Y-95552781D01*
X197934830Y-95534368D01*
X197925651Y-95514962D01*
X197918419Y-95494750D01*
X197913203Y-95473926D01*
X197910053Y-95452691D01*
X197909000Y-95431250D01*
X197909000Y-94993750D01*
X197910053Y-94972309D01*
X197913203Y-94951074D01*
X197918419Y-94930250D01*
X197925651Y-94910038D01*
X197934830Y-94890632D01*
X197945866Y-94872219D01*
X197958654Y-94854976D01*
X197973070Y-94839070D01*
X197988976Y-94824654D01*
X198006219Y-94811866D01*
X198024632Y-94800830D01*
X198044038Y-94791651D01*
X198064250Y-94784419D01*
X198085074Y-94779203D01*
X198106309Y-94776053D01*
X198127750Y-94775000D01*
X198640250Y-94775000D01*
X198661691Y-94776053D01*
X198661691Y-94776053D01*
G37*
D14*
X198384000Y-95212500D03*
D11*
G36*
X192452691Y-99578053D02*
G01*
X192473926Y-99581203D01*
X192494750Y-99586419D01*
X192514962Y-99593651D01*
X192534368Y-99602830D01*
X192552781Y-99613866D01*
X192570024Y-99626654D01*
X192585930Y-99641070D01*
X192600346Y-99656976D01*
X192613134Y-99674219D01*
X192624170Y-99692632D01*
X192633349Y-99712038D01*
X192640581Y-99732250D01*
X192645797Y-99753074D01*
X192648947Y-99774309D01*
X192650000Y-99795750D01*
X192650000Y-100308250D01*
X192648947Y-100329691D01*
X192645797Y-100350926D01*
X192640581Y-100371750D01*
X192633349Y-100391962D01*
X192624170Y-100411368D01*
X192613134Y-100429781D01*
X192600346Y-100447024D01*
X192585930Y-100462930D01*
X192570024Y-100477346D01*
X192552781Y-100490134D01*
X192534368Y-100501170D01*
X192514962Y-100510349D01*
X192494750Y-100517581D01*
X192473926Y-100522797D01*
X192452691Y-100525947D01*
X192431250Y-100527000D01*
X191993750Y-100527000D01*
X191972309Y-100525947D01*
X191951074Y-100522797D01*
X191930250Y-100517581D01*
X191910038Y-100510349D01*
X191890632Y-100501170D01*
X191872219Y-100490134D01*
X191854976Y-100477346D01*
X191839070Y-100462930D01*
X191824654Y-100447024D01*
X191811866Y-100429781D01*
X191800830Y-100411368D01*
X191791651Y-100391962D01*
X191784419Y-100371750D01*
X191779203Y-100350926D01*
X191776053Y-100329691D01*
X191775000Y-100308250D01*
X191775000Y-99795750D01*
X191776053Y-99774309D01*
X191779203Y-99753074D01*
X191784419Y-99732250D01*
X191791651Y-99712038D01*
X191800830Y-99692632D01*
X191811866Y-99674219D01*
X191824654Y-99656976D01*
X191839070Y-99641070D01*
X191854976Y-99626654D01*
X191872219Y-99613866D01*
X191890632Y-99602830D01*
X191910038Y-99593651D01*
X191930250Y-99586419D01*
X191951074Y-99581203D01*
X191972309Y-99578053D01*
X191993750Y-99577000D01*
X192431250Y-99577000D01*
X192452691Y-99578053D01*
X192452691Y-99578053D01*
G37*
D14*
X192212500Y-100052000D03*
D11*
G36*
X194027691Y-99578053D02*
G01*
X194048926Y-99581203D01*
X194069750Y-99586419D01*
X194089962Y-99593651D01*
X194109368Y-99602830D01*
X194127781Y-99613866D01*
X194145024Y-99626654D01*
X194160930Y-99641070D01*
X194175346Y-99656976D01*
X194188134Y-99674219D01*
X194199170Y-99692632D01*
X194208349Y-99712038D01*
X194215581Y-99732250D01*
X194220797Y-99753074D01*
X194223947Y-99774309D01*
X194225000Y-99795750D01*
X194225000Y-100308250D01*
X194223947Y-100329691D01*
X194220797Y-100350926D01*
X194215581Y-100371750D01*
X194208349Y-100391962D01*
X194199170Y-100411368D01*
X194188134Y-100429781D01*
X194175346Y-100447024D01*
X194160930Y-100462930D01*
X194145024Y-100477346D01*
X194127781Y-100490134D01*
X194109368Y-100501170D01*
X194089962Y-100510349D01*
X194069750Y-100517581D01*
X194048926Y-100522797D01*
X194027691Y-100525947D01*
X194006250Y-100527000D01*
X193568750Y-100527000D01*
X193547309Y-100525947D01*
X193526074Y-100522797D01*
X193505250Y-100517581D01*
X193485038Y-100510349D01*
X193465632Y-100501170D01*
X193447219Y-100490134D01*
X193429976Y-100477346D01*
X193414070Y-100462930D01*
X193399654Y-100447024D01*
X193386866Y-100429781D01*
X193375830Y-100411368D01*
X193366651Y-100391962D01*
X193359419Y-100371750D01*
X193354203Y-100350926D01*
X193351053Y-100329691D01*
X193350000Y-100308250D01*
X193350000Y-99795750D01*
X193351053Y-99774309D01*
X193354203Y-99753074D01*
X193359419Y-99732250D01*
X193366651Y-99712038D01*
X193375830Y-99692632D01*
X193386866Y-99674219D01*
X193399654Y-99656976D01*
X193414070Y-99641070D01*
X193429976Y-99626654D01*
X193447219Y-99613866D01*
X193465632Y-99602830D01*
X193485038Y-99593651D01*
X193505250Y-99586419D01*
X193526074Y-99581203D01*
X193547309Y-99578053D01*
X193568750Y-99577000D01*
X194006250Y-99577000D01*
X194027691Y-99578053D01*
X194027691Y-99578053D01*
G37*
D14*
X193787500Y-100052000D03*
D15*
X177950000Y-105500000D03*
X174650000Y-105500000D03*
D16*
X186337800Y-101375400D03*
X181737800Y-101375400D03*
X184037800Y-101375400D03*
D17*
X184037800Y-107675400D03*
D11*
G36*
X173936958Y-85290710D02*
G01*
X173951276Y-85292834D01*
X173965317Y-85296351D01*
X173978946Y-85301228D01*
X173992031Y-85307417D01*
X174004447Y-85314858D01*
X174016073Y-85323481D01*
X174026798Y-85333202D01*
X174036519Y-85343927D01*
X174045142Y-85355553D01*
X174052583Y-85367969D01*
X174058772Y-85381054D01*
X174063649Y-85394683D01*
X174067166Y-85408724D01*
X174069290Y-85423042D01*
X174070000Y-85437500D01*
X174070000Y-85732500D01*
X174069290Y-85746958D01*
X174067166Y-85761276D01*
X174063649Y-85775317D01*
X174058772Y-85788946D01*
X174052583Y-85802031D01*
X174045142Y-85814447D01*
X174036519Y-85826073D01*
X174026798Y-85836798D01*
X174016073Y-85846519D01*
X174004447Y-85855142D01*
X173992031Y-85862583D01*
X173978946Y-85868772D01*
X173965317Y-85873649D01*
X173951276Y-85877166D01*
X173936958Y-85879290D01*
X173922500Y-85880000D01*
X173577500Y-85880000D01*
X173563042Y-85879290D01*
X173548724Y-85877166D01*
X173534683Y-85873649D01*
X173521054Y-85868772D01*
X173507969Y-85862583D01*
X173495553Y-85855142D01*
X173483927Y-85846519D01*
X173473202Y-85836798D01*
X173463481Y-85826073D01*
X173454858Y-85814447D01*
X173447417Y-85802031D01*
X173441228Y-85788946D01*
X173436351Y-85775317D01*
X173432834Y-85761276D01*
X173430710Y-85746958D01*
X173430000Y-85732500D01*
X173430000Y-85437500D01*
X173430710Y-85423042D01*
X173432834Y-85408724D01*
X173436351Y-85394683D01*
X173441228Y-85381054D01*
X173447417Y-85367969D01*
X173454858Y-85355553D01*
X173463481Y-85343927D01*
X173473202Y-85333202D01*
X173483927Y-85323481D01*
X173495553Y-85314858D01*
X173507969Y-85307417D01*
X173521054Y-85301228D01*
X173534683Y-85296351D01*
X173548724Y-85292834D01*
X173563042Y-85290710D01*
X173577500Y-85290000D01*
X173922500Y-85290000D01*
X173936958Y-85290710D01*
X173936958Y-85290710D01*
G37*
D13*
X173750000Y-85585000D03*
D11*
G36*
X173936958Y-84320710D02*
G01*
X173951276Y-84322834D01*
X173965317Y-84326351D01*
X173978946Y-84331228D01*
X173992031Y-84337417D01*
X174004447Y-84344858D01*
X174016073Y-84353481D01*
X174026798Y-84363202D01*
X174036519Y-84373927D01*
X174045142Y-84385553D01*
X174052583Y-84397969D01*
X174058772Y-84411054D01*
X174063649Y-84424683D01*
X174067166Y-84438724D01*
X174069290Y-84453042D01*
X174070000Y-84467500D01*
X174070000Y-84762500D01*
X174069290Y-84776958D01*
X174067166Y-84791276D01*
X174063649Y-84805317D01*
X174058772Y-84818946D01*
X174052583Y-84832031D01*
X174045142Y-84844447D01*
X174036519Y-84856073D01*
X174026798Y-84866798D01*
X174016073Y-84876519D01*
X174004447Y-84885142D01*
X173992031Y-84892583D01*
X173978946Y-84898772D01*
X173965317Y-84903649D01*
X173951276Y-84907166D01*
X173936958Y-84909290D01*
X173922500Y-84910000D01*
X173577500Y-84910000D01*
X173563042Y-84909290D01*
X173548724Y-84907166D01*
X173534683Y-84903649D01*
X173521054Y-84898772D01*
X173507969Y-84892583D01*
X173495553Y-84885142D01*
X173483927Y-84876519D01*
X173473202Y-84866798D01*
X173463481Y-84856073D01*
X173454858Y-84844447D01*
X173447417Y-84832031D01*
X173441228Y-84818946D01*
X173436351Y-84805317D01*
X173432834Y-84791276D01*
X173430710Y-84776958D01*
X173430000Y-84762500D01*
X173430000Y-84467500D01*
X173430710Y-84453042D01*
X173432834Y-84438724D01*
X173436351Y-84424683D01*
X173441228Y-84411054D01*
X173447417Y-84397969D01*
X173454858Y-84385553D01*
X173463481Y-84373927D01*
X173473202Y-84363202D01*
X173483927Y-84353481D01*
X173495553Y-84344858D01*
X173507969Y-84337417D01*
X173521054Y-84331228D01*
X173534683Y-84326351D01*
X173548724Y-84322834D01*
X173563042Y-84320710D01*
X173577500Y-84320000D01*
X173922500Y-84320000D01*
X173936958Y-84320710D01*
X173936958Y-84320710D01*
G37*
D13*
X173750000Y-84615000D03*
D11*
G36*
X172686958Y-85305710D02*
G01*
X172701276Y-85307834D01*
X172715317Y-85311351D01*
X172728946Y-85316228D01*
X172742031Y-85322417D01*
X172754447Y-85329858D01*
X172766073Y-85338481D01*
X172776798Y-85348202D01*
X172786519Y-85358927D01*
X172795142Y-85370553D01*
X172802583Y-85382969D01*
X172808772Y-85396054D01*
X172813649Y-85409683D01*
X172817166Y-85423724D01*
X172819290Y-85438042D01*
X172820000Y-85452500D01*
X172820000Y-85747500D01*
X172819290Y-85761958D01*
X172817166Y-85776276D01*
X172813649Y-85790317D01*
X172808772Y-85803946D01*
X172802583Y-85817031D01*
X172795142Y-85829447D01*
X172786519Y-85841073D01*
X172776798Y-85851798D01*
X172766073Y-85861519D01*
X172754447Y-85870142D01*
X172742031Y-85877583D01*
X172728946Y-85883772D01*
X172715317Y-85888649D01*
X172701276Y-85892166D01*
X172686958Y-85894290D01*
X172672500Y-85895000D01*
X172327500Y-85895000D01*
X172313042Y-85894290D01*
X172298724Y-85892166D01*
X172284683Y-85888649D01*
X172271054Y-85883772D01*
X172257969Y-85877583D01*
X172245553Y-85870142D01*
X172233927Y-85861519D01*
X172223202Y-85851798D01*
X172213481Y-85841073D01*
X172204858Y-85829447D01*
X172197417Y-85817031D01*
X172191228Y-85803946D01*
X172186351Y-85790317D01*
X172182834Y-85776276D01*
X172180710Y-85761958D01*
X172180000Y-85747500D01*
X172180000Y-85452500D01*
X172180710Y-85438042D01*
X172182834Y-85423724D01*
X172186351Y-85409683D01*
X172191228Y-85396054D01*
X172197417Y-85382969D01*
X172204858Y-85370553D01*
X172213481Y-85358927D01*
X172223202Y-85348202D01*
X172233927Y-85338481D01*
X172245553Y-85329858D01*
X172257969Y-85322417D01*
X172271054Y-85316228D01*
X172284683Y-85311351D01*
X172298724Y-85307834D01*
X172313042Y-85305710D01*
X172327500Y-85305000D01*
X172672500Y-85305000D01*
X172686958Y-85305710D01*
X172686958Y-85305710D01*
G37*
D13*
X172500000Y-85600000D03*
D11*
G36*
X172686958Y-84335710D02*
G01*
X172701276Y-84337834D01*
X172715317Y-84341351D01*
X172728946Y-84346228D01*
X172742031Y-84352417D01*
X172754447Y-84359858D01*
X172766073Y-84368481D01*
X172776798Y-84378202D01*
X172786519Y-84388927D01*
X172795142Y-84400553D01*
X172802583Y-84412969D01*
X172808772Y-84426054D01*
X172813649Y-84439683D01*
X172817166Y-84453724D01*
X172819290Y-84468042D01*
X172820000Y-84482500D01*
X172820000Y-84777500D01*
X172819290Y-84791958D01*
X172817166Y-84806276D01*
X172813649Y-84820317D01*
X172808772Y-84833946D01*
X172802583Y-84847031D01*
X172795142Y-84859447D01*
X172786519Y-84871073D01*
X172776798Y-84881798D01*
X172766073Y-84891519D01*
X172754447Y-84900142D01*
X172742031Y-84907583D01*
X172728946Y-84913772D01*
X172715317Y-84918649D01*
X172701276Y-84922166D01*
X172686958Y-84924290D01*
X172672500Y-84925000D01*
X172327500Y-84925000D01*
X172313042Y-84924290D01*
X172298724Y-84922166D01*
X172284683Y-84918649D01*
X172271054Y-84913772D01*
X172257969Y-84907583D01*
X172245553Y-84900142D01*
X172233927Y-84891519D01*
X172223202Y-84881798D01*
X172213481Y-84871073D01*
X172204858Y-84859447D01*
X172197417Y-84847031D01*
X172191228Y-84833946D01*
X172186351Y-84820317D01*
X172182834Y-84806276D01*
X172180710Y-84791958D01*
X172180000Y-84777500D01*
X172180000Y-84482500D01*
X172180710Y-84468042D01*
X172182834Y-84453724D01*
X172186351Y-84439683D01*
X172191228Y-84426054D01*
X172197417Y-84412969D01*
X172204858Y-84400553D01*
X172213481Y-84388927D01*
X172223202Y-84378202D01*
X172233927Y-84368481D01*
X172245553Y-84359858D01*
X172257969Y-84352417D01*
X172271054Y-84346228D01*
X172284683Y-84341351D01*
X172298724Y-84337834D01*
X172313042Y-84335710D01*
X172327500Y-84335000D01*
X172672500Y-84335000D01*
X172686958Y-84335710D01*
X172686958Y-84335710D01*
G37*
D13*
X172500000Y-84630000D03*
D11*
G36*
X191386958Y-106385710D02*
G01*
X191401276Y-106387834D01*
X191415317Y-106391351D01*
X191428946Y-106396228D01*
X191442031Y-106402417D01*
X191454447Y-106409858D01*
X191466073Y-106418481D01*
X191476798Y-106428202D01*
X191486519Y-106438927D01*
X191495142Y-106450553D01*
X191502583Y-106462969D01*
X191508772Y-106476054D01*
X191513649Y-106489683D01*
X191517166Y-106503724D01*
X191519290Y-106518042D01*
X191520000Y-106532500D01*
X191520000Y-106827500D01*
X191519290Y-106841958D01*
X191517166Y-106856276D01*
X191513649Y-106870317D01*
X191508772Y-106883946D01*
X191502583Y-106897031D01*
X191495142Y-106909447D01*
X191486519Y-106921073D01*
X191476798Y-106931798D01*
X191466073Y-106941519D01*
X191454447Y-106950142D01*
X191442031Y-106957583D01*
X191428946Y-106963772D01*
X191415317Y-106968649D01*
X191401276Y-106972166D01*
X191386958Y-106974290D01*
X191372500Y-106975000D01*
X191027500Y-106975000D01*
X191013042Y-106974290D01*
X190998724Y-106972166D01*
X190984683Y-106968649D01*
X190971054Y-106963772D01*
X190957969Y-106957583D01*
X190945553Y-106950142D01*
X190933927Y-106941519D01*
X190923202Y-106931798D01*
X190913481Y-106921073D01*
X190904858Y-106909447D01*
X190897417Y-106897031D01*
X190891228Y-106883946D01*
X190886351Y-106870317D01*
X190882834Y-106856276D01*
X190880710Y-106841958D01*
X190880000Y-106827500D01*
X190880000Y-106532500D01*
X190880710Y-106518042D01*
X190882834Y-106503724D01*
X190886351Y-106489683D01*
X190891228Y-106476054D01*
X190897417Y-106462969D01*
X190904858Y-106450553D01*
X190913481Y-106438927D01*
X190923202Y-106428202D01*
X190933927Y-106418481D01*
X190945553Y-106409858D01*
X190957969Y-106402417D01*
X190971054Y-106396228D01*
X190984683Y-106391351D01*
X190998724Y-106387834D01*
X191013042Y-106385710D01*
X191027500Y-106385000D01*
X191372500Y-106385000D01*
X191386958Y-106385710D01*
X191386958Y-106385710D01*
G37*
D13*
X191200000Y-106680000D03*
D11*
G36*
X191386958Y-107355710D02*
G01*
X191401276Y-107357834D01*
X191415317Y-107361351D01*
X191428946Y-107366228D01*
X191442031Y-107372417D01*
X191454447Y-107379858D01*
X191466073Y-107388481D01*
X191476798Y-107398202D01*
X191486519Y-107408927D01*
X191495142Y-107420553D01*
X191502583Y-107432969D01*
X191508772Y-107446054D01*
X191513649Y-107459683D01*
X191517166Y-107473724D01*
X191519290Y-107488042D01*
X191520000Y-107502500D01*
X191520000Y-107797500D01*
X191519290Y-107811958D01*
X191517166Y-107826276D01*
X191513649Y-107840317D01*
X191508772Y-107853946D01*
X191502583Y-107867031D01*
X191495142Y-107879447D01*
X191486519Y-107891073D01*
X191476798Y-107901798D01*
X191466073Y-107911519D01*
X191454447Y-107920142D01*
X191442031Y-107927583D01*
X191428946Y-107933772D01*
X191415317Y-107938649D01*
X191401276Y-107942166D01*
X191386958Y-107944290D01*
X191372500Y-107945000D01*
X191027500Y-107945000D01*
X191013042Y-107944290D01*
X190998724Y-107942166D01*
X190984683Y-107938649D01*
X190971054Y-107933772D01*
X190957969Y-107927583D01*
X190945553Y-107920142D01*
X190933927Y-107911519D01*
X190923202Y-107901798D01*
X190913481Y-107891073D01*
X190904858Y-107879447D01*
X190897417Y-107867031D01*
X190891228Y-107853946D01*
X190886351Y-107840317D01*
X190882834Y-107826276D01*
X190880710Y-107811958D01*
X190880000Y-107797500D01*
X190880000Y-107502500D01*
X190880710Y-107488042D01*
X190882834Y-107473724D01*
X190886351Y-107459683D01*
X190891228Y-107446054D01*
X190897417Y-107432969D01*
X190904858Y-107420553D01*
X190913481Y-107408927D01*
X190923202Y-107398202D01*
X190933927Y-107388481D01*
X190945553Y-107379858D01*
X190957969Y-107372417D01*
X190971054Y-107366228D01*
X190984683Y-107361351D01*
X190998724Y-107357834D01*
X191013042Y-107355710D01*
X191027500Y-107355000D01*
X191372500Y-107355000D01*
X191386958Y-107355710D01*
X191386958Y-107355710D01*
G37*
D13*
X191200000Y-107650000D03*
D11*
G36*
X177810958Y-95461310D02*
G01*
X177825276Y-95463434D01*
X177839317Y-95466951D01*
X177852946Y-95471828D01*
X177866031Y-95478017D01*
X177878447Y-95485458D01*
X177890073Y-95494081D01*
X177900798Y-95503802D01*
X177910519Y-95514527D01*
X177919142Y-95526153D01*
X177926583Y-95538569D01*
X177932772Y-95551654D01*
X177937649Y-95565283D01*
X177941166Y-95579324D01*
X177943290Y-95593642D01*
X177944000Y-95608100D01*
X177944000Y-95953100D01*
X177943290Y-95967558D01*
X177941166Y-95981876D01*
X177937649Y-95995917D01*
X177932772Y-96009546D01*
X177926583Y-96022631D01*
X177919142Y-96035047D01*
X177910519Y-96046673D01*
X177900798Y-96057398D01*
X177890073Y-96067119D01*
X177878447Y-96075742D01*
X177866031Y-96083183D01*
X177852946Y-96089372D01*
X177839317Y-96094249D01*
X177825276Y-96097766D01*
X177810958Y-96099890D01*
X177796500Y-96100600D01*
X177501500Y-96100600D01*
X177487042Y-96099890D01*
X177472724Y-96097766D01*
X177458683Y-96094249D01*
X177445054Y-96089372D01*
X177431969Y-96083183D01*
X177419553Y-96075742D01*
X177407927Y-96067119D01*
X177397202Y-96057398D01*
X177387481Y-96046673D01*
X177378858Y-96035047D01*
X177371417Y-96022631D01*
X177365228Y-96009546D01*
X177360351Y-95995917D01*
X177356834Y-95981876D01*
X177354710Y-95967558D01*
X177354000Y-95953100D01*
X177354000Y-95608100D01*
X177354710Y-95593642D01*
X177356834Y-95579324D01*
X177360351Y-95565283D01*
X177365228Y-95551654D01*
X177371417Y-95538569D01*
X177378858Y-95526153D01*
X177387481Y-95514527D01*
X177397202Y-95503802D01*
X177407927Y-95494081D01*
X177419553Y-95485458D01*
X177431969Y-95478017D01*
X177445054Y-95471828D01*
X177458683Y-95466951D01*
X177472724Y-95463434D01*
X177487042Y-95461310D01*
X177501500Y-95460600D01*
X177796500Y-95460600D01*
X177810958Y-95461310D01*
X177810958Y-95461310D01*
G37*
D13*
X177649000Y-95780600D03*
D11*
G36*
X178780958Y-95461310D02*
G01*
X178795276Y-95463434D01*
X178809317Y-95466951D01*
X178822946Y-95471828D01*
X178836031Y-95478017D01*
X178848447Y-95485458D01*
X178860073Y-95494081D01*
X178870798Y-95503802D01*
X178880519Y-95514527D01*
X178889142Y-95526153D01*
X178896583Y-95538569D01*
X178902772Y-95551654D01*
X178907649Y-95565283D01*
X178911166Y-95579324D01*
X178913290Y-95593642D01*
X178914000Y-95608100D01*
X178914000Y-95953100D01*
X178913290Y-95967558D01*
X178911166Y-95981876D01*
X178907649Y-95995917D01*
X178902772Y-96009546D01*
X178896583Y-96022631D01*
X178889142Y-96035047D01*
X178880519Y-96046673D01*
X178870798Y-96057398D01*
X178860073Y-96067119D01*
X178848447Y-96075742D01*
X178836031Y-96083183D01*
X178822946Y-96089372D01*
X178809317Y-96094249D01*
X178795276Y-96097766D01*
X178780958Y-96099890D01*
X178766500Y-96100600D01*
X178471500Y-96100600D01*
X178457042Y-96099890D01*
X178442724Y-96097766D01*
X178428683Y-96094249D01*
X178415054Y-96089372D01*
X178401969Y-96083183D01*
X178389553Y-96075742D01*
X178377927Y-96067119D01*
X178367202Y-96057398D01*
X178357481Y-96046673D01*
X178348858Y-96035047D01*
X178341417Y-96022631D01*
X178335228Y-96009546D01*
X178330351Y-95995917D01*
X178326834Y-95981876D01*
X178324710Y-95967558D01*
X178324000Y-95953100D01*
X178324000Y-95608100D01*
X178324710Y-95593642D01*
X178326834Y-95579324D01*
X178330351Y-95565283D01*
X178335228Y-95551654D01*
X178341417Y-95538569D01*
X178348858Y-95526153D01*
X178357481Y-95514527D01*
X178367202Y-95503802D01*
X178377927Y-95494081D01*
X178389553Y-95485458D01*
X178401969Y-95478017D01*
X178415054Y-95471828D01*
X178428683Y-95466951D01*
X178442724Y-95463434D01*
X178457042Y-95461310D01*
X178471500Y-95460600D01*
X178766500Y-95460600D01*
X178780958Y-95461310D01*
X178780958Y-95461310D01*
G37*
D13*
X178619000Y-95780600D03*
D18*
X167300000Y-106150000D03*
X170300000Y-105200000D03*
X170300000Y-107100000D03*
D19*
X177609800Y-82121000D03*
X177609800Y-78521000D03*
X176339800Y-82121000D03*
X176339800Y-78521000D03*
X175069800Y-82121000D03*
X175069800Y-78521000D03*
X173799800Y-82121000D03*
X173799800Y-78521000D03*
X172529800Y-82121000D03*
X172529800Y-78521000D03*
D20*
X179770000Y-115910000D03*
X178090000Y-115910000D03*
D21*
X181840000Y-115910000D03*
X176020000Y-115910000D03*
D22*
X181392500Y-113610000D03*
X176467500Y-113610000D03*
D23*
X180230000Y-113250000D03*
X179580000Y-113250000D03*
X178930000Y-113250000D03*
X178280000Y-113250000D03*
X177630000Y-113250000D03*
D11*
G36*
X175599504Y-100076204D02*
G01*
X175623773Y-100079804D01*
X175647571Y-100085765D01*
X175670671Y-100094030D01*
X175692849Y-100104520D01*
X175713893Y-100117133D01*
X175733598Y-100131747D01*
X175751777Y-100148223D01*
X175768253Y-100166402D01*
X175782867Y-100186107D01*
X175795480Y-100207151D01*
X175805970Y-100229329D01*
X175814235Y-100252429D01*
X175820196Y-100276227D01*
X175823796Y-100300496D01*
X175825000Y-100325000D01*
X175825000Y-101075000D01*
X175823796Y-101099504D01*
X175820196Y-101123773D01*
X175814235Y-101147571D01*
X175805970Y-101170671D01*
X175795480Y-101192849D01*
X175782867Y-101213893D01*
X175768253Y-101233598D01*
X175751777Y-101251777D01*
X175733598Y-101268253D01*
X175713893Y-101282867D01*
X175692849Y-101295480D01*
X175670671Y-101305970D01*
X175647571Y-101314235D01*
X175623773Y-101320196D01*
X175599504Y-101323796D01*
X175575000Y-101325000D01*
X174325000Y-101325000D01*
X174300496Y-101323796D01*
X174276227Y-101320196D01*
X174252429Y-101314235D01*
X174229329Y-101305970D01*
X174207151Y-101295480D01*
X174186107Y-101282867D01*
X174166402Y-101268253D01*
X174148223Y-101251777D01*
X174131747Y-101233598D01*
X174117133Y-101213893D01*
X174104520Y-101192849D01*
X174094030Y-101170671D01*
X174085765Y-101147571D01*
X174079804Y-101123773D01*
X174076204Y-101099504D01*
X174075000Y-101075000D01*
X174075000Y-100325000D01*
X174076204Y-100300496D01*
X174079804Y-100276227D01*
X174085765Y-100252429D01*
X174094030Y-100229329D01*
X174104520Y-100207151D01*
X174117133Y-100186107D01*
X174131747Y-100166402D01*
X174148223Y-100148223D01*
X174166402Y-100131747D01*
X174186107Y-100117133D01*
X174207151Y-100104520D01*
X174229329Y-100094030D01*
X174252429Y-100085765D01*
X174276227Y-100079804D01*
X174300496Y-100076204D01*
X174325000Y-100075000D01*
X175575000Y-100075000D01*
X175599504Y-100076204D01*
X175599504Y-100076204D01*
G37*
D24*
X174950000Y-100700000D03*
D11*
G36*
X175599504Y-97276204D02*
G01*
X175623773Y-97279804D01*
X175647571Y-97285765D01*
X175670671Y-97294030D01*
X175692849Y-97304520D01*
X175713893Y-97317133D01*
X175733598Y-97331747D01*
X175751777Y-97348223D01*
X175768253Y-97366402D01*
X175782867Y-97386107D01*
X175795480Y-97407151D01*
X175805970Y-97429329D01*
X175814235Y-97452429D01*
X175820196Y-97476227D01*
X175823796Y-97500496D01*
X175825000Y-97525000D01*
X175825000Y-98275000D01*
X175823796Y-98299504D01*
X175820196Y-98323773D01*
X175814235Y-98347571D01*
X175805970Y-98370671D01*
X175795480Y-98392849D01*
X175782867Y-98413893D01*
X175768253Y-98433598D01*
X175751777Y-98451777D01*
X175733598Y-98468253D01*
X175713893Y-98482867D01*
X175692849Y-98495480D01*
X175670671Y-98505970D01*
X175647571Y-98514235D01*
X175623773Y-98520196D01*
X175599504Y-98523796D01*
X175575000Y-98525000D01*
X174325000Y-98525000D01*
X174300496Y-98523796D01*
X174276227Y-98520196D01*
X174252429Y-98514235D01*
X174229329Y-98505970D01*
X174207151Y-98495480D01*
X174186107Y-98482867D01*
X174166402Y-98468253D01*
X174148223Y-98451777D01*
X174131747Y-98433598D01*
X174117133Y-98413893D01*
X174104520Y-98392849D01*
X174094030Y-98370671D01*
X174085765Y-98347571D01*
X174079804Y-98323773D01*
X174076204Y-98299504D01*
X174075000Y-98275000D01*
X174075000Y-97525000D01*
X174076204Y-97500496D01*
X174079804Y-97476227D01*
X174085765Y-97452429D01*
X174094030Y-97429329D01*
X174104520Y-97407151D01*
X174117133Y-97386107D01*
X174131747Y-97366402D01*
X174148223Y-97348223D01*
X174166402Y-97331747D01*
X174186107Y-97317133D01*
X174207151Y-97304520D01*
X174229329Y-97294030D01*
X174252429Y-97285765D01*
X174276227Y-97279804D01*
X174300496Y-97276204D01*
X174325000Y-97275000D01*
X175575000Y-97275000D01*
X175599504Y-97276204D01*
X175599504Y-97276204D01*
G37*
D24*
X174950000Y-97900000D03*
D11*
G36*
X189914291Y-105684253D02*
G01*
X189935526Y-105687403D01*
X189956350Y-105692619D01*
X189976562Y-105699851D01*
X189995968Y-105709030D01*
X190014381Y-105720066D01*
X190031624Y-105732854D01*
X190047530Y-105747270D01*
X190061946Y-105763176D01*
X190074734Y-105780419D01*
X190085770Y-105798832D01*
X190094949Y-105818238D01*
X190102181Y-105838450D01*
X190107397Y-105859274D01*
X190110547Y-105880509D01*
X190111600Y-105901950D01*
X190111600Y-106339450D01*
X190110547Y-106360891D01*
X190107397Y-106382126D01*
X190102181Y-106402950D01*
X190094949Y-106423162D01*
X190085770Y-106442568D01*
X190074734Y-106460981D01*
X190061946Y-106478224D01*
X190047530Y-106494130D01*
X190031624Y-106508546D01*
X190014381Y-106521334D01*
X189995968Y-106532370D01*
X189976562Y-106541549D01*
X189956350Y-106548781D01*
X189935526Y-106553997D01*
X189914291Y-106557147D01*
X189892850Y-106558200D01*
X189380350Y-106558200D01*
X189358909Y-106557147D01*
X189337674Y-106553997D01*
X189316850Y-106548781D01*
X189296638Y-106541549D01*
X189277232Y-106532370D01*
X189258819Y-106521334D01*
X189241576Y-106508546D01*
X189225670Y-106494130D01*
X189211254Y-106478224D01*
X189198466Y-106460981D01*
X189187430Y-106442568D01*
X189178251Y-106423162D01*
X189171019Y-106402950D01*
X189165803Y-106382126D01*
X189162653Y-106360891D01*
X189161600Y-106339450D01*
X189161600Y-105901950D01*
X189162653Y-105880509D01*
X189165803Y-105859274D01*
X189171019Y-105838450D01*
X189178251Y-105818238D01*
X189187430Y-105798832D01*
X189198466Y-105780419D01*
X189211254Y-105763176D01*
X189225670Y-105747270D01*
X189241576Y-105732854D01*
X189258819Y-105720066D01*
X189277232Y-105709030D01*
X189296638Y-105699851D01*
X189316850Y-105692619D01*
X189337674Y-105687403D01*
X189358909Y-105684253D01*
X189380350Y-105683200D01*
X189892850Y-105683200D01*
X189914291Y-105684253D01*
X189914291Y-105684253D01*
G37*
D14*
X189636600Y-106120700D03*
D11*
G36*
X189914291Y-107259253D02*
G01*
X189935526Y-107262403D01*
X189956350Y-107267619D01*
X189976562Y-107274851D01*
X189995968Y-107284030D01*
X190014381Y-107295066D01*
X190031624Y-107307854D01*
X190047530Y-107322270D01*
X190061946Y-107338176D01*
X190074734Y-107355419D01*
X190085770Y-107373832D01*
X190094949Y-107393238D01*
X190102181Y-107413450D01*
X190107397Y-107434274D01*
X190110547Y-107455509D01*
X190111600Y-107476950D01*
X190111600Y-107914450D01*
X190110547Y-107935891D01*
X190107397Y-107957126D01*
X190102181Y-107977950D01*
X190094949Y-107998162D01*
X190085770Y-108017568D01*
X190074734Y-108035981D01*
X190061946Y-108053224D01*
X190047530Y-108069130D01*
X190031624Y-108083546D01*
X190014381Y-108096334D01*
X189995968Y-108107370D01*
X189976562Y-108116549D01*
X189956350Y-108123781D01*
X189935526Y-108128997D01*
X189914291Y-108132147D01*
X189892850Y-108133200D01*
X189380350Y-108133200D01*
X189358909Y-108132147D01*
X189337674Y-108128997D01*
X189316850Y-108123781D01*
X189296638Y-108116549D01*
X189277232Y-108107370D01*
X189258819Y-108096334D01*
X189241576Y-108083546D01*
X189225670Y-108069130D01*
X189211254Y-108053224D01*
X189198466Y-108035981D01*
X189187430Y-108017568D01*
X189178251Y-107998162D01*
X189171019Y-107977950D01*
X189165803Y-107957126D01*
X189162653Y-107935891D01*
X189161600Y-107914450D01*
X189161600Y-107476950D01*
X189162653Y-107455509D01*
X189165803Y-107434274D01*
X189171019Y-107413450D01*
X189178251Y-107393238D01*
X189187430Y-107373832D01*
X189198466Y-107355419D01*
X189211254Y-107338176D01*
X189225670Y-107322270D01*
X189241576Y-107307854D01*
X189258819Y-107295066D01*
X189277232Y-107284030D01*
X189296638Y-107274851D01*
X189316850Y-107267619D01*
X189337674Y-107262403D01*
X189358909Y-107259253D01*
X189380350Y-107258200D01*
X189892850Y-107258200D01*
X189914291Y-107259253D01*
X189914291Y-107259253D01*
G37*
D14*
X189636600Y-107695700D03*
D11*
G36*
X177891491Y-93655653D02*
G01*
X177912726Y-93658803D01*
X177933550Y-93664019D01*
X177953762Y-93671251D01*
X177973168Y-93680430D01*
X177991581Y-93691466D01*
X178008824Y-93704254D01*
X178024730Y-93718670D01*
X178039146Y-93734576D01*
X178051934Y-93751819D01*
X178062970Y-93770232D01*
X178072149Y-93789638D01*
X178079381Y-93809850D01*
X178084597Y-93830674D01*
X178087747Y-93851909D01*
X178088800Y-93873350D01*
X178088800Y-94385850D01*
X178087747Y-94407291D01*
X178084597Y-94428526D01*
X178079381Y-94449350D01*
X178072149Y-94469562D01*
X178062970Y-94488968D01*
X178051934Y-94507381D01*
X178039146Y-94524624D01*
X178024730Y-94540530D01*
X178008824Y-94554946D01*
X177991581Y-94567734D01*
X177973168Y-94578770D01*
X177953762Y-94587949D01*
X177933550Y-94595181D01*
X177912726Y-94600397D01*
X177891491Y-94603547D01*
X177870050Y-94604600D01*
X177432550Y-94604600D01*
X177411109Y-94603547D01*
X177389874Y-94600397D01*
X177369050Y-94595181D01*
X177348838Y-94587949D01*
X177329432Y-94578770D01*
X177311019Y-94567734D01*
X177293776Y-94554946D01*
X177277870Y-94540530D01*
X177263454Y-94524624D01*
X177250666Y-94507381D01*
X177239630Y-94488968D01*
X177230451Y-94469562D01*
X177223219Y-94449350D01*
X177218003Y-94428526D01*
X177214853Y-94407291D01*
X177213800Y-94385850D01*
X177213800Y-93873350D01*
X177214853Y-93851909D01*
X177218003Y-93830674D01*
X177223219Y-93809850D01*
X177230451Y-93789638D01*
X177239630Y-93770232D01*
X177250666Y-93751819D01*
X177263454Y-93734576D01*
X177277870Y-93718670D01*
X177293776Y-93704254D01*
X177311019Y-93691466D01*
X177329432Y-93680430D01*
X177348838Y-93671251D01*
X177369050Y-93664019D01*
X177389874Y-93658803D01*
X177411109Y-93655653D01*
X177432550Y-93654600D01*
X177870050Y-93654600D01*
X177891491Y-93655653D01*
X177891491Y-93655653D01*
G37*
D14*
X177651300Y-94129600D03*
D11*
G36*
X179466491Y-93655653D02*
G01*
X179487726Y-93658803D01*
X179508550Y-93664019D01*
X179528762Y-93671251D01*
X179548168Y-93680430D01*
X179566581Y-93691466D01*
X179583824Y-93704254D01*
X179599730Y-93718670D01*
X179614146Y-93734576D01*
X179626934Y-93751819D01*
X179637970Y-93770232D01*
X179647149Y-93789638D01*
X179654381Y-93809850D01*
X179659597Y-93830674D01*
X179662747Y-93851909D01*
X179663800Y-93873350D01*
X179663800Y-94385850D01*
X179662747Y-94407291D01*
X179659597Y-94428526D01*
X179654381Y-94449350D01*
X179647149Y-94469562D01*
X179637970Y-94488968D01*
X179626934Y-94507381D01*
X179614146Y-94524624D01*
X179599730Y-94540530D01*
X179583824Y-94554946D01*
X179566581Y-94567734D01*
X179548168Y-94578770D01*
X179528762Y-94587949D01*
X179508550Y-94595181D01*
X179487726Y-94600397D01*
X179466491Y-94603547D01*
X179445050Y-94604600D01*
X179007550Y-94604600D01*
X178986109Y-94603547D01*
X178964874Y-94600397D01*
X178944050Y-94595181D01*
X178923838Y-94587949D01*
X178904432Y-94578770D01*
X178886019Y-94567734D01*
X178868776Y-94554946D01*
X178852870Y-94540530D01*
X178838454Y-94524624D01*
X178825666Y-94507381D01*
X178814630Y-94488968D01*
X178805451Y-94469562D01*
X178798219Y-94449350D01*
X178793003Y-94428526D01*
X178789853Y-94407291D01*
X178788800Y-94385850D01*
X178788800Y-93873350D01*
X178789853Y-93851909D01*
X178793003Y-93830674D01*
X178798219Y-93809850D01*
X178805451Y-93789638D01*
X178814630Y-93770232D01*
X178825666Y-93751819D01*
X178838454Y-93734576D01*
X178852870Y-93718670D01*
X178868776Y-93704254D01*
X178886019Y-93691466D01*
X178904432Y-93680430D01*
X178923838Y-93671251D01*
X178944050Y-93664019D01*
X178964874Y-93658803D01*
X178986109Y-93655653D01*
X179007550Y-93654600D01*
X179445050Y-93654600D01*
X179466491Y-93655653D01*
X179466491Y-93655653D01*
G37*
D14*
X179226300Y-94129600D03*
D11*
G36*
X186589491Y-97574453D02*
G01*
X186610726Y-97577603D01*
X186631550Y-97582819D01*
X186651762Y-97590051D01*
X186671168Y-97599230D01*
X186689581Y-97610266D01*
X186706824Y-97623054D01*
X186722730Y-97637470D01*
X186737146Y-97653376D01*
X186749934Y-97670619D01*
X186760970Y-97689032D01*
X186770149Y-97708438D01*
X186777381Y-97728650D01*
X186782597Y-97749474D01*
X186785747Y-97770709D01*
X186786800Y-97792150D01*
X186786800Y-98304650D01*
X186785747Y-98326091D01*
X186782597Y-98347326D01*
X186777381Y-98368150D01*
X186770149Y-98388362D01*
X186760970Y-98407768D01*
X186749934Y-98426181D01*
X186737146Y-98443424D01*
X186722730Y-98459330D01*
X186706824Y-98473746D01*
X186689581Y-98486534D01*
X186671168Y-98497570D01*
X186651762Y-98506749D01*
X186631550Y-98513981D01*
X186610726Y-98519197D01*
X186589491Y-98522347D01*
X186568050Y-98523400D01*
X186130550Y-98523400D01*
X186109109Y-98522347D01*
X186087874Y-98519197D01*
X186067050Y-98513981D01*
X186046838Y-98506749D01*
X186027432Y-98497570D01*
X186009019Y-98486534D01*
X185991776Y-98473746D01*
X185975870Y-98459330D01*
X185961454Y-98443424D01*
X185948666Y-98426181D01*
X185937630Y-98407768D01*
X185928451Y-98388362D01*
X185921219Y-98368150D01*
X185916003Y-98347326D01*
X185912853Y-98326091D01*
X185911800Y-98304650D01*
X185911800Y-97792150D01*
X185912853Y-97770709D01*
X185916003Y-97749474D01*
X185921219Y-97728650D01*
X185928451Y-97708438D01*
X185937630Y-97689032D01*
X185948666Y-97670619D01*
X185961454Y-97653376D01*
X185975870Y-97637470D01*
X185991776Y-97623054D01*
X186009019Y-97610266D01*
X186027432Y-97599230D01*
X186046838Y-97590051D01*
X186067050Y-97582819D01*
X186087874Y-97577603D01*
X186109109Y-97574453D01*
X186130550Y-97573400D01*
X186568050Y-97573400D01*
X186589491Y-97574453D01*
X186589491Y-97574453D01*
G37*
D14*
X186349300Y-98048400D03*
D11*
G36*
X185014491Y-97574453D02*
G01*
X185035726Y-97577603D01*
X185056550Y-97582819D01*
X185076762Y-97590051D01*
X185096168Y-97599230D01*
X185114581Y-97610266D01*
X185131824Y-97623054D01*
X185147730Y-97637470D01*
X185162146Y-97653376D01*
X185174934Y-97670619D01*
X185185970Y-97689032D01*
X185195149Y-97708438D01*
X185202381Y-97728650D01*
X185207597Y-97749474D01*
X185210747Y-97770709D01*
X185211800Y-97792150D01*
X185211800Y-98304650D01*
X185210747Y-98326091D01*
X185207597Y-98347326D01*
X185202381Y-98368150D01*
X185195149Y-98388362D01*
X185185970Y-98407768D01*
X185174934Y-98426181D01*
X185162146Y-98443424D01*
X185147730Y-98459330D01*
X185131824Y-98473746D01*
X185114581Y-98486534D01*
X185096168Y-98497570D01*
X185076762Y-98506749D01*
X185056550Y-98513981D01*
X185035726Y-98519197D01*
X185014491Y-98522347D01*
X184993050Y-98523400D01*
X184555550Y-98523400D01*
X184534109Y-98522347D01*
X184512874Y-98519197D01*
X184492050Y-98513981D01*
X184471838Y-98506749D01*
X184452432Y-98497570D01*
X184434019Y-98486534D01*
X184416776Y-98473746D01*
X184400870Y-98459330D01*
X184386454Y-98443424D01*
X184373666Y-98426181D01*
X184362630Y-98407768D01*
X184353451Y-98388362D01*
X184346219Y-98368150D01*
X184341003Y-98347326D01*
X184337853Y-98326091D01*
X184336800Y-98304650D01*
X184336800Y-97792150D01*
X184337853Y-97770709D01*
X184341003Y-97749474D01*
X184346219Y-97728650D01*
X184353451Y-97708438D01*
X184362630Y-97689032D01*
X184373666Y-97670619D01*
X184386454Y-97653376D01*
X184400870Y-97637470D01*
X184416776Y-97623054D01*
X184434019Y-97610266D01*
X184452432Y-97599230D01*
X184471838Y-97590051D01*
X184492050Y-97582819D01*
X184512874Y-97577603D01*
X184534109Y-97574453D01*
X184555550Y-97573400D01*
X184993050Y-97573400D01*
X185014491Y-97574453D01*
X185014491Y-97574453D01*
G37*
D14*
X184774300Y-98048400D03*
D11*
G36*
X183033491Y-97549053D02*
G01*
X183054726Y-97552203D01*
X183075550Y-97557419D01*
X183095762Y-97564651D01*
X183115168Y-97573830D01*
X183133581Y-97584866D01*
X183150824Y-97597654D01*
X183166730Y-97612070D01*
X183181146Y-97627976D01*
X183193934Y-97645219D01*
X183204970Y-97663632D01*
X183214149Y-97683038D01*
X183221381Y-97703250D01*
X183226597Y-97724074D01*
X183229747Y-97745309D01*
X183230800Y-97766750D01*
X183230800Y-98279250D01*
X183229747Y-98300691D01*
X183226597Y-98321926D01*
X183221381Y-98342750D01*
X183214149Y-98362962D01*
X183204970Y-98382368D01*
X183193934Y-98400781D01*
X183181146Y-98418024D01*
X183166730Y-98433930D01*
X183150824Y-98448346D01*
X183133581Y-98461134D01*
X183115168Y-98472170D01*
X183095762Y-98481349D01*
X183075550Y-98488581D01*
X183054726Y-98493797D01*
X183033491Y-98496947D01*
X183012050Y-98498000D01*
X182574550Y-98498000D01*
X182553109Y-98496947D01*
X182531874Y-98493797D01*
X182511050Y-98488581D01*
X182490838Y-98481349D01*
X182471432Y-98472170D01*
X182453019Y-98461134D01*
X182435776Y-98448346D01*
X182419870Y-98433930D01*
X182405454Y-98418024D01*
X182392666Y-98400781D01*
X182381630Y-98382368D01*
X182372451Y-98362962D01*
X182365219Y-98342750D01*
X182360003Y-98321926D01*
X182356853Y-98300691D01*
X182355800Y-98279250D01*
X182355800Y-97766750D01*
X182356853Y-97745309D01*
X182360003Y-97724074D01*
X182365219Y-97703250D01*
X182372451Y-97683038D01*
X182381630Y-97663632D01*
X182392666Y-97645219D01*
X182405454Y-97627976D01*
X182419870Y-97612070D01*
X182435776Y-97597654D01*
X182453019Y-97584866D01*
X182471432Y-97573830D01*
X182490838Y-97564651D01*
X182511050Y-97557419D01*
X182531874Y-97552203D01*
X182553109Y-97549053D01*
X182574550Y-97548000D01*
X183012050Y-97548000D01*
X183033491Y-97549053D01*
X183033491Y-97549053D01*
G37*
D14*
X182793300Y-98023000D03*
D11*
G36*
X181458491Y-97549053D02*
G01*
X181479726Y-97552203D01*
X181500550Y-97557419D01*
X181520762Y-97564651D01*
X181540168Y-97573830D01*
X181558581Y-97584866D01*
X181575824Y-97597654D01*
X181591730Y-97612070D01*
X181606146Y-97627976D01*
X181618934Y-97645219D01*
X181629970Y-97663632D01*
X181639149Y-97683038D01*
X181646381Y-97703250D01*
X181651597Y-97724074D01*
X181654747Y-97745309D01*
X181655800Y-97766750D01*
X181655800Y-98279250D01*
X181654747Y-98300691D01*
X181651597Y-98321926D01*
X181646381Y-98342750D01*
X181639149Y-98362962D01*
X181629970Y-98382368D01*
X181618934Y-98400781D01*
X181606146Y-98418024D01*
X181591730Y-98433930D01*
X181575824Y-98448346D01*
X181558581Y-98461134D01*
X181540168Y-98472170D01*
X181520762Y-98481349D01*
X181500550Y-98488581D01*
X181479726Y-98493797D01*
X181458491Y-98496947D01*
X181437050Y-98498000D01*
X180999550Y-98498000D01*
X180978109Y-98496947D01*
X180956874Y-98493797D01*
X180936050Y-98488581D01*
X180915838Y-98481349D01*
X180896432Y-98472170D01*
X180878019Y-98461134D01*
X180860776Y-98448346D01*
X180844870Y-98433930D01*
X180830454Y-98418024D01*
X180817666Y-98400781D01*
X180806630Y-98382368D01*
X180797451Y-98362962D01*
X180790219Y-98342750D01*
X180785003Y-98321926D01*
X180781853Y-98300691D01*
X180780800Y-98279250D01*
X180780800Y-97766750D01*
X180781853Y-97745309D01*
X180785003Y-97724074D01*
X180790219Y-97703250D01*
X180797451Y-97683038D01*
X180806630Y-97663632D01*
X180817666Y-97645219D01*
X180830454Y-97627976D01*
X180844870Y-97612070D01*
X180860776Y-97597654D01*
X180878019Y-97584866D01*
X180896432Y-97573830D01*
X180915838Y-97564651D01*
X180936050Y-97557419D01*
X180956874Y-97552203D01*
X180978109Y-97549053D01*
X180999550Y-97548000D01*
X181437050Y-97548000D01*
X181458491Y-97549053D01*
X181458491Y-97549053D01*
G37*
D14*
X181218300Y-98023000D03*
D11*
G36*
X186012491Y-88225253D02*
G01*
X186033726Y-88228403D01*
X186054550Y-88233619D01*
X186074762Y-88240851D01*
X186094168Y-88250030D01*
X186112581Y-88261066D01*
X186129824Y-88273854D01*
X186145730Y-88288270D01*
X186160146Y-88304176D01*
X186172934Y-88321419D01*
X186183970Y-88339832D01*
X186193149Y-88359238D01*
X186200381Y-88379450D01*
X186205597Y-88400274D01*
X186208747Y-88421509D01*
X186209800Y-88442950D01*
X186209800Y-88880450D01*
X186208747Y-88901891D01*
X186205597Y-88923126D01*
X186200381Y-88943950D01*
X186193149Y-88964162D01*
X186183970Y-88983568D01*
X186172934Y-89001981D01*
X186160146Y-89019224D01*
X186145730Y-89035130D01*
X186129824Y-89049546D01*
X186112581Y-89062334D01*
X186094168Y-89073370D01*
X186074762Y-89082549D01*
X186054550Y-89089781D01*
X186033726Y-89094997D01*
X186012491Y-89098147D01*
X185991050Y-89099200D01*
X185478550Y-89099200D01*
X185457109Y-89098147D01*
X185435874Y-89094997D01*
X185415050Y-89089781D01*
X185394838Y-89082549D01*
X185375432Y-89073370D01*
X185357019Y-89062334D01*
X185339776Y-89049546D01*
X185323870Y-89035130D01*
X185309454Y-89019224D01*
X185296666Y-89001981D01*
X185285630Y-88983568D01*
X185276451Y-88964162D01*
X185269219Y-88943950D01*
X185264003Y-88923126D01*
X185260853Y-88901891D01*
X185259800Y-88880450D01*
X185259800Y-88442950D01*
X185260853Y-88421509D01*
X185264003Y-88400274D01*
X185269219Y-88379450D01*
X185276451Y-88359238D01*
X185285630Y-88339832D01*
X185296666Y-88321419D01*
X185309454Y-88304176D01*
X185323870Y-88288270D01*
X185339776Y-88273854D01*
X185357019Y-88261066D01*
X185375432Y-88250030D01*
X185394838Y-88240851D01*
X185415050Y-88233619D01*
X185435874Y-88228403D01*
X185457109Y-88225253D01*
X185478550Y-88224200D01*
X185991050Y-88224200D01*
X186012491Y-88225253D01*
X186012491Y-88225253D01*
G37*
D14*
X185734800Y-88661700D03*
D11*
G36*
X186012491Y-89800253D02*
G01*
X186033726Y-89803403D01*
X186054550Y-89808619D01*
X186074762Y-89815851D01*
X186094168Y-89825030D01*
X186112581Y-89836066D01*
X186129824Y-89848854D01*
X186145730Y-89863270D01*
X186160146Y-89879176D01*
X186172934Y-89896419D01*
X186183970Y-89914832D01*
X186193149Y-89934238D01*
X186200381Y-89954450D01*
X186205597Y-89975274D01*
X186208747Y-89996509D01*
X186209800Y-90017950D01*
X186209800Y-90455450D01*
X186208747Y-90476891D01*
X186205597Y-90498126D01*
X186200381Y-90518950D01*
X186193149Y-90539162D01*
X186183970Y-90558568D01*
X186172934Y-90576981D01*
X186160146Y-90594224D01*
X186145730Y-90610130D01*
X186129824Y-90624546D01*
X186112581Y-90637334D01*
X186094168Y-90648370D01*
X186074762Y-90657549D01*
X186054550Y-90664781D01*
X186033726Y-90669997D01*
X186012491Y-90673147D01*
X185991050Y-90674200D01*
X185478550Y-90674200D01*
X185457109Y-90673147D01*
X185435874Y-90669997D01*
X185415050Y-90664781D01*
X185394838Y-90657549D01*
X185375432Y-90648370D01*
X185357019Y-90637334D01*
X185339776Y-90624546D01*
X185323870Y-90610130D01*
X185309454Y-90594224D01*
X185296666Y-90576981D01*
X185285630Y-90558568D01*
X185276451Y-90539162D01*
X185269219Y-90518950D01*
X185264003Y-90498126D01*
X185260853Y-90476891D01*
X185259800Y-90455450D01*
X185259800Y-90017950D01*
X185260853Y-89996509D01*
X185264003Y-89975274D01*
X185269219Y-89954450D01*
X185276451Y-89934238D01*
X185285630Y-89914832D01*
X185296666Y-89896419D01*
X185309454Y-89879176D01*
X185323870Y-89863270D01*
X185339776Y-89848854D01*
X185357019Y-89836066D01*
X185375432Y-89825030D01*
X185394838Y-89815851D01*
X185415050Y-89808619D01*
X185435874Y-89803403D01*
X185457109Y-89800253D01*
X185478550Y-89799200D01*
X185991050Y-89799200D01*
X186012491Y-89800253D01*
X186012491Y-89800253D01*
G37*
D14*
X185734800Y-90236700D03*
D11*
G36*
X184310691Y-88225253D02*
G01*
X184331926Y-88228403D01*
X184352750Y-88233619D01*
X184372962Y-88240851D01*
X184392368Y-88250030D01*
X184410781Y-88261066D01*
X184428024Y-88273854D01*
X184443930Y-88288270D01*
X184458346Y-88304176D01*
X184471134Y-88321419D01*
X184482170Y-88339832D01*
X184491349Y-88359238D01*
X184498581Y-88379450D01*
X184503797Y-88400274D01*
X184506947Y-88421509D01*
X184508000Y-88442950D01*
X184508000Y-88880450D01*
X184506947Y-88901891D01*
X184503797Y-88923126D01*
X184498581Y-88943950D01*
X184491349Y-88964162D01*
X184482170Y-88983568D01*
X184471134Y-89001981D01*
X184458346Y-89019224D01*
X184443930Y-89035130D01*
X184428024Y-89049546D01*
X184410781Y-89062334D01*
X184392368Y-89073370D01*
X184372962Y-89082549D01*
X184352750Y-89089781D01*
X184331926Y-89094997D01*
X184310691Y-89098147D01*
X184289250Y-89099200D01*
X183776750Y-89099200D01*
X183755309Y-89098147D01*
X183734074Y-89094997D01*
X183713250Y-89089781D01*
X183693038Y-89082549D01*
X183673632Y-89073370D01*
X183655219Y-89062334D01*
X183637976Y-89049546D01*
X183622070Y-89035130D01*
X183607654Y-89019224D01*
X183594866Y-89001981D01*
X183583830Y-88983568D01*
X183574651Y-88964162D01*
X183567419Y-88943950D01*
X183562203Y-88923126D01*
X183559053Y-88901891D01*
X183558000Y-88880450D01*
X183558000Y-88442950D01*
X183559053Y-88421509D01*
X183562203Y-88400274D01*
X183567419Y-88379450D01*
X183574651Y-88359238D01*
X183583830Y-88339832D01*
X183594866Y-88321419D01*
X183607654Y-88304176D01*
X183622070Y-88288270D01*
X183637976Y-88273854D01*
X183655219Y-88261066D01*
X183673632Y-88250030D01*
X183693038Y-88240851D01*
X183713250Y-88233619D01*
X183734074Y-88228403D01*
X183755309Y-88225253D01*
X183776750Y-88224200D01*
X184289250Y-88224200D01*
X184310691Y-88225253D01*
X184310691Y-88225253D01*
G37*
D14*
X184033000Y-88661700D03*
D11*
G36*
X184310691Y-89800253D02*
G01*
X184331926Y-89803403D01*
X184352750Y-89808619D01*
X184372962Y-89815851D01*
X184392368Y-89825030D01*
X184410781Y-89836066D01*
X184428024Y-89848854D01*
X184443930Y-89863270D01*
X184458346Y-89879176D01*
X184471134Y-89896419D01*
X184482170Y-89914832D01*
X184491349Y-89934238D01*
X184498581Y-89954450D01*
X184503797Y-89975274D01*
X184506947Y-89996509D01*
X184508000Y-90017950D01*
X184508000Y-90455450D01*
X184506947Y-90476891D01*
X184503797Y-90498126D01*
X184498581Y-90518950D01*
X184491349Y-90539162D01*
X184482170Y-90558568D01*
X184471134Y-90576981D01*
X184458346Y-90594224D01*
X184443930Y-90610130D01*
X184428024Y-90624546D01*
X184410781Y-90637334D01*
X184392368Y-90648370D01*
X184372962Y-90657549D01*
X184352750Y-90664781D01*
X184331926Y-90669997D01*
X184310691Y-90673147D01*
X184289250Y-90674200D01*
X183776750Y-90674200D01*
X183755309Y-90673147D01*
X183734074Y-90669997D01*
X183713250Y-90664781D01*
X183693038Y-90657549D01*
X183673632Y-90648370D01*
X183655219Y-90637334D01*
X183637976Y-90624546D01*
X183622070Y-90610130D01*
X183607654Y-90594224D01*
X183594866Y-90576981D01*
X183583830Y-90558568D01*
X183574651Y-90539162D01*
X183567419Y-90518950D01*
X183562203Y-90498126D01*
X183559053Y-90476891D01*
X183558000Y-90455450D01*
X183558000Y-90017950D01*
X183559053Y-89996509D01*
X183562203Y-89975274D01*
X183567419Y-89954450D01*
X183574651Y-89934238D01*
X183583830Y-89914832D01*
X183594866Y-89896419D01*
X183607654Y-89879176D01*
X183622070Y-89863270D01*
X183637976Y-89848854D01*
X183655219Y-89836066D01*
X183673632Y-89825030D01*
X183693038Y-89815851D01*
X183713250Y-89808619D01*
X183734074Y-89803403D01*
X183755309Y-89800253D01*
X183776750Y-89799200D01*
X184289250Y-89799200D01*
X184310691Y-89800253D01*
X184310691Y-89800253D01*
G37*
D14*
X184033000Y-90236700D03*
M02*
