G04 #@! TF.GenerationSoftware,KiCad,Pcbnew,(5.1.2-1)-1*
G04 #@! TF.CreationDate,2022-01-01T19:51:34+01:00*
G04 #@! TF.ProjectId,STM32G0_MPU6050_circle,53544d33-3247-4305-9f4d-505536303530,rev?*
G04 #@! TF.SameCoordinates,Original*
G04 #@! TF.FileFunction,Legend,Top*
G04 #@! TF.FilePolarity,Positive*
%FSLAX46Y46*%
G04 Gerber Fmt 4.6, Leading zero omitted, Abs format (unit mm)*
G04 Created by KiCad (PCBNEW (5.1.2-1)-1) date 2022-01-01 19:51:34*
%MOMM*%
%LPD*%
G04 APERTURE LIST*
%ADD10C,0.125000*%
%ADD11C,0.150000*%
%ADD12C,0.120000*%
%ADD13C,0.100000*%
%ADD14C,0.187500*%
%ADD15C,0.010000*%
G04 APERTURE END LIST*
D10*
X174011904Y-94252380D02*
X174083333Y-94276190D01*
X174202380Y-94276190D01*
X174250000Y-94252380D01*
X174273809Y-94228571D01*
X174297619Y-94180952D01*
X174297619Y-94133333D01*
X174273809Y-94085714D01*
X174250000Y-94061904D01*
X174202380Y-94038095D01*
X174107142Y-94014285D01*
X174059523Y-93990476D01*
X174035714Y-93966666D01*
X174011904Y-93919047D01*
X174011904Y-93871428D01*
X174035714Y-93823809D01*
X174059523Y-93800000D01*
X174107142Y-93776190D01*
X174226190Y-93776190D01*
X174297619Y-93800000D01*
X174440476Y-93776190D02*
X174726190Y-93776190D01*
X174583333Y-94276190D02*
X174583333Y-93776190D01*
X174869047Y-94133333D02*
X175107142Y-94133333D01*
X174821428Y-94276190D02*
X174988095Y-93776190D01*
X175154761Y-94276190D01*
X175250000Y-93776190D02*
X175535714Y-93776190D01*
X175392857Y-94276190D02*
X175392857Y-93776190D01*
X175702380Y-93776190D02*
X175702380Y-94180952D01*
X175726190Y-94228571D01*
X175750000Y-94252380D01*
X175797619Y-94276190D01*
X175892857Y-94276190D01*
X175940476Y-94252380D01*
X175964285Y-94228571D01*
X175988095Y-94180952D01*
X175988095Y-93776190D01*
X176202380Y-94252380D02*
X176273809Y-94276190D01*
X176392857Y-94276190D01*
X176440476Y-94252380D01*
X176464285Y-94228571D01*
X176488095Y-94180952D01*
X176488095Y-94133333D01*
X176464285Y-94085714D01*
X176440476Y-94061904D01*
X176392857Y-94038095D01*
X176297619Y-94014285D01*
X176250000Y-93990476D01*
X176226190Y-93966666D01*
X176202380Y-93919047D01*
X176202380Y-93871428D01*
X176226190Y-93823809D01*
X176250000Y-93800000D01*
X176297619Y-93776190D01*
X176416666Y-93776190D01*
X176488095Y-93800000D01*
D11*
X188650000Y-108821428D02*
X188850000Y-109421428D01*
X189050000Y-108821428D01*
X189592857Y-109364285D02*
X189564285Y-109392857D01*
X189478571Y-109421428D01*
X189421428Y-109421428D01*
X189335714Y-109392857D01*
X189278571Y-109335714D01*
X189250000Y-109278571D01*
X189221428Y-109164285D01*
X189221428Y-109078571D01*
X189250000Y-108964285D01*
X189278571Y-108907142D01*
X189335714Y-108850000D01*
X189421428Y-108821428D01*
X189478571Y-108821428D01*
X189564285Y-108850000D01*
X189592857Y-108878571D01*
X190192857Y-109364285D02*
X190164285Y-109392857D01*
X190078571Y-109421428D01*
X190021428Y-109421428D01*
X189935714Y-109392857D01*
X189878571Y-109335714D01*
X189850000Y-109278571D01*
X189821428Y-109164285D01*
X189821428Y-109078571D01*
X189850000Y-108964285D01*
X189878571Y-108907142D01*
X189935714Y-108850000D01*
X190021428Y-108821428D01*
X190078571Y-108821428D01*
X190164285Y-108850000D01*
X190192857Y-108878571D01*
X191192857Y-109421428D02*
X190907142Y-109421428D01*
X190907142Y-108821428D01*
X191621428Y-109392857D02*
X191564285Y-109421428D01*
X191450000Y-109421428D01*
X191392857Y-109392857D01*
X191364285Y-109335714D01*
X191364285Y-109107142D01*
X191392857Y-109050000D01*
X191450000Y-109021428D01*
X191564285Y-109021428D01*
X191621428Y-109050000D01*
X191650000Y-109107142D01*
X191650000Y-109164285D01*
X191364285Y-109221428D01*
X192164285Y-109421428D02*
X192164285Y-108821428D01*
X192164285Y-109392857D02*
X192107142Y-109421428D01*
X191992857Y-109421428D01*
X191935714Y-109392857D01*
X191907142Y-109364285D01*
X191878571Y-109307142D01*
X191878571Y-109135714D01*
X191907142Y-109078571D01*
X191935714Y-109050000D01*
X191992857Y-109021428D01*
X192107142Y-109021428D01*
X192164285Y-109050000D01*
D12*
X181958114Y-92400000D02*
G75*
G03X181958114Y-92400000I-158114J0D01*
G01*
X192102043Y-93584000D02*
G75*
G03X192102043Y-93584000I-186043J0D01*
G01*
D10*
X188184523Y-95260714D02*
X188565476Y-95260714D01*
X188375000Y-95451190D02*
X188375000Y-95070238D01*
D13*
X170380952Y-79440476D02*
X170380952Y-79192857D01*
X170533333Y-79326190D01*
X170533333Y-79269047D01*
X170552380Y-79230952D01*
X170571428Y-79211904D01*
X170609523Y-79192857D01*
X170704761Y-79192857D01*
X170742857Y-79211904D01*
X170761904Y-79230952D01*
X170780952Y-79269047D01*
X170780952Y-79383333D01*
X170761904Y-79421428D01*
X170742857Y-79440476D01*
X170742857Y-79021428D02*
X170761904Y-79002380D01*
X170780952Y-79021428D01*
X170761904Y-79040476D01*
X170742857Y-79021428D01*
X170780952Y-79021428D01*
X170380952Y-78869047D02*
X170380952Y-78621428D01*
X170533333Y-78754761D01*
X170533333Y-78697619D01*
X170552380Y-78659523D01*
X170571428Y-78640476D01*
X170609523Y-78621428D01*
X170704761Y-78621428D01*
X170742857Y-78640476D01*
X170761904Y-78659523D01*
X170780952Y-78697619D01*
X170780952Y-78811904D01*
X170761904Y-78850000D01*
X170742857Y-78869047D01*
X170380952Y-78507142D02*
X170780952Y-78373809D01*
X170380952Y-78240476D01*
D10*
X171027380Y-83259523D02*
X171051190Y-83188095D01*
X171051190Y-83069047D01*
X171027380Y-83021428D01*
X171003571Y-82997619D01*
X170955952Y-82973809D01*
X170908333Y-82973809D01*
X170860714Y-82997619D01*
X170836904Y-83021428D01*
X170813095Y-83069047D01*
X170789285Y-83164285D01*
X170765476Y-83211904D01*
X170741666Y-83235714D01*
X170694047Y-83259523D01*
X170646428Y-83259523D01*
X170598809Y-83235714D01*
X170575000Y-83211904D01*
X170551190Y-83164285D01*
X170551190Y-83045238D01*
X170575000Y-82973809D01*
X170551190Y-82807142D02*
X171051190Y-82688095D01*
X170694047Y-82592857D01*
X171051190Y-82497619D01*
X170551190Y-82378571D01*
X171051190Y-82188095D02*
X170551190Y-82188095D01*
X170551190Y-82069047D01*
X170575000Y-81997619D01*
X170622619Y-81950000D01*
X170670238Y-81926190D01*
X170765476Y-81902380D01*
X170836904Y-81902380D01*
X170932142Y-81926190D01*
X170979761Y-81950000D01*
X171027380Y-81997619D01*
X171051190Y-82069047D01*
X171051190Y-82188095D01*
X171051190Y-81688095D02*
X170551190Y-81688095D01*
X170551190Y-81354761D02*
X170551190Y-81259523D01*
X170575000Y-81211904D01*
X170622619Y-81164285D01*
X170717857Y-81140476D01*
X170884523Y-81140476D01*
X170979761Y-81164285D01*
X171027380Y-81211904D01*
X171051190Y-81259523D01*
X171051190Y-81354761D01*
X171027380Y-81402380D01*
X170979761Y-81450000D01*
X170884523Y-81473809D01*
X170717857Y-81473809D01*
X170622619Y-81450000D01*
X170575000Y-81402380D01*
X170551190Y-81354761D01*
D13*
X178423047Y-87630380D02*
X178137333Y-87630380D01*
X178080190Y-87611333D01*
X178042095Y-87573238D01*
X178023047Y-87516095D01*
X178023047Y-87478000D01*
X178023047Y-88011333D02*
X178023047Y-87820857D01*
X178423047Y-87820857D01*
X178061142Y-88373238D02*
X178042095Y-88354190D01*
X178023047Y-88297047D01*
X178023047Y-88258952D01*
X178042095Y-88201809D01*
X178080190Y-88163714D01*
X178118285Y-88144666D01*
X178194476Y-88125619D01*
X178251619Y-88125619D01*
X178327809Y-88144666D01*
X178365904Y-88163714D01*
X178404000Y-88201809D01*
X178423047Y-88258952D01*
X178423047Y-88297047D01*
X178404000Y-88354190D01*
X178384952Y-88373238D01*
X178423047Y-88658952D02*
X178137333Y-88658952D01*
X178080190Y-88639904D01*
X178042095Y-88601809D01*
X178023047Y-88544666D01*
X178023047Y-88506571D01*
X178023047Y-89039904D02*
X178023047Y-88849428D01*
X178423047Y-88849428D01*
X178061142Y-89401809D02*
X178042095Y-89382761D01*
X178023047Y-89325619D01*
X178023047Y-89287523D01*
X178042095Y-89230380D01*
X178080190Y-89192285D01*
X178118285Y-89173238D01*
X178194476Y-89154190D01*
X178251619Y-89154190D01*
X178327809Y-89173238D01*
X178365904Y-89192285D01*
X178404000Y-89230380D01*
X178423047Y-89287523D01*
X178423047Y-89325619D01*
X178404000Y-89382761D01*
X178384952Y-89401809D01*
X178423047Y-89687523D02*
X178137333Y-89687523D01*
X178080190Y-89668476D01*
X178042095Y-89630380D01*
X178023047Y-89573238D01*
X178023047Y-89535142D01*
X178023047Y-90068476D02*
X178023047Y-89878000D01*
X178423047Y-89878000D01*
X178061142Y-90430380D02*
X178042095Y-90411333D01*
X178023047Y-90354190D01*
X178023047Y-90316095D01*
X178042095Y-90258952D01*
X178080190Y-90220857D01*
X178118285Y-90201809D01*
X178194476Y-90182761D01*
X178251619Y-90182761D01*
X178327809Y-90201809D01*
X178365904Y-90220857D01*
X178404000Y-90258952D01*
X178423047Y-90316095D01*
X178423047Y-90354190D01*
X178404000Y-90411333D01*
X178384952Y-90430380D01*
X178423047Y-90716095D02*
X178137333Y-90716095D01*
X178080190Y-90697047D01*
X178042095Y-90658952D01*
X178023047Y-90601809D01*
X178023047Y-90563714D01*
X178023047Y-91097047D02*
X178023047Y-90906571D01*
X178423047Y-90906571D01*
X178061142Y-91458952D02*
X178042095Y-91439904D01*
X178023047Y-91382761D01*
X178023047Y-91344666D01*
X178042095Y-91287523D01*
X178080190Y-91249428D01*
X178118285Y-91230380D01*
X178194476Y-91211333D01*
X178251619Y-91211333D01*
X178327809Y-91230380D01*
X178365904Y-91249428D01*
X178404000Y-91287523D01*
X178423047Y-91344666D01*
X178423047Y-91382761D01*
X178404000Y-91439904D01*
X178384952Y-91458952D01*
D11*
X181456562Y-82321428D02*
X181395848Y-82807142D01*
X181360133Y-82864285D01*
X181327991Y-82892857D01*
X181267276Y-82921428D01*
X181181562Y-82921428D01*
X181127991Y-82892857D01*
X181410133Y-82692857D02*
X181349419Y-82721428D01*
X181235133Y-82721428D01*
X181181562Y-82692857D01*
X181156562Y-82664285D01*
X181135133Y-82607142D01*
X181156562Y-82435714D01*
X181192276Y-82378571D01*
X181224419Y-82350000D01*
X181285133Y-82321428D01*
X181399419Y-82321428D01*
X181452991Y-82350000D01*
X181692276Y-82721428D02*
X181742276Y-82321428D01*
X181767276Y-82121428D02*
X181735133Y-82150000D01*
X181760133Y-82178571D01*
X181792276Y-82150000D01*
X181767276Y-82121428D01*
X181760133Y-82178571D01*
X181942276Y-82321428D02*
X182170848Y-82321428D01*
X182052991Y-82121428D02*
X181988705Y-82635714D01*
X182010133Y-82692857D01*
X182063705Y-82721428D01*
X182120848Y-82721428D01*
X182320848Y-82721428D02*
X182395848Y-82121428D01*
X182577991Y-82721428D02*
X182617276Y-82407142D01*
X182595848Y-82350000D01*
X182542276Y-82321428D01*
X182456562Y-82321428D01*
X182395848Y-82350000D01*
X182363705Y-82378571D01*
X183170848Y-82321428D02*
X183120848Y-82721428D01*
X182913705Y-82321428D02*
X182874419Y-82635714D01*
X182895848Y-82692857D01*
X182949419Y-82721428D01*
X183035133Y-82721428D01*
X183095848Y-82692857D01*
X183127991Y-82664285D01*
X183406562Y-82721428D02*
X183481562Y-82121428D01*
X183452991Y-82350000D02*
X183513705Y-82321428D01*
X183627991Y-82321428D01*
X183681562Y-82350000D01*
X183706562Y-82378571D01*
X183727991Y-82435714D01*
X183706562Y-82607142D01*
X183670848Y-82664285D01*
X183638705Y-82692857D01*
X183577991Y-82721428D01*
X183463705Y-82721428D01*
X183410133Y-82692857D01*
X183956562Y-82664285D02*
X183981562Y-82692857D01*
X183949419Y-82721428D01*
X183924419Y-82692857D01*
X183956562Y-82664285D01*
X183949419Y-82721428D01*
X184495848Y-82692857D02*
X184435133Y-82721428D01*
X184320848Y-82721428D01*
X184267276Y-82692857D01*
X184242276Y-82664285D01*
X184220848Y-82607142D01*
X184242276Y-82435714D01*
X184277991Y-82378571D01*
X184310133Y-82350000D01*
X184370848Y-82321428D01*
X184485133Y-82321428D01*
X184538705Y-82350000D01*
X184835133Y-82721428D02*
X184781562Y-82692857D01*
X184756562Y-82664285D01*
X184735133Y-82607142D01*
X184756562Y-82435714D01*
X184792276Y-82378571D01*
X184824419Y-82350000D01*
X184885133Y-82321428D01*
X184970848Y-82321428D01*
X185024419Y-82350000D01*
X185049419Y-82378571D01*
X185070848Y-82435714D01*
X185049419Y-82607142D01*
X185013705Y-82664285D01*
X184981562Y-82692857D01*
X184920848Y-82721428D01*
X184835133Y-82721428D01*
X185292276Y-82721428D02*
X185342276Y-82321428D01*
X185335133Y-82378571D02*
X185367276Y-82350000D01*
X185427991Y-82321428D01*
X185513705Y-82321428D01*
X185567276Y-82350000D01*
X185588705Y-82407142D01*
X185549419Y-82721428D01*
X185588705Y-82407142D02*
X185624419Y-82350000D01*
X185685133Y-82321428D01*
X185770848Y-82321428D01*
X185824419Y-82350000D01*
X185845848Y-82407142D01*
X185806562Y-82721428D01*
X186599419Y-82092857D02*
X185988705Y-82864285D01*
X186806562Y-82721428D02*
X186752991Y-82692857D01*
X186727991Y-82664285D01*
X186706562Y-82607142D01*
X186727991Y-82435714D01*
X186763705Y-82378571D01*
X186795848Y-82350000D01*
X186856562Y-82321428D01*
X186942276Y-82321428D01*
X186995848Y-82350000D01*
X187020848Y-82378571D01*
X187042276Y-82435714D01*
X187020848Y-82607142D01*
X186985133Y-82664285D01*
X186952991Y-82692857D01*
X186892276Y-82721428D01*
X186806562Y-82721428D01*
X187349419Y-82721428D02*
X187295848Y-82692857D01*
X187274419Y-82635714D01*
X187338705Y-82121428D01*
X187663705Y-82721428D02*
X187610133Y-82692857D01*
X187588705Y-82635714D01*
X187652991Y-82121428D01*
X187892276Y-82721428D02*
X187942276Y-82321428D01*
X187967276Y-82121428D02*
X187935133Y-82150000D01*
X187960133Y-82178571D01*
X187992276Y-82150000D01*
X187967276Y-82121428D01*
X187960133Y-82178571D01*
X188410133Y-82692857D02*
X188349419Y-82721428D01*
X188235133Y-82721428D01*
X188181562Y-82692857D01*
X188160133Y-82635714D01*
X188188705Y-82407142D01*
X188224419Y-82350000D01*
X188285133Y-82321428D01*
X188399419Y-82321428D01*
X188452991Y-82350000D01*
X188474419Y-82407142D01*
X188467276Y-82464285D01*
X188174419Y-82521428D01*
X188924419Y-82692857D02*
X188863705Y-82721428D01*
X188749419Y-82721428D01*
X188695848Y-82692857D01*
X188674419Y-82635714D01*
X188702991Y-82407142D01*
X188738705Y-82350000D01*
X188799419Y-82321428D01*
X188913705Y-82321428D01*
X188967276Y-82350000D01*
X188988705Y-82407142D01*
X188981562Y-82464285D01*
X188688705Y-82521428D01*
X189292276Y-82721428D02*
X189238705Y-82692857D01*
X189217276Y-82635714D01*
X189281562Y-82121428D01*
X189606562Y-82721428D02*
X189552991Y-82692857D01*
X189531562Y-82635714D01*
X189595848Y-82121428D01*
X189835133Y-82721428D02*
X189885133Y-82321428D01*
X189910133Y-82121428D02*
X189877991Y-82150000D01*
X189902991Y-82178571D01*
X189935133Y-82150000D01*
X189910133Y-82121428D01*
X189902991Y-82178571D01*
X190206562Y-82721428D02*
X190152991Y-82692857D01*
X190127991Y-82664285D01*
X190106562Y-82607142D01*
X190127991Y-82435714D01*
X190163705Y-82378571D01*
X190195848Y-82350000D01*
X190256562Y-82321428D01*
X190342276Y-82321428D01*
X190395848Y-82350000D01*
X190420848Y-82378571D01*
X190442276Y-82435714D01*
X190420848Y-82607142D01*
X190385133Y-82664285D01*
X190352991Y-82692857D01*
X190292276Y-82721428D01*
X190206562Y-82721428D01*
X190627991Y-82321428D02*
X190856562Y-82321428D01*
X190738705Y-82121428D02*
X190674419Y-82635714D01*
X190695848Y-82692857D01*
X190749419Y-82721428D01*
X190806562Y-82721428D01*
D14*
X179659857Y-80092321D02*
X179767000Y-80128035D01*
X179945571Y-80128035D01*
X180017000Y-80092321D01*
X180052714Y-80056607D01*
X180088428Y-79985178D01*
X180088428Y-79913750D01*
X180052714Y-79842321D01*
X180017000Y-79806607D01*
X179945571Y-79770892D01*
X179802714Y-79735178D01*
X179731285Y-79699464D01*
X179695571Y-79663750D01*
X179659857Y-79592321D01*
X179659857Y-79520892D01*
X179695571Y-79449464D01*
X179731285Y-79413750D01*
X179802714Y-79378035D01*
X179981285Y-79378035D01*
X180088428Y-79413750D01*
X180302714Y-79378035D02*
X180731285Y-79378035D01*
X180517000Y-80128035D02*
X180517000Y-79378035D01*
X180981285Y-80128035D02*
X180981285Y-79378035D01*
X181231285Y-79913750D01*
X181481285Y-79378035D01*
X181481285Y-80128035D01*
X181767000Y-79378035D02*
X182231285Y-79378035D01*
X181981285Y-79663750D01*
X182088428Y-79663750D01*
X182159857Y-79699464D01*
X182195571Y-79735178D01*
X182231285Y-79806607D01*
X182231285Y-79985178D01*
X182195571Y-80056607D01*
X182159857Y-80092321D01*
X182088428Y-80128035D01*
X181874142Y-80128035D01*
X181802714Y-80092321D01*
X181767000Y-80056607D01*
X182517000Y-79449464D02*
X182552714Y-79413750D01*
X182624142Y-79378035D01*
X182802714Y-79378035D01*
X182874142Y-79413750D01*
X182909857Y-79449464D01*
X182945571Y-79520892D01*
X182945571Y-79592321D01*
X182909857Y-79699464D01*
X182481285Y-80128035D01*
X182945571Y-80128035D01*
X183659857Y-79413750D02*
X183588428Y-79378035D01*
X183481285Y-79378035D01*
X183374142Y-79413750D01*
X183302714Y-79485178D01*
X183267000Y-79556607D01*
X183231285Y-79699464D01*
X183231285Y-79806607D01*
X183267000Y-79949464D01*
X183302714Y-80020892D01*
X183374142Y-80092321D01*
X183481285Y-80128035D01*
X183552714Y-80128035D01*
X183659857Y-80092321D01*
X183695571Y-80056607D01*
X183695571Y-79806607D01*
X183552714Y-79806607D01*
X184159857Y-79378035D02*
X184231285Y-79378035D01*
X184302714Y-79413750D01*
X184338428Y-79449464D01*
X184374142Y-79520892D01*
X184409857Y-79663750D01*
X184409857Y-79842321D01*
X184374142Y-79985178D01*
X184338428Y-80056607D01*
X184302714Y-80092321D01*
X184231285Y-80128035D01*
X184159857Y-80128035D01*
X184088428Y-80092321D01*
X184052714Y-80056607D01*
X184017000Y-79985178D01*
X183981285Y-79842321D01*
X183981285Y-79663750D01*
X184017000Y-79520892D01*
X184052714Y-79449464D01*
X184088428Y-79413750D01*
X184159857Y-79378035D01*
X185302714Y-79842321D02*
X185874142Y-79842321D01*
X185588428Y-80128035D02*
X185588428Y-79556607D01*
X186802714Y-80128035D02*
X186802714Y-79378035D01*
X187052714Y-79913750D01*
X187302714Y-79378035D01*
X187302714Y-80128035D01*
X187659857Y-80128035D02*
X187659857Y-79378035D01*
X187945571Y-79378035D01*
X188017000Y-79413750D01*
X188052714Y-79449464D01*
X188088428Y-79520892D01*
X188088428Y-79628035D01*
X188052714Y-79699464D01*
X188017000Y-79735178D01*
X187945571Y-79770892D01*
X187659857Y-79770892D01*
X188409857Y-79378035D02*
X188409857Y-79985178D01*
X188445571Y-80056607D01*
X188481285Y-80092321D01*
X188552714Y-80128035D01*
X188695571Y-80128035D01*
X188767000Y-80092321D01*
X188802714Y-80056607D01*
X188838428Y-79985178D01*
X188838428Y-79378035D01*
X189517000Y-79378035D02*
X189374142Y-79378035D01*
X189302714Y-79413750D01*
X189267000Y-79449464D01*
X189195571Y-79556607D01*
X189159857Y-79699464D01*
X189159857Y-79985178D01*
X189195571Y-80056607D01*
X189231285Y-80092321D01*
X189302714Y-80128035D01*
X189445571Y-80128035D01*
X189517000Y-80092321D01*
X189552714Y-80056607D01*
X189588428Y-79985178D01*
X189588428Y-79806607D01*
X189552714Y-79735178D01*
X189517000Y-79699464D01*
X189445571Y-79663750D01*
X189302714Y-79663750D01*
X189231285Y-79699464D01*
X189195571Y-79735178D01*
X189159857Y-79806607D01*
X190052714Y-79378035D02*
X190124142Y-79378035D01*
X190195571Y-79413750D01*
X190231285Y-79449464D01*
X190267000Y-79520892D01*
X190302714Y-79663750D01*
X190302714Y-79842321D01*
X190267000Y-79985178D01*
X190231285Y-80056607D01*
X190195571Y-80092321D01*
X190124142Y-80128035D01*
X190052714Y-80128035D01*
X189981285Y-80092321D01*
X189945571Y-80056607D01*
X189909857Y-79985178D01*
X189874142Y-79842321D01*
X189874142Y-79663750D01*
X189909857Y-79520892D01*
X189945571Y-79449464D01*
X189981285Y-79413750D01*
X190052714Y-79378035D01*
X190981285Y-79378035D02*
X190624142Y-79378035D01*
X190588428Y-79735178D01*
X190624142Y-79699464D01*
X190695571Y-79663750D01*
X190874142Y-79663750D01*
X190945571Y-79699464D01*
X190981285Y-79735178D01*
X191017000Y-79806607D01*
X191017000Y-79985178D01*
X190981285Y-80056607D01*
X190945571Y-80092321D01*
X190874142Y-80128035D01*
X190695571Y-80128035D01*
X190624142Y-80092321D01*
X190588428Y-80056607D01*
X191481285Y-79378035D02*
X191552714Y-79378035D01*
X191624142Y-79413750D01*
X191659857Y-79449464D01*
X191695571Y-79520892D01*
X191731285Y-79663750D01*
X191731285Y-79842321D01*
X191695571Y-79985178D01*
X191659857Y-80056607D01*
X191624142Y-80092321D01*
X191552714Y-80128035D01*
X191481285Y-80128035D01*
X191409857Y-80092321D01*
X191374142Y-80056607D01*
X191338428Y-79985178D01*
X191302714Y-79842321D01*
X191302714Y-79663750D01*
X191338428Y-79520892D01*
X191374142Y-79449464D01*
X191409857Y-79413750D01*
X191481285Y-79378035D01*
X181159857Y-80726250D02*
X181159857Y-80690535D01*
X181195571Y-80619107D01*
X181231285Y-80583392D01*
X180874142Y-80726250D02*
X180874142Y-80690535D01*
X180909857Y-80619107D01*
X180945571Y-80583392D01*
X181445571Y-80690535D02*
X181624142Y-81440535D01*
X181767000Y-80904821D01*
X181909857Y-81440535D01*
X182088428Y-80690535D01*
X182695571Y-81440535D02*
X182695571Y-81047678D01*
X182659857Y-80976250D01*
X182588428Y-80940535D01*
X182445571Y-80940535D01*
X182374142Y-80976250D01*
X182695571Y-81404821D02*
X182624142Y-81440535D01*
X182445571Y-81440535D01*
X182374142Y-81404821D01*
X182338428Y-81333392D01*
X182338428Y-81261964D01*
X182374142Y-81190535D01*
X182445571Y-81154821D01*
X182624142Y-81154821D01*
X182695571Y-81119107D01*
X183159857Y-81440535D02*
X183088428Y-81404821D01*
X183052714Y-81333392D01*
X183052714Y-80690535D01*
X183445571Y-81440535D02*
X183445571Y-80690535D01*
X183517000Y-81154821D02*
X183731285Y-81440535D01*
X183731285Y-80940535D02*
X183445571Y-81226250D01*
X184731285Y-81440535D02*
X184659857Y-81404821D01*
X184624142Y-81369107D01*
X184588428Y-81297678D01*
X184588428Y-81083392D01*
X184624142Y-81011964D01*
X184659857Y-80976250D01*
X184731285Y-80940535D01*
X184838428Y-80940535D01*
X184909857Y-80976250D01*
X184945571Y-81011964D01*
X184981285Y-81083392D01*
X184981285Y-81297678D01*
X184945571Y-81369107D01*
X184909857Y-81404821D01*
X184838428Y-81440535D01*
X184731285Y-81440535D01*
X185302714Y-81440535D02*
X185302714Y-80940535D01*
X185302714Y-81083392D02*
X185338428Y-81011964D01*
X185374142Y-80976250D01*
X185445571Y-80940535D01*
X185517000Y-80940535D01*
X186767000Y-81440535D02*
X186517000Y-81083392D01*
X186338428Y-81440535D02*
X186338428Y-80690535D01*
X186624142Y-80690535D01*
X186695571Y-80726250D01*
X186731285Y-80761964D01*
X186767000Y-80833392D01*
X186767000Y-80940535D01*
X186731285Y-81011964D01*
X186695571Y-81047678D01*
X186624142Y-81083392D01*
X186338428Y-81083392D01*
X187409857Y-80940535D02*
X187409857Y-81440535D01*
X187088428Y-80940535D02*
X187088428Y-81333392D01*
X187124142Y-81404821D01*
X187195571Y-81440535D01*
X187302714Y-81440535D01*
X187374142Y-81404821D01*
X187409857Y-81369107D01*
X187767000Y-80940535D02*
X187767000Y-81440535D01*
X187767000Y-81011964D02*
X187802714Y-80976250D01*
X187874142Y-80940535D01*
X187981285Y-80940535D01*
X188052714Y-80976250D01*
X188088428Y-81047678D01*
X188088428Y-81440535D01*
X188445571Y-80690535D02*
X188445571Y-80726250D01*
X188409857Y-80797678D01*
X188374142Y-80833392D01*
X188731285Y-80690535D02*
X188731285Y-80726250D01*
X188695571Y-80797678D01*
X188659857Y-80833392D01*
X189517000Y-80940535D02*
X189695571Y-81440535D01*
X189874142Y-80940535D01*
X190552714Y-81440535D02*
X190124142Y-81440535D01*
X190338428Y-81440535D02*
X190338428Y-80690535D01*
X190267000Y-80797678D01*
X190195571Y-80869107D01*
X190124142Y-80904821D01*
X190874142Y-81369107D02*
X190909857Y-81404821D01*
X190874142Y-81440535D01*
X190838428Y-81404821D01*
X190874142Y-81369107D01*
X190874142Y-81440535D01*
X191374142Y-80690535D02*
X191445571Y-80690535D01*
X191517000Y-80726250D01*
X191552714Y-80761964D01*
X191588428Y-80833392D01*
X191624142Y-80976250D01*
X191624142Y-81154821D01*
X191588428Y-81297678D01*
X191552714Y-81369107D01*
X191517000Y-81404821D01*
X191445571Y-81440535D01*
X191374142Y-81440535D01*
X191302714Y-81404821D01*
X191267000Y-81369107D01*
X191231285Y-81297678D01*
X191195571Y-81154821D01*
X191195571Y-80976250D01*
X191231285Y-80833392D01*
X191267000Y-80761964D01*
X191302714Y-80726250D01*
X191374142Y-80690535D01*
D12*
X170730000Y-77845000D02*
X170200000Y-77845000D01*
X170200000Y-77735000D02*
X170200000Y-77845000D01*
X170730000Y-77725000D02*
X170200000Y-77725000D01*
X170750000Y-77555000D02*
X170750000Y-78015000D01*
X171160000Y-77785000D02*
X170750000Y-78015000D01*
X170750000Y-77555000D02*
X171160000Y-77785000D01*
D10*
X178900000Y-78655952D02*
X178876190Y-78703571D01*
X178876190Y-78775000D01*
X178900000Y-78846428D01*
X178947619Y-78894047D01*
X178995238Y-78917857D01*
X179090476Y-78941666D01*
X179161904Y-78941666D01*
X179257142Y-78917857D01*
X179304761Y-78894047D01*
X179352380Y-78846428D01*
X179376190Y-78775000D01*
X179376190Y-78727380D01*
X179352380Y-78655952D01*
X179328571Y-78632142D01*
X179161904Y-78632142D01*
X179161904Y-78727380D01*
X179376190Y-78417857D02*
X178876190Y-78417857D01*
X179376190Y-78132142D01*
X178876190Y-78132142D01*
X179376190Y-77894047D02*
X178876190Y-77894047D01*
X178876190Y-77775000D01*
X178900000Y-77703571D01*
X178947619Y-77655952D01*
X178995238Y-77632142D01*
X179090476Y-77608333D01*
X179161904Y-77608333D01*
X179257142Y-77632142D01*
X179304761Y-77655952D01*
X179352380Y-77703571D01*
X179376190Y-77775000D01*
X179376190Y-77894047D01*
X176814285Y-94809523D02*
X176814285Y-95190476D01*
X176623809Y-95000000D02*
X177004761Y-95000000D01*
X190359523Y-108535714D02*
X190740476Y-108535714D01*
X190550000Y-108726190D02*
X190550000Y-108345238D01*
X173835714Y-106940476D02*
X173835714Y-106559523D01*
X174026190Y-106750000D02*
X173645238Y-106750000D01*
D15*
G36*
X167005525Y-84531917D02*
G01*
X167052863Y-84553203D01*
X167122267Y-84585457D01*
X167209558Y-84626717D01*
X167310560Y-84675024D01*
X167421096Y-84728416D01*
X167428896Y-84732203D01*
X167555962Y-84793616D01*
X167656832Y-84841495D01*
X167735586Y-84877476D01*
X167796305Y-84903199D01*
X167843069Y-84920302D01*
X167879959Y-84930423D01*
X167911057Y-84935201D01*
X167937210Y-84936286D01*
X168039367Y-84921971D01*
X168123379Y-84879062D01*
X168189163Y-84807617D01*
X168221426Y-84747479D01*
X168225509Y-84740440D01*
X168229141Y-84740421D01*
X168232350Y-84749203D01*
X168235163Y-84768568D01*
X168237605Y-84800297D01*
X168239705Y-84846171D01*
X168241488Y-84907974D01*
X168242982Y-84987484D01*
X168244213Y-85086486D01*
X168245208Y-85206759D01*
X168245995Y-85350086D01*
X168246599Y-85518247D01*
X168247048Y-85713025D01*
X168247368Y-85936202D01*
X168247586Y-86189557D01*
X168247729Y-86474874D01*
X168247737Y-86495967D01*
X168248400Y-88303600D01*
X167566833Y-88302312D01*
X167393773Y-88301811D01*
X167252233Y-88300970D01*
X167139868Y-88299710D01*
X167054334Y-88297952D01*
X166993285Y-88295615D01*
X166954375Y-88292619D01*
X166935261Y-88288885D01*
X166933596Y-88284334D01*
X166940488Y-88280996D01*
X167034400Y-88229751D01*
X167111591Y-88153485D01*
X167166222Y-88059248D01*
X167188867Y-87981079D01*
X167192139Y-87950512D01*
X167196846Y-87890313D01*
X167202753Y-87804675D01*
X167209627Y-87697791D01*
X167217236Y-87573855D01*
X167225346Y-87437060D01*
X167233724Y-87291600D01*
X167242137Y-87141667D01*
X167250352Y-86991455D01*
X167258135Y-86845158D01*
X167265253Y-86706968D01*
X167271474Y-86581080D01*
X167276563Y-86471685D01*
X167280288Y-86382979D01*
X167282415Y-86319154D01*
X167282828Y-86291439D01*
X167272778Y-86180763D01*
X167250333Y-86110734D01*
X167232044Y-86078741D01*
X167197129Y-86023622D01*
X167148572Y-85949860D01*
X167089360Y-85861940D01*
X167022477Y-85764345D01*
X166958023Y-85671705D01*
X166697837Y-85300410D01*
X166829025Y-84909705D01*
X166874226Y-84777081D01*
X166910694Y-84674751D01*
X166939305Y-84600535D01*
X166960936Y-84552253D01*
X166976466Y-84527724D01*
X166984428Y-84523560D01*
X167005525Y-84531917D01*
X167005525Y-84531917D01*
G37*
X167005525Y-84531917D02*
X167052863Y-84553203D01*
X167122267Y-84585457D01*
X167209558Y-84626717D01*
X167310560Y-84675024D01*
X167421096Y-84728416D01*
X167428896Y-84732203D01*
X167555962Y-84793616D01*
X167656832Y-84841495D01*
X167735586Y-84877476D01*
X167796305Y-84903199D01*
X167843069Y-84920302D01*
X167879959Y-84930423D01*
X167911057Y-84935201D01*
X167937210Y-84936286D01*
X168039367Y-84921971D01*
X168123379Y-84879062D01*
X168189163Y-84807617D01*
X168221426Y-84747479D01*
X168225509Y-84740440D01*
X168229141Y-84740421D01*
X168232350Y-84749203D01*
X168235163Y-84768568D01*
X168237605Y-84800297D01*
X168239705Y-84846171D01*
X168241488Y-84907974D01*
X168242982Y-84987484D01*
X168244213Y-85086486D01*
X168245208Y-85206759D01*
X168245995Y-85350086D01*
X168246599Y-85518247D01*
X168247048Y-85713025D01*
X168247368Y-85936202D01*
X168247586Y-86189557D01*
X168247729Y-86474874D01*
X168247737Y-86495967D01*
X168248400Y-88303600D01*
X167566833Y-88302312D01*
X167393773Y-88301811D01*
X167252233Y-88300970D01*
X167139868Y-88299710D01*
X167054334Y-88297952D01*
X166993285Y-88295615D01*
X166954375Y-88292619D01*
X166935261Y-88288885D01*
X166933596Y-88284334D01*
X166940488Y-88280996D01*
X167034400Y-88229751D01*
X167111591Y-88153485D01*
X167166222Y-88059248D01*
X167188867Y-87981079D01*
X167192139Y-87950512D01*
X167196846Y-87890313D01*
X167202753Y-87804675D01*
X167209627Y-87697791D01*
X167217236Y-87573855D01*
X167225346Y-87437060D01*
X167233724Y-87291600D01*
X167242137Y-87141667D01*
X167250352Y-86991455D01*
X167258135Y-86845158D01*
X167265253Y-86706968D01*
X167271474Y-86581080D01*
X167276563Y-86471685D01*
X167280288Y-86382979D01*
X167282415Y-86319154D01*
X167282828Y-86291439D01*
X167272778Y-86180763D01*
X167250333Y-86110734D01*
X167232044Y-86078741D01*
X167197129Y-86023622D01*
X167148572Y-85949860D01*
X167089360Y-85861940D01*
X167022477Y-85764345D01*
X166958023Y-85671705D01*
X166697837Y-85300410D01*
X166829025Y-84909705D01*
X166874226Y-84777081D01*
X166910694Y-84674751D01*
X166939305Y-84600535D01*
X166960936Y-84552253D01*
X166976466Y-84527724D01*
X166984428Y-84523560D01*
X167005525Y-84531917D01*
G36*
X168248028Y-83050034D02*
G01*
X168247951Y-83312757D01*
X168247826Y-83543573D01*
X168247611Y-83744438D01*
X168247264Y-83917312D01*
X168246743Y-84064153D01*
X168246006Y-84186918D01*
X168245010Y-84287567D01*
X168243713Y-84368057D01*
X168242074Y-84430348D01*
X168240049Y-84476397D01*
X168237597Y-84508162D01*
X168234676Y-84527603D01*
X168231244Y-84536677D01*
X168227257Y-84537342D01*
X168222675Y-84531558D01*
X168217455Y-84521281D01*
X168216395Y-84519000D01*
X168186799Y-84466819D01*
X168152593Y-84422323D01*
X168144801Y-84414592D01*
X168120409Y-84396950D01*
X168070759Y-84364645D01*
X167999816Y-84320129D01*
X167911546Y-84265854D01*
X167809915Y-84204271D01*
X167698888Y-84137833D01*
X167655734Y-84112223D01*
X167511937Y-84026848D01*
X167393190Y-83955511D01*
X167295269Y-83895217D01*
X167213950Y-83842971D01*
X167145011Y-83795780D01*
X167084228Y-83750648D01*
X167027378Y-83704583D01*
X166970239Y-83654588D01*
X166908585Y-83597670D01*
X166845241Y-83537566D01*
X166697570Y-83404566D01*
X166559823Y-83298694D01*
X166426382Y-83216986D01*
X166291628Y-83156478D01*
X166149946Y-83114207D01*
X165995717Y-83087210D01*
X165990253Y-83086533D01*
X165945959Y-83081929D01*
X165899610Y-83079168D01*
X165847062Y-83078444D01*
X165784174Y-83079951D01*
X165706801Y-83083882D01*
X165610801Y-83090431D01*
X165492031Y-83099791D01*
X165346348Y-83112157D01*
X165237267Y-83121720D01*
X165093103Y-83134967D01*
X164956942Y-83148441D01*
X164833204Y-83161632D01*
X164726311Y-83174031D01*
X164640684Y-83185131D01*
X164580743Y-83194422D01*
X164553759Y-83200366D01*
X164474171Y-83240904D01*
X164404191Y-83304278D01*
X164353453Y-83380612D01*
X164338044Y-83421514D01*
X164333192Y-83452930D01*
X164327221Y-83513203D01*
X164320419Y-83597353D01*
X164313072Y-83700400D01*
X164305468Y-83817362D01*
X164297892Y-83943260D01*
X164290632Y-84073114D01*
X164283975Y-84201942D01*
X164278207Y-84324766D01*
X164273615Y-84436603D01*
X164270486Y-84532474D01*
X164269107Y-84607399D01*
X164269067Y-84619305D01*
X164277101Y-84722415D01*
X164303110Y-84801619D01*
X164349954Y-84863319D01*
X164393243Y-84897278D01*
X164474669Y-84933190D01*
X164562103Y-84941894D01*
X164647720Y-84925353D01*
X164723694Y-84885530D01*
X164782198Y-84824388D01*
X164798360Y-84795678D01*
X164809220Y-84763739D01*
X164825673Y-84703893D01*
X164846427Y-84621392D01*
X164870193Y-84521489D01*
X164895678Y-84409436D01*
X164915063Y-84320954D01*
X165005180Y-83902775D01*
X165115490Y-83892904D01*
X165185088Y-83886279D01*
X165251268Y-83879328D01*
X165289300Y-83874850D01*
X165336189Y-83873639D01*
X165352779Y-83885819D01*
X165352800Y-83886528D01*
X165348680Y-83906868D01*
X165336936Y-83956285D01*
X165318498Y-84031082D01*
X165294293Y-84127568D01*
X165265248Y-84242046D01*
X165232292Y-84370824D01*
X165196352Y-84510207D01*
X165190080Y-84534428D01*
X165147990Y-84698399D01*
X165103987Y-84872539D01*
X165059952Y-85049223D01*
X165017763Y-85220827D01*
X164979299Y-85379728D01*
X164946440Y-85518301D01*
X164929511Y-85591523D01*
X164902607Y-85707634D01*
X164877408Y-85812888D01*
X164855066Y-85902753D01*
X164836731Y-85972695D01*
X164823554Y-86018181D01*
X164817064Y-86034453D01*
X164798397Y-86043354D01*
X164751574Y-86062671D01*
X164680180Y-86091011D01*
X164587799Y-86126979D01*
X164478016Y-86169180D01*
X164354416Y-86216220D01*
X164220582Y-86266704D01*
X164207505Y-86271614D01*
X164040653Y-86334546D01*
X163902572Y-86387604D01*
X163790168Y-86432390D01*
X163700352Y-86470508D01*
X163630029Y-86503561D01*
X163576109Y-86533152D01*
X163535499Y-86560885D01*
X163505107Y-86588363D01*
X163481842Y-86617188D01*
X163462610Y-86648965D01*
X163456224Y-86661151D01*
X163419954Y-86766925D01*
X163414439Y-86875158D01*
X163437728Y-86979756D01*
X163487869Y-87074626D01*
X163562912Y-87153673D01*
X163627300Y-87195346D01*
X163657145Y-87210020D01*
X163686048Y-87221311D01*
X163716985Y-87228688D01*
X163752929Y-87231621D01*
X163796855Y-87229580D01*
X163851737Y-87222035D01*
X163920549Y-87208455D01*
X164006266Y-87188310D01*
X164111861Y-87161071D01*
X164240309Y-87126207D01*
X164394585Y-87083187D01*
X164577662Y-87031482D01*
X164630362Y-87016547D01*
X164822288Y-86962006D01*
X164984428Y-86915433D01*
X165119619Y-86875700D01*
X165230697Y-86841675D01*
X165320497Y-86812230D01*
X165391856Y-86786234D01*
X165447611Y-86762557D01*
X165490597Y-86740071D01*
X165523650Y-86717644D01*
X165549606Y-86694146D01*
X165571302Y-86668449D01*
X165591573Y-86639422D01*
X165596718Y-86631564D01*
X165613601Y-86596978D01*
X165637880Y-86535504D01*
X165667560Y-86452791D01*
X165700644Y-86354489D01*
X165735139Y-86246249D01*
X165750651Y-86195604D01*
X165782841Y-86089441D01*
X165811703Y-85994847D01*
X165835827Y-85916394D01*
X165853805Y-85858652D01*
X165864227Y-85826193D01*
X165866240Y-85820761D01*
X165877205Y-85832666D01*
X165906417Y-85867462D01*
X165950965Y-85921595D01*
X166007935Y-85991512D01*
X166074417Y-86073659D01*
X166127500Y-86139579D01*
X166385734Y-86460912D01*
X166386514Y-86649889D01*
X166387136Y-86713646D01*
X166388532Y-86805475D01*
X166390589Y-86919593D01*
X166393193Y-87050220D01*
X166396233Y-87191572D01*
X166399595Y-87337866D01*
X166401448Y-87414600D01*
X166405722Y-87581149D01*
X166409959Y-87717562D01*
X166414764Y-87827566D01*
X166420741Y-87914885D01*
X166428497Y-87983244D01*
X166438636Y-88036369D01*
X166451765Y-88077985D01*
X166468487Y-88111818D01*
X166489409Y-88141592D01*
X166515137Y-88171034D01*
X166526292Y-88182901D01*
X166577090Y-88227025D01*
X166635121Y-88264838D01*
X166648200Y-88271429D01*
X166658715Y-88276607D01*
X166665332Y-88281182D01*
X166666164Y-88285194D01*
X166659320Y-88288680D01*
X166642911Y-88291677D01*
X166615049Y-88294223D01*
X166573844Y-88296356D01*
X166517406Y-88298113D01*
X166443848Y-88299533D01*
X166351278Y-88300652D01*
X166237809Y-88301508D01*
X166101551Y-88302139D01*
X165940615Y-88302583D01*
X165753112Y-88302877D01*
X165537152Y-88303059D01*
X165290846Y-88303167D01*
X165052233Y-88303228D01*
X163388534Y-88303600D01*
X163388534Y-82407918D01*
X166209751Y-82407918D01*
X166222779Y-82567363D01*
X166264038Y-82722327D01*
X166332669Y-82868687D01*
X166427812Y-83002322D01*
X166548609Y-83119109D01*
X166601821Y-83158739D01*
X166739076Y-83233969D01*
X166892412Y-83284014D01*
X167053820Y-83307493D01*
X167215293Y-83303027D01*
X167322492Y-83282948D01*
X167479394Y-83225498D01*
X167619874Y-83141262D01*
X167741456Y-83034034D01*
X167841663Y-82907610D01*
X167918018Y-82765782D01*
X167968044Y-82612348D01*
X167989266Y-82451099D01*
X167979206Y-82285833D01*
X167978016Y-82278588D01*
X167935090Y-82119152D01*
X167863613Y-81969421D01*
X167767430Y-81835485D01*
X167650384Y-81723431D01*
X167607751Y-81692234D01*
X167456003Y-81608106D01*
X167297440Y-81555243D01*
X167135873Y-81532883D01*
X166975113Y-81540263D01*
X166818973Y-81576623D01*
X166671264Y-81641200D01*
X166535796Y-81733233D01*
X166416383Y-81851959D01*
X166348642Y-81943912D01*
X166271823Y-82092070D01*
X166225813Y-82248113D01*
X166209751Y-82407918D01*
X163388534Y-82407918D01*
X163388534Y-81513334D01*
X168248400Y-81513334D01*
X168248028Y-83050034D01*
X168248028Y-83050034D01*
G37*
X168248028Y-83050034D02*
X168247951Y-83312757D01*
X168247826Y-83543573D01*
X168247611Y-83744438D01*
X168247264Y-83917312D01*
X168246743Y-84064153D01*
X168246006Y-84186918D01*
X168245010Y-84287567D01*
X168243713Y-84368057D01*
X168242074Y-84430348D01*
X168240049Y-84476397D01*
X168237597Y-84508162D01*
X168234676Y-84527603D01*
X168231244Y-84536677D01*
X168227257Y-84537342D01*
X168222675Y-84531558D01*
X168217455Y-84521281D01*
X168216395Y-84519000D01*
X168186799Y-84466819D01*
X168152593Y-84422323D01*
X168144801Y-84414592D01*
X168120409Y-84396950D01*
X168070759Y-84364645D01*
X167999816Y-84320129D01*
X167911546Y-84265854D01*
X167809915Y-84204271D01*
X167698888Y-84137833D01*
X167655734Y-84112223D01*
X167511937Y-84026848D01*
X167393190Y-83955511D01*
X167295269Y-83895217D01*
X167213950Y-83842971D01*
X167145011Y-83795780D01*
X167084228Y-83750648D01*
X167027378Y-83704583D01*
X166970239Y-83654588D01*
X166908585Y-83597670D01*
X166845241Y-83537566D01*
X166697570Y-83404566D01*
X166559823Y-83298694D01*
X166426382Y-83216986D01*
X166291628Y-83156478D01*
X166149946Y-83114207D01*
X165995717Y-83087210D01*
X165990253Y-83086533D01*
X165945959Y-83081929D01*
X165899610Y-83079168D01*
X165847062Y-83078444D01*
X165784174Y-83079951D01*
X165706801Y-83083882D01*
X165610801Y-83090431D01*
X165492031Y-83099791D01*
X165346348Y-83112157D01*
X165237267Y-83121720D01*
X165093103Y-83134967D01*
X164956942Y-83148441D01*
X164833204Y-83161632D01*
X164726311Y-83174031D01*
X164640684Y-83185131D01*
X164580743Y-83194422D01*
X164553759Y-83200366D01*
X164474171Y-83240904D01*
X164404191Y-83304278D01*
X164353453Y-83380612D01*
X164338044Y-83421514D01*
X164333192Y-83452930D01*
X164327221Y-83513203D01*
X164320419Y-83597353D01*
X164313072Y-83700400D01*
X164305468Y-83817362D01*
X164297892Y-83943260D01*
X164290632Y-84073114D01*
X164283975Y-84201942D01*
X164278207Y-84324766D01*
X164273615Y-84436603D01*
X164270486Y-84532474D01*
X164269107Y-84607399D01*
X164269067Y-84619305D01*
X164277101Y-84722415D01*
X164303110Y-84801619D01*
X164349954Y-84863319D01*
X164393243Y-84897278D01*
X164474669Y-84933190D01*
X164562103Y-84941894D01*
X164647720Y-84925353D01*
X164723694Y-84885530D01*
X164782198Y-84824388D01*
X164798360Y-84795678D01*
X164809220Y-84763739D01*
X164825673Y-84703893D01*
X164846427Y-84621392D01*
X164870193Y-84521489D01*
X164895678Y-84409436D01*
X164915063Y-84320954D01*
X165005180Y-83902775D01*
X165115490Y-83892904D01*
X165185088Y-83886279D01*
X165251268Y-83879328D01*
X165289300Y-83874850D01*
X165336189Y-83873639D01*
X165352779Y-83885819D01*
X165352800Y-83886528D01*
X165348680Y-83906868D01*
X165336936Y-83956285D01*
X165318498Y-84031082D01*
X165294293Y-84127568D01*
X165265248Y-84242046D01*
X165232292Y-84370824D01*
X165196352Y-84510207D01*
X165190080Y-84534428D01*
X165147990Y-84698399D01*
X165103987Y-84872539D01*
X165059952Y-85049223D01*
X165017763Y-85220827D01*
X164979299Y-85379728D01*
X164946440Y-85518301D01*
X164929511Y-85591523D01*
X164902607Y-85707634D01*
X164877408Y-85812888D01*
X164855066Y-85902753D01*
X164836731Y-85972695D01*
X164823554Y-86018181D01*
X164817064Y-86034453D01*
X164798397Y-86043354D01*
X164751574Y-86062671D01*
X164680180Y-86091011D01*
X164587799Y-86126979D01*
X164478016Y-86169180D01*
X164354416Y-86216220D01*
X164220582Y-86266704D01*
X164207505Y-86271614D01*
X164040653Y-86334546D01*
X163902572Y-86387604D01*
X163790168Y-86432390D01*
X163700352Y-86470508D01*
X163630029Y-86503561D01*
X163576109Y-86533152D01*
X163535499Y-86560885D01*
X163505107Y-86588363D01*
X163481842Y-86617188D01*
X163462610Y-86648965D01*
X163456224Y-86661151D01*
X163419954Y-86766925D01*
X163414439Y-86875158D01*
X163437728Y-86979756D01*
X163487869Y-87074626D01*
X163562912Y-87153673D01*
X163627300Y-87195346D01*
X163657145Y-87210020D01*
X163686048Y-87221311D01*
X163716985Y-87228688D01*
X163752929Y-87231621D01*
X163796855Y-87229580D01*
X163851737Y-87222035D01*
X163920549Y-87208455D01*
X164006266Y-87188310D01*
X164111861Y-87161071D01*
X164240309Y-87126207D01*
X164394585Y-87083187D01*
X164577662Y-87031482D01*
X164630362Y-87016547D01*
X164822288Y-86962006D01*
X164984428Y-86915433D01*
X165119619Y-86875700D01*
X165230697Y-86841675D01*
X165320497Y-86812230D01*
X165391856Y-86786234D01*
X165447611Y-86762557D01*
X165490597Y-86740071D01*
X165523650Y-86717644D01*
X165549606Y-86694146D01*
X165571302Y-86668449D01*
X165591573Y-86639422D01*
X165596718Y-86631564D01*
X165613601Y-86596978D01*
X165637880Y-86535504D01*
X165667560Y-86452791D01*
X165700644Y-86354489D01*
X165735139Y-86246249D01*
X165750651Y-86195604D01*
X165782841Y-86089441D01*
X165811703Y-85994847D01*
X165835827Y-85916394D01*
X165853805Y-85858652D01*
X165864227Y-85826193D01*
X165866240Y-85820761D01*
X165877205Y-85832666D01*
X165906417Y-85867462D01*
X165950965Y-85921595D01*
X166007935Y-85991512D01*
X166074417Y-86073659D01*
X166127500Y-86139579D01*
X166385734Y-86460912D01*
X166386514Y-86649889D01*
X166387136Y-86713646D01*
X166388532Y-86805475D01*
X166390589Y-86919593D01*
X166393193Y-87050220D01*
X166396233Y-87191572D01*
X166399595Y-87337866D01*
X166401448Y-87414600D01*
X166405722Y-87581149D01*
X166409959Y-87717562D01*
X166414764Y-87827566D01*
X166420741Y-87914885D01*
X166428497Y-87983244D01*
X166438636Y-88036369D01*
X166451765Y-88077985D01*
X166468487Y-88111818D01*
X166489409Y-88141592D01*
X166515137Y-88171034D01*
X166526292Y-88182901D01*
X166577090Y-88227025D01*
X166635121Y-88264838D01*
X166648200Y-88271429D01*
X166658715Y-88276607D01*
X166665332Y-88281182D01*
X166666164Y-88285194D01*
X166659320Y-88288680D01*
X166642911Y-88291677D01*
X166615049Y-88294223D01*
X166573844Y-88296356D01*
X166517406Y-88298113D01*
X166443848Y-88299533D01*
X166351278Y-88300652D01*
X166237809Y-88301508D01*
X166101551Y-88302139D01*
X165940615Y-88302583D01*
X165753112Y-88302877D01*
X165537152Y-88303059D01*
X165290846Y-88303167D01*
X165052233Y-88303228D01*
X163388534Y-88303600D01*
X163388534Y-82407918D01*
X166209751Y-82407918D01*
X166222779Y-82567363D01*
X166264038Y-82722327D01*
X166332669Y-82868687D01*
X166427812Y-83002322D01*
X166548609Y-83119109D01*
X166601821Y-83158739D01*
X166739076Y-83233969D01*
X166892412Y-83284014D01*
X167053820Y-83307493D01*
X167215293Y-83303027D01*
X167322492Y-83282948D01*
X167479394Y-83225498D01*
X167619874Y-83141262D01*
X167741456Y-83034034D01*
X167841663Y-82907610D01*
X167918018Y-82765782D01*
X167968044Y-82612348D01*
X167989266Y-82451099D01*
X167979206Y-82285833D01*
X167978016Y-82278588D01*
X167935090Y-82119152D01*
X167863613Y-81969421D01*
X167767430Y-81835485D01*
X167650384Y-81723431D01*
X167607751Y-81692234D01*
X167456003Y-81608106D01*
X167297440Y-81555243D01*
X167135873Y-81532883D01*
X166975113Y-81540263D01*
X166818973Y-81576623D01*
X166671264Y-81641200D01*
X166535796Y-81733233D01*
X166416383Y-81851959D01*
X166348642Y-81943912D01*
X166271823Y-82092070D01*
X166225813Y-82248113D01*
X166209751Y-82407918D01*
X163388534Y-82407918D01*
X163388534Y-81513334D01*
X168248400Y-81513334D01*
X168248028Y-83050034D01*
D12*
X177111500Y-92078100D02*
X181353300Y-92078100D01*
X181353300Y-86820300D02*
X177111500Y-86820300D01*
D11*
X196216000Y-93584000D02*
X196216000Y-94109000D01*
X191916000Y-97884000D02*
X191916000Y-97359000D01*
X196216000Y-97884000D02*
X196216000Y-97359000D01*
X191916000Y-93584000D02*
X192441000Y-93584000D01*
X191916000Y-97884000D02*
X192441000Y-97884000D01*
X196216000Y-97884000D02*
X195691000Y-97884000D01*
X196216000Y-93584000D02*
X195691000Y-93584000D01*
D12*
X188230000Y-95110500D02*
X188230000Y-92825500D01*
X186760000Y-95110500D02*
X188230000Y-95110500D01*
X186760000Y-92825500D02*
X186760000Y-95110500D01*
X195681221Y-91414000D02*
X196006779Y-91414000D01*
X195681221Y-92434000D02*
X196006779Y-92434000D01*
X195935221Y-99542000D02*
X196260779Y-99542000D01*
X195935221Y-100562000D02*
X196260779Y-100562000D01*
X197874000Y-96162779D02*
X197874000Y-95837221D01*
X198894000Y-96162779D02*
X198894000Y-95837221D01*
X192837221Y-99542000D02*
X193162779Y-99542000D01*
X192837221Y-100562000D02*
X193162779Y-100562000D01*
X158300000Y-89950000D02*
X158300000Y-100800000D01*
X163400000Y-89950000D02*
X158300000Y-89950000D01*
X163100000Y-90450000D02*
X163400000Y-89950000D01*
X168500000Y-90450000D02*
X163100000Y-90450000D01*
X168250000Y-89950000D02*
X168500000Y-90450000D01*
X168300000Y-89950000D02*
X168250000Y-89950000D01*
X170200000Y-89950000D02*
X168300000Y-89950000D01*
X169950000Y-90450000D02*
X170200000Y-89950000D01*
X170900000Y-90450000D02*
X169950000Y-90450000D01*
X170900000Y-100800000D02*
X170900000Y-90450000D01*
X158300000Y-100800000D02*
X170900000Y-100800000D01*
X174050000Y-104500000D02*
X177950000Y-104500000D01*
X174050000Y-106500000D02*
X177950000Y-106500000D01*
X174050000Y-104500000D02*
X174050000Y-106500000D01*
X187447800Y-100425400D02*
X187447800Y-106435400D01*
X180627800Y-102675400D02*
X180627800Y-106435400D01*
X187447800Y-106435400D02*
X186187800Y-106435400D01*
X180627800Y-106435400D02*
X181887800Y-106435400D01*
X168040000Y-104570000D02*
X169500000Y-104570000D01*
X168040000Y-107730000D02*
X171200000Y-107730000D01*
X168040000Y-107730000D02*
X168040000Y-106800000D01*
X168040000Y-104570000D02*
X168040000Y-105500000D01*
X171894800Y-78991000D02*
X171894800Y-77531000D01*
X178244800Y-81651000D02*
X178304800Y-81651000D01*
X171834800Y-81651000D02*
X171894800Y-81651000D01*
X178304800Y-81651000D02*
X178304800Y-78991000D01*
X178244800Y-78991000D02*
X178304800Y-78991000D01*
X171834800Y-78991000D02*
X171894800Y-78991000D01*
X171834800Y-81651000D02*
X171834800Y-78991000D01*
X175120000Y-117310000D02*
X175120000Y-117050000D01*
X175120000Y-114770000D02*
X175120000Y-113000000D01*
X175120000Y-113000000D02*
X175500000Y-113000000D01*
X182740000Y-113000000D02*
X182740000Y-114770000D01*
X182740000Y-117050000D02*
X182740000Y-117310000D01*
X182740000Y-113000000D02*
X182360000Y-113000000D01*
X174040000Y-98697936D02*
X174040000Y-99902064D01*
X175860000Y-98697936D02*
X175860000Y-99902064D01*
X190371600Y-108393200D02*
X190371600Y-106108200D01*
X188901600Y-108393200D02*
X190371600Y-108393200D01*
X188901600Y-106108200D02*
X188901600Y-108393200D01*
X179238800Y-93394600D02*
X176953800Y-93394600D01*
X176953800Y-93394600D02*
X176953800Y-94864600D01*
X176953800Y-94864600D02*
X179238800Y-94864600D01*
X185399021Y-98558400D02*
X185724579Y-98558400D01*
X185399021Y-97538400D02*
X185724579Y-97538400D01*
X181843021Y-98533000D02*
X182168579Y-98533000D01*
X181843021Y-97513000D02*
X182168579Y-97513000D01*
X186244800Y-89611979D02*
X186244800Y-89286421D01*
X185224800Y-89611979D02*
X185224800Y-89286421D01*
X184543000Y-89611979D02*
X184543000Y-89286421D01*
X183523000Y-89611979D02*
X183523000Y-89286421D01*
D11*
X179000666Y-90151333D02*
X179567333Y-90151333D01*
X179634000Y-90118000D01*
X179667333Y-90084666D01*
X179700666Y-90018000D01*
X179700666Y-89884666D01*
X179667333Y-89818000D01*
X179634000Y-89784666D01*
X179567333Y-89751333D01*
X179000666Y-89751333D01*
X179700666Y-89051333D02*
X179700666Y-89451333D01*
X179700666Y-89251333D02*
X179000666Y-89251333D01*
X179100666Y-89318000D01*
X179167333Y-89384666D01*
X179200666Y-89451333D01*
X177716666Y-85933333D02*
X177816666Y-85966666D01*
X177983333Y-85966666D01*
X178050000Y-85933333D01*
X178083333Y-85900000D01*
X178116666Y-85833333D01*
X178116666Y-85766666D01*
X178083333Y-85700000D01*
X178050000Y-85666666D01*
X177983333Y-85633333D01*
X177850000Y-85600000D01*
X177783333Y-85566666D01*
X177750000Y-85533333D01*
X177716666Y-85466666D01*
X177716666Y-85400000D01*
X177750000Y-85333333D01*
X177783333Y-85300000D01*
X177850000Y-85266666D01*
X178016666Y-85266666D01*
X178116666Y-85300000D01*
X178316666Y-85266666D02*
X178716666Y-85266666D01*
X178516666Y-85966666D02*
X178516666Y-85266666D01*
X178950000Y-85966666D02*
X178950000Y-85266666D01*
X179183333Y-85766666D01*
X179416666Y-85266666D01*
X179416666Y-85966666D01*
X179683333Y-85266666D02*
X180116666Y-85266666D01*
X179883333Y-85533333D01*
X179983333Y-85533333D01*
X180050000Y-85566666D01*
X180083333Y-85600000D01*
X180116666Y-85666666D01*
X180116666Y-85833333D01*
X180083333Y-85900000D01*
X180050000Y-85933333D01*
X179983333Y-85966666D01*
X179783333Y-85966666D01*
X179716666Y-85933333D01*
X179683333Y-85900000D01*
X180383333Y-85333333D02*
X180416666Y-85300000D01*
X180483333Y-85266666D01*
X180650000Y-85266666D01*
X180716666Y-85300000D01*
X180750000Y-85333333D01*
X180783333Y-85400000D01*
X180783333Y-85466666D01*
X180750000Y-85566666D01*
X180350000Y-85966666D01*
X180783333Y-85966666D01*
X190216666Y-96333333D02*
X190783333Y-96333333D01*
X190850000Y-96300000D01*
X190883333Y-96266666D01*
X190916666Y-96200000D01*
X190916666Y-96066666D01*
X190883333Y-96000000D01*
X190850000Y-95966666D01*
X190783333Y-95933333D01*
X190216666Y-95933333D01*
X190216666Y-95666666D02*
X190216666Y-95233333D01*
X190483333Y-95466666D01*
X190483333Y-95366666D01*
X190516666Y-95300000D01*
X190550000Y-95266666D01*
X190616666Y-95233333D01*
X190783333Y-95233333D01*
X190850000Y-95266666D01*
X190883333Y-95300000D01*
X190916666Y-95366666D01*
X190916666Y-95566666D01*
X190883333Y-95633333D01*
X190850000Y-95666666D01*
X194711333Y-88684666D02*
X194478000Y-88351333D01*
X194311333Y-88684666D02*
X194311333Y-87984666D01*
X194578000Y-87984666D01*
X194644666Y-88018000D01*
X194678000Y-88051333D01*
X194711333Y-88118000D01*
X194711333Y-88218000D01*
X194678000Y-88284666D01*
X194644666Y-88318000D01*
X194578000Y-88351333D01*
X194311333Y-88351333D01*
X195344666Y-87984666D02*
X195011333Y-87984666D01*
X194978000Y-88318000D01*
X195011333Y-88284666D01*
X195078000Y-88251333D01*
X195244666Y-88251333D01*
X195311333Y-88284666D01*
X195344666Y-88318000D01*
X195378000Y-88384666D01*
X195378000Y-88551333D01*
X195344666Y-88618000D01*
X195311333Y-88651333D01*
X195244666Y-88684666D01*
X195078000Y-88684666D01*
X195011333Y-88651333D01*
X194978000Y-88618000D01*
X189335666Y-96307666D02*
X189002333Y-96541000D01*
X189335666Y-96707666D02*
X188635666Y-96707666D01*
X188635666Y-96441000D01*
X188669000Y-96374333D01*
X188702333Y-96341000D01*
X188769000Y-96307666D01*
X188869000Y-96307666D01*
X188935666Y-96341000D01*
X188969000Y-96374333D01*
X189002333Y-96441000D01*
X189002333Y-96707666D01*
X188869000Y-95707666D02*
X189335666Y-95707666D01*
X188602333Y-95874333D02*
X189102333Y-96041000D01*
X189102333Y-95607666D01*
X192425333Y-88684666D02*
X192192000Y-88351333D01*
X192025333Y-88684666D02*
X192025333Y-87984666D01*
X192292000Y-87984666D01*
X192358666Y-88018000D01*
X192392000Y-88051333D01*
X192425333Y-88118000D01*
X192425333Y-88218000D01*
X192392000Y-88284666D01*
X192358666Y-88318000D01*
X192292000Y-88351333D01*
X192025333Y-88351333D01*
X192658666Y-87984666D02*
X193092000Y-87984666D01*
X192858666Y-88251333D01*
X192958666Y-88251333D01*
X193025333Y-88284666D01*
X193058666Y-88318000D01*
X193092000Y-88384666D01*
X193092000Y-88551333D01*
X193058666Y-88618000D01*
X193025333Y-88651333D01*
X192958666Y-88684666D01*
X192758666Y-88684666D01*
X192692000Y-88651333D01*
X192658666Y-88618000D01*
X187811666Y-96707666D02*
X187111666Y-96707666D01*
X187111666Y-96541000D01*
X187145000Y-96441000D01*
X187211666Y-96374333D01*
X187278333Y-96341000D01*
X187411666Y-96307666D01*
X187511666Y-96307666D01*
X187645000Y-96341000D01*
X187711666Y-96374333D01*
X187778333Y-96441000D01*
X187811666Y-96541000D01*
X187811666Y-96707666D01*
X187345000Y-95707666D02*
X187811666Y-95707666D01*
X187078333Y-95874333D02*
X187578333Y-96041000D01*
X187578333Y-95607666D01*
X193433333Y-92200000D02*
X193400000Y-92233333D01*
X193300000Y-92266666D01*
X193233333Y-92266666D01*
X193133333Y-92233333D01*
X193066666Y-92166666D01*
X193033333Y-92100000D01*
X193000000Y-91966666D01*
X193000000Y-91866666D01*
X193033333Y-91733333D01*
X193066666Y-91666666D01*
X193133333Y-91600000D01*
X193233333Y-91566666D01*
X193300000Y-91566666D01*
X193400000Y-91600000D01*
X193433333Y-91633333D01*
X193833333Y-91866666D02*
X193766666Y-91833333D01*
X193733333Y-91800000D01*
X193700000Y-91733333D01*
X193700000Y-91700000D01*
X193733333Y-91633333D01*
X193766666Y-91600000D01*
X193833333Y-91566666D01*
X193966666Y-91566666D01*
X194033333Y-91600000D01*
X194066666Y-91633333D01*
X194100000Y-91700000D01*
X194100000Y-91733333D01*
X194066666Y-91800000D01*
X194033333Y-91833333D01*
X193966666Y-91866666D01*
X193833333Y-91866666D01*
X193766666Y-91900000D01*
X193733333Y-91933333D01*
X193700000Y-92000000D01*
X193700000Y-92133333D01*
X193733333Y-92200000D01*
X193766666Y-92233333D01*
X193833333Y-92266666D01*
X193966666Y-92266666D01*
X194033333Y-92233333D01*
X194066666Y-92200000D01*
X194100000Y-92133333D01*
X194100000Y-92000000D01*
X194066666Y-91933333D01*
X194033333Y-91900000D01*
X193966666Y-91866666D01*
X198483333Y-100400000D02*
X198450000Y-100433333D01*
X198350000Y-100466666D01*
X198283333Y-100466666D01*
X198183333Y-100433333D01*
X198116666Y-100366666D01*
X198083333Y-100300000D01*
X198050000Y-100166666D01*
X198050000Y-100066666D01*
X198083333Y-99933333D01*
X198116666Y-99866666D01*
X198183333Y-99800000D01*
X198283333Y-99766666D01*
X198350000Y-99766666D01*
X198450000Y-99800000D01*
X198483333Y-99833333D01*
X198716666Y-99766666D02*
X199183333Y-99766666D01*
X198883333Y-100466666D01*
X198650000Y-93816666D02*
X198683333Y-93850000D01*
X198716666Y-93950000D01*
X198716666Y-94016666D01*
X198683333Y-94116666D01*
X198616666Y-94183333D01*
X198550000Y-94216666D01*
X198416666Y-94250000D01*
X198316666Y-94250000D01*
X198183333Y-94216666D01*
X198116666Y-94183333D01*
X198050000Y-94116666D01*
X198016666Y-94016666D01*
X198016666Y-93950000D01*
X198050000Y-93850000D01*
X198083333Y-93816666D01*
X198016666Y-93216666D02*
X198016666Y-93350000D01*
X198050000Y-93416666D01*
X198083333Y-93450000D01*
X198183333Y-93516666D01*
X198316666Y-93550000D01*
X198583333Y-93550000D01*
X198650000Y-93516666D01*
X198683333Y-93483333D01*
X198716666Y-93416666D01*
X198716666Y-93283333D01*
X198683333Y-93216666D01*
X198650000Y-93183333D01*
X198583333Y-93150000D01*
X198416666Y-93150000D01*
X198350000Y-93183333D01*
X198316666Y-93216666D01*
X198283333Y-93283333D01*
X198283333Y-93416666D01*
X198316666Y-93483333D01*
X198350000Y-93516666D01*
X198416666Y-93550000D01*
X189983333Y-100350000D02*
X189950000Y-100383333D01*
X189850000Y-100416666D01*
X189783333Y-100416666D01*
X189683333Y-100383333D01*
X189616666Y-100316666D01*
X189583333Y-100250000D01*
X189550000Y-100116666D01*
X189550000Y-100016666D01*
X189583333Y-99883333D01*
X189616666Y-99816666D01*
X189683333Y-99750000D01*
X189783333Y-99716666D01*
X189850000Y-99716666D01*
X189950000Y-99750000D01*
X189983333Y-99783333D01*
X190616666Y-99716666D02*
X190283333Y-99716666D01*
X190250000Y-100050000D01*
X190283333Y-100016666D01*
X190350000Y-99983333D01*
X190516666Y-99983333D01*
X190583333Y-100016666D01*
X190616666Y-100050000D01*
X190650000Y-100116666D01*
X190650000Y-100283333D01*
X190616666Y-100350000D01*
X190583333Y-100383333D01*
X190516666Y-100416666D01*
X190350000Y-100416666D01*
X190283333Y-100383333D01*
X190250000Y-100350000D01*
X160546666Y-95383333D02*
X161046666Y-95383333D01*
X161146666Y-95416666D01*
X161213333Y-95483333D01*
X161246666Y-95583333D01*
X161246666Y-95650000D01*
X160613333Y-95083333D02*
X160580000Y-95050000D01*
X160546666Y-94983333D01*
X160546666Y-94816666D01*
X160580000Y-94750000D01*
X160613333Y-94716666D01*
X160680000Y-94683333D01*
X160746666Y-94683333D01*
X160846666Y-94716666D01*
X161246666Y-95116666D01*
X161246666Y-94683333D01*
X175883333Y-107816666D02*
X175883333Y-107116666D01*
X176050000Y-107116666D01*
X176150000Y-107150000D01*
X176216666Y-107216666D01*
X176250000Y-107283333D01*
X176283333Y-107416666D01*
X176283333Y-107516666D01*
X176250000Y-107650000D01*
X176216666Y-107716666D01*
X176150000Y-107783333D01*
X176050000Y-107816666D01*
X175883333Y-107816666D01*
X176550000Y-107183333D02*
X176583333Y-107150000D01*
X176650000Y-107116666D01*
X176816666Y-107116666D01*
X176883333Y-107150000D01*
X176916666Y-107183333D01*
X176950000Y-107250000D01*
X176950000Y-107316666D01*
X176916666Y-107416666D01*
X176516666Y-107816666D01*
X176950000Y-107816666D01*
X183476666Y-104616666D02*
X183476666Y-105183333D01*
X183510000Y-105250000D01*
X183543333Y-105283333D01*
X183610000Y-105316666D01*
X183743333Y-105316666D01*
X183810000Y-105283333D01*
X183843333Y-105250000D01*
X183876666Y-105183333D01*
X183876666Y-104616666D01*
X184176666Y-104683333D02*
X184210000Y-104650000D01*
X184276666Y-104616666D01*
X184443333Y-104616666D01*
X184510000Y-104650000D01*
X184543333Y-104683333D01*
X184576666Y-104750000D01*
X184576666Y-104816666D01*
X184543333Y-104916666D01*
X184143333Y-105316666D01*
X184576666Y-105316666D01*
X174056666Y-87186666D02*
X173723333Y-87420000D01*
X174056666Y-87586666D02*
X173356666Y-87586666D01*
X173356666Y-87320000D01*
X173390000Y-87253333D01*
X173423333Y-87220000D01*
X173490000Y-87186666D01*
X173590000Y-87186666D01*
X173656666Y-87220000D01*
X173690000Y-87253333D01*
X173723333Y-87320000D01*
X173723333Y-87586666D01*
X173356666Y-86953333D02*
X173356666Y-86486666D01*
X174056666Y-86786666D01*
X172766666Y-87186666D02*
X172433333Y-87420000D01*
X172766666Y-87586666D02*
X172066666Y-87586666D01*
X172066666Y-87320000D01*
X172100000Y-87253333D01*
X172133333Y-87220000D01*
X172200000Y-87186666D01*
X172300000Y-87186666D01*
X172366666Y-87220000D01*
X172400000Y-87253333D01*
X172433333Y-87320000D01*
X172433333Y-87586666D01*
X172066666Y-86586666D02*
X172066666Y-86720000D01*
X172100000Y-86786666D01*
X172133333Y-86820000D01*
X172233333Y-86886666D01*
X172366666Y-86920000D01*
X172633333Y-86920000D01*
X172700000Y-86886666D01*
X172733333Y-86853333D01*
X172766666Y-86786666D01*
X172766666Y-86653333D01*
X172733333Y-86586666D01*
X172700000Y-86553333D01*
X172633333Y-86520000D01*
X172466666Y-86520000D01*
X172400000Y-86553333D01*
X172366666Y-86586666D01*
X172333333Y-86653333D01*
X172333333Y-86786666D01*
X172366666Y-86853333D01*
X172400000Y-86886666D01*
X172466666Y-86920000D01*
X191566666Y-105066666D02*
X191233333Y-105300000D01*
X191566666Y-105466666D02*
X190866666Y-105466666D01*
X190866666Y-105200000D01*
X190900000Y-105133333D01*
X190933333Y-105100000D01*
X191000000Y-105066666D01*
X191100000Y-105066666D01*
X191166666Y-105100000D01*
X191200000Y-105133333D01*
X191233333Y-105200000D01*
X191233333Y-105466666D01*
X190933333Y-104800000D02*
X190900000Y-104766666D01*
X190866666Y-104700000D01*
X190866666Y-104533333D01*
X190900000Y-104466666D01*
X190933333Y-104433333D01*
X191000000Y-104400000D01*
X191066666Y-104400000D01*
X191166666Y-104433333D01*
X191566666Y-104833333D01*
X191566666Y-104400000D01*
X179883333Y-96116666D02*
X179650000Y-95783333D01*
X179483333Y-96116666D02*
X179483333Y-95416666D01*
X179750000Y-95416666D01*
X179816666Y-95450000D01*
X179850000Y-95483333D01*
X179883333Y-95550000D01*
X179883333Y-95650000D01*
X179850000Y-95716666D01*
X179816666Y-95750000D01*
X179750000Y-95783333D01*
X179483333Y-95783333D01*
X180550000Y-96116666D02*
X180150000Y-96116666D01*
X180350000Y-96116666D02*
X180350000Y-95416666D01*
X180283333Y-95516666D01*
X180216666Y-95583333D01*
X180150000Y-95616666D01*
X165710333Y-105721666D02*
X165677000Y-105788333D01*
X165610333Y-105855000D01*
X165510333Y-105955000D01*
X165477000Y-106021666D01*
X165477000Y-106088333D01*
X165643666Y-106055000D02*
X165610333Y-106121666D01*
X165543666Y-106188333D01*
X165410333Y-106221666D01*
X165177000Y-106221666D01*
X165043666Y-106188333D01*
X164977000Y-106121666D01*
X164943666Y-106055000D01*
X164943666Y-105921666D01*
X164977000Y-105855000D01*
X165043666Y-105788333D01*
X165177000Y-105755000D01*
X165410333Y-105755000D01*
X165543666Y-105788333D01*
X165610333Y-105855000D01*
X165643666Y-105921666D01*
X165643666Y-106055000D01*
X165643666Y-105088333D02*
X165643666Y-105488333D01*
X165643666Y-105288333D02*
X164943666Y-105288333D01*
X165043666Y-105355000D01*
X165110333Y-105421666D01*
X165143666Y-105488333D01*
X175361428Y-80530000D02*
X175790000Y-80530000D01*
X175875714Y-80558571D01*
X175932857Y-80615714D01*
X175961428Y-80701428D01*
X175961428Y-80758571D01*
X175361428Y-80301428D02*
X175361428Y-79930000D01*
X175590000Y-80130000D01*
X175590000Y-80044285D01*
X175618571Y-79987142D01*
X175647142Y-79958571D01*
X175704285Y-79930000D01*
X175847142Y-79930000D01*
X175904285Y-79958571D01*
X175932857Y-79987142D01*
X175961428Y-80044285D01*
X175961428Y-80215714D01*
X175932857Y-80272857D01*
X175904285Y-80301428D01*
X174894666Y-110890666D02*
X174894666Y-111390666D01*
X174861333Y-111490666D01*
X174794666Y-111557333D01*
X174694666Y-111590666D01*
X174628000Y-111590666D01*
X175594666Y-111590666D02*
X175194666Y-111590666D01*
X175394666Y-111590666D02*
X175394666Y-110890666D01*
X175328000Y-110990666D01*
X175261333Y-111057333D01*
X175194666Y-111090666D01*
X173000000Y-99883333D02*
X173000000Y-100116666D01*
X173366666Y-100116666D02*
X172666666Y-100116666D01*
X172666666Y-99783333D01*
X173000000Y-99283333D02*
X173033333Y-99183333D01*
X173066666Y-99150000D01*
X173133333Y-99116666D01*
X173233333Y-99116666D01*
X173300000Y-99150000D01*
X173333333Y-99183333D01*
X173366666Y-99250000D01*
X173366666Y-99516666D01*
X172666666Y-99516666D01*
X172666666Y-99283333D01*
X172700000Y-99216666D01*
X172733333Y-99183333D01*
X172800000Y-99150000D01*
X172866666Y-99150000D01*
X172933333Y-99183333D01*
X172966666Y-99216666D01*
X173000000Y-99283333D01*
X173000000Y-99516666D01*
X173366666Y-98450000D02*
X173366666Y-98850000D01*
X173366666Y-98650000D02*
X172666666Y-98650000D01*
X172766666Y-98716666D01*
X172833333Y-98783333D01*
X172866666Y-98850000D01*
X189916666Y-104366666D02*
X189216666Y-104366666D01*
X189216666Y-104200000D01*
X189250000Y-104100000D01*
X189316666Y-104033333D01*
X189383333Y-104000000D01*
X189516666Y-103966666D01*
X189616666Y-103966666D01*
X189750000Y-104000000D01*
X189816666Y-104033333D01*
X189883333Y-104100000D01*
X189916666Y-104200000D01*
X189916666Y-104366666D01*
X189216666Y-103733333D02*
X189216666Y-103300000D01*
X189483333Y-103533333D01*
X189483333Y-103433333D01*
X189516666Y-103366666D01*
X189550000Y-103333333D01*
X189616666Y-103300000D01*
X189783333Y-103300000D01*
X189850000Y-103333333D01*
X189883333Y-103366666D01*
X189916666Y-103433333D01*
X189916666Y-103633333D01*
X189883333Y-103700000D01*
X189850000Y-103733333D01*
X180333333Y-94466666D02*
X180333333Y-93766666D01*
X180500000Y-93766666D01*
X180600000Y-93800000D01*
X180666666Y-93866666D01*
X180700000Y-93933333D01*
X180733333Y-94066666D01*
X180733333Y-94166666D01*
X180700000Y-94300000D01*
X180666666Y-94366666D01*
X180600000Y-94433333D01*
X180500000Y-94466666D01*
X180333333Y-94466666D01*
X181400000Y-94466666D02*
X181000000Y-94466666D01*
X181200000Y-94466666D02*
X181200000Y-93766666D01*
X181133333Y-93866666D01*
X181066666Y-93933333D01*
X181000000Y-93966666D01*
X187953333Y-98310000D02*
X187920000Y-98343333D01*
X187820000Y-98376666D01*
X187753333Y-98376666D01*
X187653333Y-98343333D01*
X187586666Y-98276666D01*
X187553333Y-98210000D01*
X187520000Y-98076666D01*
X187520000Y-97976666D01*
X187553333Y-97843333D01*
X187586666Y-97776666D01*
X187653333Y-97710000D01*
X187753333Y-97676666D01*
X187820000Y-97676666D01*
X187920000Y-97710000D01*
X187953333Y-97743333D01*
X188553333Y-97910000D02*
X188553333Y-98376666D01*
X188386666Y-97643333D02*
X188220000Y-98143333D01*
X188653333Y-98143333D01*
X179313333Y-98280000D02*
X179280000Y-98313333D01*
X179180000Y-98346666D01*
X179113333Y-98346666D01*
X179013333Y-98313333D01*
X178946666Y-98246666D01*
X178913333Y-98180000D01*
X178880000Y-98046666D01*
X178880000Y-97946666D01*
X178913333Y-97813333D01*
X178946666Y-97746666D01*
X179013333Y-97680000D01*
X179113333Y-97646666D01*
X179180000Y-97646666D01*
X179280000Y-97680000D01*
X179313333Y-97713333D01*
X179546666Y-97646666D02*
X179980000Y-97646666D01*
X179746666Y-97913333D01*
X179846666Y-97913333D01*
X179913333Y-97946666D01*
X179946666Y-97980000D01*
X179980000Y-98046666D01*
X179980000Y-98213333D01*
X179946666Y-98280000D01*
X179913333Y-98313333D01*
X179846666Y-98346666D01*
X179646666Y-98346666D01*
X179580000Y-98313333D01*
X179546666Y-98280000D01*
X185950000Y-87166666D02*
X185983333Y-87200000D01*
X186016666Y-87300000D01*
X186016666Y-87366666D01*
X185983333Y-87466666D01*
X185916666Y-87533333D01*
X185850000Y-87566666D01*
X185716666Y-87600000D01*
X185616666Y-87600000D01*
X185483333Y-87566666D01*
X185416666Y-87533333D01*
X185350000Y-87466666D01*
X185316666Y-87366666D01*
X185316666Y-87300000D01*
X185350000Y-87200000D01*
X185383333Y-87166666D01*
X185383333Y-86900000D02*
X185350000Y-86866666D01*
X185316666Y-86800000D01*
X185316666Y-86633333D01*
X185350000Y-86566666D01*
X185383333Y-86533333D01*
X185450000Y-86500000D01*
X185516666Y-86500000D01*
X185616666Y-86533333D01*
X186016666Y-86933333D01*
X186016666Y-86500000D01*
X184250000Y-87116666D02*
X184283333Y-87150000D01*
X184316666Y-87250000D01*
X184316666Y-87316666D01*
X184283333Y-87416666D01*
X184216666Y-87483333D01*
X184150000Y-87516666D01*
X184016666Y-87550000D01*
X183916666Y-87550000D01*
X183783333Y-87516666D01*
X183716666Y-87483333D01*
X183650000Y-87416666D01*
X183616666Y-87316666D01*
X183616666Y-87250000D01*
X183650000Y-87150000D01*
X183683333Y-87116666D01*
X184316666Y-86450000D02*
X184316666Y-86850000D01*
X184316666Y-86650000D02*
X183616666Y-86650000D01*
X183716666Y-86716666D01*
X183783333Y-86783333D01*
X183816666Y-86850000D01*
M02*
